<?xml version="1.0" encoding="UTF-8" standalone="no"?>
<!DOCTYPE svg PUBLIC "-//W3C//DTD SVG 1.1//EN" "http://www.w3.org/Graphics/SVG/1.1/DTD/svg11.dtd">
<svg width="100%" height="100%" viewBox="0 0 752 603" version="1.1" xmlns="http://www.w3.org/2000/svg" xmlns:xlink="http://www.w3.org/1999/xlink" xml:space="preserve" style="fill-rule:evenodd;clip-rule:evenodd;stroke-linecap:round;stroke-linejoin:round;stroke-miterlimit:1.41421;">
    <g transform="matrix(1,0,0,1,-277.284,-86.003)">
        <g transform="matrix(1.01896,0,0,0.793292,48.6287,133.99)">
            <path d="M593.404,275.064L674.9,216.104" style="fill:none;stroke-width:21.9px;stroke:#3182CF;"/>
        </g>
        <g transform="matrix(1.01896,0,0,0.793292,48.6287,133.99)">
            <path d="M774.601,458.526L787.567,318.208" style="fill:none;stroke-width:21.9px;stroke:#3182CF;"/>
        </g>
        <g transform="matrix(0.749315,0,0,-0.450485,222.562,643.414)">
            <path d="M565.744,279.977L744.151,167.044" style="fill:none;stroke-width:32.35px;stroke:#3182CF;"/>
        </g>
        <g transform="matrix(1.11811,-6.9472e-17,-6.5852e-17,1.46321,248.936,95.8629)">
            <path d="M212.024,82.077L212.625,82.08L213.226,82.083L213.826,82.088L214.426,82.095L215.025,82.103L215.624,82.112L216.222,82.123L216.82,82.135L217.417,82.149L218.014,82.164L218.611,82.181L219.207,82.199L219.802,82.219L220.397,82.24L220.992,82.262L221.586,82.286L222.179,82.311L222.772,82.337L223.365,82.365L223.957,82.395L224.548,82.426L225.14,82.458L225.73,82.492L226.32,82.527L226.91,82.563L227.499,82.601L228.087,82.64L228.675,82.681L229.262,82.723L229.849,82.767L230.436,82.811L231.022,82.858L231.607,82.905L232.192,82.954L232.776,83.005L233.36,83.056L233.943,83.11L234.525,83.164L235.107,83.22L235.689,83.277L236.27,83.336L236.85,83.396L237.43,83.457L238.009,83.52L238.588,83.584L239.166,83.649L239.743,83.716L240.32,83.784L240.896,83.854L241.472,83.925L242.047,83.997L242.622,84.07L243.196,84.145L243.769,84.222L244.342,84.299L244.914,84.378L245.486,84.458L246.057,84.54L246.627,84.623L247.197,84.707L247.766,84.792L248.334,84.879L248.902,84.968L249.47,85.057L250.036,85.148L250.602,85.24L251.168,85.333L251.732,85.428L252.296,85.524L252.86,85.622L253.423,85.72L253.985,85.82L254.546,85.922L255.107,86.024L255.667,86.128L256.227,86.233L256.786,86.34L257.344,86.447L257.901,86.556L258.458,86.667L259.014,86.778L259.57,86.891L260.125,87.005L260.679,87.121L261.232,87.237L261.785,87.355L262.337,87.474L262.888,87.595L263.439,87.717L263.989,87.84L264.538,87.964L265.087,88.089L265.635,88.216L266.182,88.344L266.728,88.474L267.274,88.604L267.819,88.736L268.363,88.869L268.907,89.003L269.45,89.139L269.992,89.275L270.533,89.413L271.074,89.553L271.614,89.693L272.153,89.835L272.691,89.978L273.229,90.122L273.766,90.267L274.302,90.414L274.837,90.561L275.372,90.71L275.906,90.86L276.439,91.012L276.971,91.165L277.503,91.318L278.034,91.473L278.564,91.63L279.093,91.787L279.621,91.946L280.149,92.106L280.676,92.267L281.202,92.429L281.727,92.592L282.252,92.757L282.775,92.923L283.298,93.089L283.82,93.258L284.341,93.427L284.862,93.597L285.381,93.769L285.9,93.942L286.418,94.116L286.935,94.291L287.452,94.467L287.967,94.645L288.482,94.824L288.996,95.003L289.509,95.184L290.021,95.367L290.532,95.55L291.043,95.734L291.553,95.92L292.061,96.107L292.569,96.294L293.076,96.483L293.583,96.674L294.088,96.865L294.592,97.057L295.096,97.251L295.599,97.446L296.101,97.641L296.602,97.838L297.102,98.036L297.601,98.235L298.099,98.436L298.597,98.637L299.093,98.84L299.589,99.043L300.084,99.248L300.578,99.454L301.071,99.661L301.563,99.869L302.054,100.078L302.544,100.288L303.033,100.5L303.522,100.712L304.009,100.926L304.496,101.14L304.981,101.356L305.466,101.573L305.95,101.791L306.433,102.01L306.915,102.23L307.396,102.451L307.876,102.673L308.355,102.897L308.833,103.121L309.31,103.346L309.786,103.573L310.262,103.801L310.736,104.029L311.209,104.259L311.682,104.49L312.153,104.721L312.623,104.954L313.093,105.188L313.561,105.423L314.029,105.659L314.495,105.896L314.961,106.134L315.425,106.373L315.889,106.614L316.352,106.855L316.813,107.097L317.274,107.34L317.733,107.585L318.192,107.83L318.649,108.076L319.106,108.324L319.561,108.572L320.016,108.821L320.469,109.072L320.922,109.323L321.373,109.576L321.824,109.829L322.273,110.084L322.721,110.339L323.169,110.596L323.615,110.853L324.06,111.112L324.504,111.371L324.947,111.631L325.389,111.893L325.83,112.155L326.27,112.419L326.709,112.683L327.147,112.949L327.584,113.215L328.019,113.482L328.454,113.751L328.888,114.02L329.32,114.29L329.751,114.562L330.182,114.834L330.611,115.107L331.039,115.381L331.466,115.656L331.892,115.932L332.317,116.209L332.74,116.487L333.163,116.766L333.585,117.046L334.005,117.327L334.424,117.609L334.843,117.892L335.26,118.175L335.676,118.46L336.09,118.745L336.504,119.032L336.917,119.319L337.328,119.608L337.738,119.897L338.148,120.187L338.556,120.478L338.962,120.77L339.368,121.063L339.773,121.357L340.176,121.652L340.578,121.948L340.98,122.244L341.379,122.542L341.778,122.84L342.176,123.14L342.572,123.44L342.968,123.741L343.362,124.043L343.755,124.346L344.146,124.65L344.537,124.955L344.926,125.26L345.315,125.567L345.702,125.874L346.087,126.183L346.472,126.492L346.855,126.802L347.238,127.113L347.619,127.424L347.998,127.737L348.377,128.051L348.754,128.365L349.13,128.68L349.505,128.996L349.879,129.313L350.251,129.631L350.623,129.95L350.993,130.269L351.361,130.59L351.729,130.911L352.095,131.233L352.46,131.556L352.824,131.88L353.187,132.205L353.548,132.53L353.908,132.856L354.267,133.184L354.624,133.511L354.98,133.84L355.335,134.17L355.689,134.5L356.042,134.832L356.393,135.164L356.743,135.497L357.091,135.83L357.439,136.165L357.785,136.5L358.129,136.837L358.473,137.174L358.815,137.511L359.156,137.85L359.495,138.189L359.834,138.53L360.171,138.871L360.506,139.212L360.841,139.555L361.174,139.898L361.505,140.242L361.836,140.587L362.165,140.933L362.492,141.28L362.819,141.627L363.144,141.975L363.468,142.324L363.79,142.674L364.111,143.024L364.431,143.375L364.749,143.727L365.066,144.08L365.382,144.433L365.696,144.787L366.009,145.142L366.321,145.498L366.631,145.855L366.94,146.212L367.247,146.57L367.553,146.929L367.858,147.288L368.161,147.648L368.463,148.009L368.764,148.371L369.063,148.733L369.361,149.096L369.657,149.46L369.952,149.825L370.246,150.19L370.538,150.556L370.829,150.923L371.118,151.291L371.406,151.659L371.693,152.028L371.978,152.398L372.262,152.768L372.544,153.139L372.825,153.511L373.104,153.884L373.382,154.257L373.659,154.631L373.934,155.005L374.208,155.381L374.48,155.757L374.751,156.133L375.02,156.511L375.288,156.889L375.555,157.268L375.82,157.647L376.083,158.027L376.346,158.408L376.606,158.789L376.865,159.172L377.123,159.554L377.379,159.938L377.634,160.322L377.887,160.707L378.139,161.092L378.39,161.479L378.638,161.865L378.886,162.253L379.132,162.641L379.376,163.03L379.619,163.419L379.86,163.809L380.1,164.2L380.338,164.591L380.575,164.983L380.811,165.376L381.044,165.769L381.277,166.163L381.507,166.558L381.737,166.953L381.964,167.349L382.191,167.745L382.415,168.142L382.638,168.54L382.86,168.938L383.08,169.337L383.298,169.737L383.515,170.137L383.731,170.538L383.945,170.939L384.157,171.341L384.368,171.744L384.577,172.147L384.784,172.551L384.99,172.955L385.195,173.36L385.398,173.766L385.599,174.172L385.799,174.579L385.997,174.986L386.193,175.394L386.388,175.803L386.582,176.212L386.774,176.621L386.964,177.032L387.152,177.443L387.339,177.854L387.525,178.266L387.709,178.679L387.891,179.092L388.071,179.505L388.25,179.92L388.428,180.334L388.603,180.75L388.777,181.166L388.95,181.582L389.121,181.999L389.29,182.417L389.457,182.835L389.623,183.253L389.788,183.673L389.95,184.092L390.111,184.513L390.27,184.933L390.428,185.355L390.584,185.777L390.739,186.199L390.891,186.622L391.042,187.045L391.192,187.469L391.339,187.894L391.485,188.319L391.63,188.744L391.772,189.17L391.913,189.597L392.053,190.024L392.19,190.451L392.326,190.879L392.46,191.308L392.593,191.737L392.724,192.167L392.853,192.597L392.98,193.027L393.106,193.458L393.23,193.89L393.352,194.322L393.473,194.754L393.592,195.187L393.709,195.621L393.824,196.055L393.938,196.489L394.05,196.924L394.16,197.359L394.268,197.795L394.375,198.231L394.48,198.668L394.583,199.105L394.685,199.543L394.785,199.981L394.883,200.42L394.979,200.859L395.073,201.298L395.166,201.738L395.257,202.179L395.346,202.62L395.434,203.061L395.519,203.503L395.603,203.945L395.685,204.387L395.766,204.83L395.844,205.274L395.921,205.718L395.996,206.162L396.069,206.607L396.14,207.052L396.21,207.498L396.278,207.944L396.343,208.39L396.408,208.837L396.47,209.284L396.53,209.732L396.589,210.18L396.646,210.628L396.701,211.077L396.754,211.527L396.806,211.976L396.855,212.426L396.903,212.877L396.949,213.328L396.993,213.779L397.035,214.231L397.075,214.683L397.114,215.135L397.151,215.588L397.185,216.041L397.218,216.495L397.25,216.949L397.279,217.403L397.306,217.858L397.332,218.313L397.355,218.768L397.377,219.224L397.397,219.68L397.415,220.136L397.431,220.593L397.445,221.05L397.458,221.508L397.468,221.966L397.477,222.424L397.483,222.883L397.488,223.342L397.491,223.801L397.492,224.261L397.491,224.72L397.488,225.18L397.483,225.639L397.477,226.097L397.468,226.555L397.458,227.013L397.445,227.471L397.431,227.928L397.415,228.385L397.397,228.842L397.377,229.298L397.355,229.753L397.332,230.209L397.306,230.664L397.279,231.119L397.25,231.573L397.218,232.027L397.185,232.48L397.151,232.934L397.114,233.386L397.075,233.839L397.035,234.291L396.993,234.742L396.949,235.194L396.903,235.645L396.855,236.095L396.806,236.545L396.754,236.995L396.701,237.444L396.646,237.893L396.589,238.341L396.53,238.79L396.47,239.237L396.408,239.684L396.343,240.131L396.278,240.578L396.21,241.024L396.14,241.469L396.069,241.915L395.996,242.359L395.921,242.804L395.844,243.248L395.766,243.691L395.685,244.134L395.603,244.577L395.519,245.019L395.434,245.461L395.346,245.902L395.257,246.343L395.166,246.783L395.073,247.223L394.979,247.662L394.883,248.102L394.785,248.54L394.685,248.978L394.583,249.416L394.48,249.853L394.375,250.29L394.268,250.726L394.16,251.162L394.05,251.597L393.938,252.032L393.824,252.467L393.709,252.901L393.592,253.334L393.473,253.767L393.352,254.2L393.23,254.632L393.106,255.063L392.98,255.494L392.853,255.925L392.724,256.355L392.593,256.784L392.46,257.213L392.326,257.642L392.19,258.07L392.053,258.498L391.913,258.925L391.772,259.351L391.63,259.777L391.485,260.203L391.339,260.628L391.192,261.052L391.042,261.476L390.891,261.9L390.739,262.322L390.584,262.745L390.428,263.167L390.27,263.588L390.111,264.009L389.95,264.429L389.788,264.849L389.623,265.268L389.457,265.687L389.29,266.105L389.121,266.522L388.95,266.939L388.777,267.356L388.603,267.772L388.428,268.187L388.25,268.602L388.071,269.016L387.891,269.43L387.709,269.843L387.525,270.255L387.339,270.667L387.152,271.079L386.964,271.49L386.774,271.9L386.582,272.31L386.388,272.719L386.193,273.127L385.997,273.535L385.799,273.943L385.599,274.349L385.398,274.756L385.195,275.161L384.99,275.566L384.784,275.971L384.577,276.374L384.368,276.778L384.157,277.18L383.945,277.582L383.731,277.984L383.515,278.384L383.298,278.784L383.08,279.184L382.86,279.583L382.638,279.981L382.415,280.379L382.191,280.776L381.964,281.173L381.737
,281.568L381.507,281.964L381.277,282.358L381.044,282.752L380.811,283.145L380.575,283.538L380.338,283.93L380.1,284.321L379.86,284.712L379.619,285.102L379.376,285.492L379.132,285.88L378.886,286.269L378.638,286.656L378.39,287.043L378.139,287.429L377.887,287.815L377.634,288.199L377.379,288.584L377.123,288.967L376.865,289.35L376.606,289.732L376.346,290.114L376.083,290.494L375.82,290.874L375.555,291.254L375.288,291.633L375.02,292.011L374.751,292.388L374.48,292.765L374.208,293.141L373.934,293.516L373.659,293.891L373.382,294.265L373.104,294.638L372.825,295.01L372.544,295.382L372.262,295.753L371.978,296.124L371.693,296.493L371.406,296.862L371.118,297.231L370.829,297.598L370.538,297.965L370.246,298.331L369.952,298.696L369.657,299.061L369.361,299.425L369.063,299.788L368.764,300.151L368.463,300.512L368.161,300.873L367.858,301.233L367.553,301.593L367.247,301.952L366.94,302.31L366.631,302.667L366.321,303.023L366.009,303.379L365.696,303.734L365.382,304.088L365.066,304.442L364.749,304.794L364.431,305.146L364.111,305.498L363.79,305.848L363.468,306.198L363.144,306.546L362.819,306.894L362.492,307.242L362.165,307.588L361.836,307.934L361.505,308.279L361.174,308.623L360.841,308.967L360.506,309.309L360.171,309.651L359.834,309.992L359.495,310.332L359.156,310.671L358.815,311.01L358.473,311.348L358.129,311.685L357.785,312.021L357.439,312.356L357.091,312.691L356.743,313.025L356.393,313.358L356.042,313.69L355.689,314.021L355.335,314.351L354.98,314.681L354.624,315.01L354.267,315.338L353.908,315.665L353.548,315.991L353.187,316.317L352.824,316.641L352.46,316.965L352.095,317.288L351.729,317.61L351.361,317.932L350.993,318.252L350.623,318.572L350.251,318.89L349.879,319.208L349.505,319.525L349.13,319.841L348.754,320.156L348.377,320.471L347.998,320.784L347.619,321.097L347.238,321.409L346.855,321.72L346.472,322.03L346.087,322.339L345.702,322.647L345.315,322.955L344.926,323.261L344.537,323.567L344.146,323.871L343.755,324.175L343.362,324.478L342.968,324.78L342.572,325.081L342.176,325.382L341.778,325.681L341.379,325.979L340.98,326.277L340.578,326.574L340.176,326.869L339.773,327.164L339.368,327.458L338.962,327.751L338.556,328.043L338.148,328.334L337.738,328.624L337.328,328.914L336.917,329.202L336.504,329.49L336.09,329.776L335.676,330.062L335.26,330.346L334.843,330.63L334.424,330.913L334.005,331.194L333.585,331.475L333.163,331.755L332.74,332.034L332.317,332.312L331.892,332.589L331.466,332.865L331.039,333.14L330.611,333.414L330.182,333.688L329.751,333.96L329.32,334.231L328.888,334.501L328.454,334.771L328.019,335.039L327.584,335.306L327.147,335.573L326.709,335.838L326.27,336.103L325.83,336.366L325.389,336.629L324.947,336.89L324.504,337.15L324.06,337.41L323.615,337.668L323.169,337.926L322.721,338.182L322.273,338.438L321.824,338.692L321.373,338.946L320.922,339.198L320.469,339.45L320.016,339.7L319.561,339.949L319.106,340.198L318.649,340.445L318.192,340.692L317.733,340.937L317.274,341.181L316.813,341.424L316.352,341.667L315.889,341.908L315.425,342.148L314.961,342.387L314.495,342.625L314.029,342.862L313.561,343.098L313.093,343.333L312.623,343.567L312.153,343.8L311.682,344.032L311.209,344.263L310.736,344.492L310.262,344.721L309.786,344.948L309.31,345.175L308.833,345.4L308.355,345.625L307.876,345.848L307.396,346.07L306.915,346.291L306.433,346.511L305.95,346.73L305.466,346.948L304.981,347.165L304.496,347.381L304.009,347.596L303.522,347.809L303.033,348.022L302.544,348.233L302.054,348.443L301.563,348.652L301.071,348.86L300.578,349.067L300.084,349.273L299.589,349.478L299.093,349.682L298.597,349.884L298.099,350.086L297.601,350.286L297.102,350.485L296.602,350.683L296.101,350.88L295.599,351.076L295.096,351.271L294.592,351.464L294.088,351.657L293.583,351.848L293.076,352.038L292.569,352.227L292.061,352.415L291.553,352.602L291.043,352.787L290.532,352.972L290.021,353.155L289.509,353.337L288.996,353.518L288.482,353.698L287.967,353.876L287.452,354.054L286.935,354.23L286.418,354.406L285.9,354.58L285.381,354.752L284.862,354.924L284.341,355.095L283.82,355.264L283.298,355.432L282.775,355.599L282.252,355.765L281.727,355.929L281.202,356.093L280.676,356.255L280.149,356.416L279.621,356.576L279.093,356.734L278.564,356.892L278.034,357.048L277.503,357.203L276.971,357.357L276.439,357.51L275.906,357.661L275.372,357.811L274.837,357.96L274.302,358.108L273.766,358.254L273.229,358.4L272.691,358.544L272.153,358.687L271.614,358.828L271.074,358.969L270.533,359.108L269.992,359.246L269.45,359.383L268.907,359.518L268.363,359.653L267.819,359.786L267.274,359.917L266.728,360.048L266.182,360.177L265.635,360.305L265.087,360.432L264.538,360.558L263.989,360.682L263.439,360.805L262.888,360.927L262.337,361.047L261.785,361.166L261.232,361.284L260.679,361.401L260.125,361.516L259.57,361.63L259.014,361.743L258.458,361.855L257.901,361.965L257.344,362.074L256.786,362.182L256.227,362.288L255.667,362.393L255.107,362.497L254.546,362.6L253.985,362.701L253.423,362.801L252.86,362.9L252.296,362.997L251.732,363.093L251.168,363.188L250.602,363.281L250.036,363.374L249.47,363.464L248.902,363.554L248.334,363.642L247.766,363.729L247.197,363.815L246.627,363.899L246.057,363.982L245.486,364.063L244.914,364.143L244.342,364.222L243.769,364.3L243.196,364.376L242.622,364.451L242.047,364.525L241.472,364.597L240.896,364.668L240.32,364.737L239.743,364.805L239.166,364.872L238.588,364.937L238.009,365.002L237.43,365.064L236.85,365.126L236.27,365.186L235.689,365.244L235.107,365.302L234.525,365.357L233.943,365.412L233.36,365.465L232.776,365.517L232.192,365.567L231.607,365.616L231.022,365.664L230.436,365.71L229.849,365.755L229.262,365.798L228.675,365.84L228.087,365.881L227.499,365.92L226.91,365.958L226.32,365.995L225.73,366.03L225.14,366.063L224.548,366.096L223.957,366.127L223.365,366.156L222.772,366.184L222.179,366.211L221.586,366.236L220.992,366.26L220.397,366.282L219.802,366.303L219.207,366.322L218.611,366.34L218.014,366.357L217.417,366.372L216.82,366.386L216.222,366.398L215.624,366.409L215.025,366.419L214.426,366.427L213.826,366.433L213.226,366.438L212.625,366.442L212.024,366.444L211.423,366.445L210.821,366.444L210.22,366.442L209.619,366.438L209.019,366.433L208.42,366.427L207.82,366.419L207.222,366.409L206.623,366.398L206.025,366.386L205.428,366.372L204.831,366.357L204.235,366.34L203.639,366.322L203.043,366.303L202.448,366.282L201.854,366.26L201.26,366.236L200.666,366.211L200.073,366.184L199.48,366.156L198.888,366.127L198.297,366.096L197.706,366.063L197.115,366.03L196.525,365.995L195.936,365.958L195.347,365.92L194.758,365.881L194.17,365.84L193.583,365.798L192.996,365.755L192.409,365.71L191.824,365.664L191.238,365.616L190.654,365.567L190.069,365.517L189.486,365.465L188.903,365.412L188.32,365.357L187.738,365.302L187.156,365.244L186.576,365.186L185.995,365.126L185.415,365.064L184.836,365.002L184.258,364.937L183.679,364.872L183.102,364.805L182.525,364.737L181.949,364.668L181.373,364.597L180.798,364.525L180.223,364.451L179.649,364.376L179.076,364.3L178.503,364.222L177.931,364.143L177.359,364.063L176.788,363.982L176.218,363.899L175.648,363.815L175.079,363.729L174.511,363.642L173.943,363.554L173.376,363.464L172.809,363.374L172.243,363.281L171.678,363.188L171.113,363.093L170.549,362.997L169.985,362.9L169.423,362.801L168.861,362.701L168.299,362.6L167.738,362.497L167.178,362.393L166.619,362.288L166.06,362.182L165.502,362.074L164.944,361.965L164.387,361.855L163.831,361.743L163.275,361.63L162.721,361.516L162.166,361.401L161.613,361.284L161.06,361.166L160.508,361.047L159.957,360.927L159.406,360.805L158.856,360.682L158.307,360.558L157.758,360.432L157.21,360.305L156.663,360.177L156.117,360.048L155.571,359.917L155.026,359.786L154.482,359.653L153.938,359.518L153.395,359.383L152.853,359.246L152.312,359.108L151.771,358.969L151.232,358.828L150.692,358.687L150.154,358.544L149.616,358.4L149.079,358.254L148.543,358.108L148.008,357.96L147.473,357.811L146.939,357.661L146.406,357.51L145.874,357.357L145.343,357.203L144.812,357.048L144.282,356.892L143.753,356.734L143.224,356.576L142.696,356.416L142.17,356.255L141.643,356.093L141.118,355.929L140.594,355.765L140.07,355.599L139.547,355.432L139.025,355.264L138.504,355.095L137.983,354.924L137.464,354.752L136.945,354.58L136.427,354.406L135.91,354.23L135.393,354.054L134.878,353.876L134.363,353.698L133.849,353.518L133.336,353.337L132.824,353.155L132.313,352.972L131.802,352.787L131.293,352.602L130.784,352.415L130.276,352.227L129.769,352.038L129.263,351.848L128.757,351.657L128.253,351.464L127.749,351.271L127.246,351.076L126.745,350.88L126.244,350.683L125.743,350.485L125.244,350.286L124.746,350.086L124.248,349.884L123.752,349.682L123.256,349.478L122.761,349.273L122.268,349.067L121.775,348.86L121.283,348.652L120.791,348.443L120.301,348.233L119.812,348.022L119.323,347.809L118.836,347.596L118.349,347.381L117.864,347.165L117.379,346.948L116.895,346.73L116.412,346.511L115.931,346.291L115.45,346.07L114.97,345.848L114.49,345.625L114.012,345.4L113.535,345.175L113.059,344.948L112.584,344.721L112.109,344.492L111.636,344.263L111.164,344.032L110.692,343.8L110.222,343.567L109.752,343.333L109.284,343.098L108.816,342.862L108.35,342.625L107.884,342.387L107.42,342.148L106.956,341.908L106.494,341.667L106.032,341.424L105.572,341.181L105.112,340.937L104.653,340.692L104.196,340.445L103.739,340.198L103.284,339.949L102.829,339.7L102.376,339.45L101.923,339.198L101.472,338.946L101.022,338.692L100.572,338.438L100.124,338.182L99.677,337.926L99.23,337.668L98.785,337.41L98.341,337.15L97.898,336.89L97.456,336.629L97.015,336.366L96.575,336.103L96.136,335.838L95.698,335.573L95.262,335.306L94.826,335.039L94.391,334.771L93.958,334.501L93.525,334.231L93.094,333.96L92.664,333.688L92.234,333.414L91.806,333.14L91.379,332.865L90.953,332.589L90.528,332.312L90.105,332.034L89.682,331.755L89.261,331.475L88.84,331.194L88.421,330.913L88.003,330.63L87.586,330.346L87.17,330.062L86.755,329.776L86.341,329.49L85.929,329.202L85.517,328.914L85.107,328.624L84.698,328.334L84.29,328.043L83.883,327.751L83.477,327.458L83.073,327.164L82.669,326.869L82.267,326.574L81.866,326.277L81.466,325.979L81.067,325.681L80.669,325.382L80.273,325.081L79.878,324.78L79.484,324.478L79.091,324.175L78.699
,323.871L78.308,323.567L77.919,323.261L77.531,322.955L77.144,322.647L76.758,322.339L76.373,322.03L75.99,321.72L75.608,321.409L75.227,321.097L74.847,320.784L74.468,320.471L74.091,320.156L73.715,319.841L73.34,319.525L72.966,319.208L72.594,318.89L72.223,318.572L71.853,318.252L71.484,317.932L71.116,317.61L70.75,317.288L70.385,316.965L70.021,316.641L69.659,316.317L69.297,315.991L68.937,315.665L68.579,315.338L68.221,315.01L67.865,314.681L67.51,314.351L67.156,314.021L66.804,313.69L66.452,313.358L66.103,313.025L65.754,312.691L65.407,312.356L65.061,312.021L64.716,311.685L64.372,311.348L64.03,311.01L63.689,310.671L63.35,310.332L63.012,309.992L62.675,309.651L62.339,309.309L62.005,308.967L61.672,308.623L61.34,308.279L61.01,307.934L60.681,307.588L60.353,307.242L60.026,306.894L59.701,306.546L59.378,306.198L59.055,305.848L58.734,305.498L58.415,305.146L58.096,304.794L57.779,304.442L57.464,304.088L57.149,303.734L56.836,303.379L56.525,303.023L56.215,302.667L55.906,302.31L55.598,301.952L55.292,301.593L54.987,301.233L54.684,300.873L54.382,300.512L54.082,300.151L53.782,299.788L53.485,299.425L53.188,299.061L52.893,298.696L52.599,298.331L52.307,297.965L52.016,297.598L51.727,297.231L51.439,296.862L51.152,296.493L50.867,296.124L50.584,295.753L50.301,295.382L50.02,295.01L49.741,294.638L49.463,294.265L49.186,293.891L48.911,293.516L48.637,293.141L48.365,292.765L48.094,292.388L47.825,292.011L47.557,291.633L47.29,291.254L47.025,290.874L46.762,290.494L46.5,290.114L46.239,289.732L45.98,289.35L45.722,288.967L45.466,288.584L45.211,288.199L44.958,287.815L44.706,287.429L44.456,287.043L44.207,286.656L43.959,286.269L43.714,285.88L43.469,285.492L43.226,285.102L42.985,284.712L42.745,284.321L42.507,283.93L42.27,283.538L42.035,283.145L41.801,282.752L41.569,282.358L41.338,281.964L41.109,281.568L40.881,281.173L40.655,280.776L40.43,280.379L40.207,279.981L39.985,279.583L39.765,279.184L39.547,278.784L39.33,278.384L39.114,277.984L38.901,277.582L38.688,277.18L38.478,276.778L38.268,276.374L38.061,275.971L37.855,275.566L37.65,275.161L37.447,274.756L37.246,274.349L37.046,273.943L36.848,273.535L36.652,273.127L36.457,272.719L36.263,272.31L36.072,271.9L35.881,271.49L35.693,271.079L35.506,270.667L35.32,270.255L35.137,269.843L34.954,269.43L34.774,269.016L34.595,268.602L34.418,268.187L34.242,267.772L34.068,267.356L33.895,266.939L33.725,266.522L33.555,266.105L33.388,265.687L33.222,265.268L33.058,264.849L32.895,264.429L32.734,264.009L32.575,263.588L32.417,263.167L32.261,262.745L32.107,262.322L31.954,261.9L31.803,261.476L31.654,261.052L31.506,260.628L31.36,260.203L31.216,259.777L31.073,259.351L30.932,258.925L30.793,258.498L30.655,258.07L30.519,257.642L30.385,257.213L30.252,256.784L30.122,256.355L29.992,255.925L29.865,255.494L29.739,255.063L29.615,254.632L29.493,254.2L29.372,253.767L29.254,253.334L29.136,252.901L29.021,252.467L28.907,252.032L28.795,251.597L28.685,251.162L28.577,250.726L28.47,250.29L28.365,249.853L28.262,249.416L28.16,248.978L28.061,248.54L27.963,248.102L27.866,247.662L27.772,247.223L27.679,246.783L27.588,246.343L27.499,245.902L27.412,245.461L27.326,245.019L27.242,244.577L27.16,244.134L27.08,243.691L27.001,243.248L26.924,242.804L26.849,242.359L26.776,241.915L26.705,241.469L26.635,241.024L26.568,240.578L26.502,240.131L26.438,239.684L26.375,239.237L26.315,238.79L26.256,238.341L26.199,237.893L26.144,237.444L26.091,236.995L26.04,236.545L25.99,236.095L25.942,235.645L25.896,235.194L25.852,234.742L25.81,234.291L25.77,233.839L25.731,233.386L25.695,232.934L25.66,232.48L25.627,232.027L25.596,231.573L25.566,231.119L25.539,230.664L25.514,230.209L25.49,229.753L25.468,229.298L25.448,228.842L25.43,228.385L25.414,227.928L25.4,227.471L25.388,227.013L25.377,226.555L25.369,226.097L25.362,225.639L25.357,225.18L25.354,224.72L25.353,224.261L25.354,223.801L25.357,223.342L25.362,222.883L25.369,222.424L25.377,221.966L25.388,221.508L25.4,221.05L25.414,220.593L25.43,220.136L25.448,219.68L25.468,219.224L25.49,218.768L25.514,218.313L25.539,217.858L25.566,217.403L25.596,216.949L25.627,216.495L25.66,216.041L25.695,215.588L25.731,215.135L25.77,214.683L25.81,214.231L25.852,213.779L25.896,213.328L25.942,212.877L25.99,212.426L26.04,211.976L26.091,211.527L26.144,211.077L26.199,210.628L26.256,210.18L26.315,209.732L26.375,209.284L26.438,208.837L26.502,208.39L26.568,207.944L26.635,207.498L26.705,207.052L26.776,206.607L26.849,206.162L26.924,205.718L27.001,205.274L27.08,204.83L27.16,204.387L27.242,203.945L27.326,203.503L27.412,203.061L27.499,202.62L27.588,202.179L27.679,201.738L27.772,201.298L27.866,200.859L27.963,200.42L28.061,199.981L28.16,199.543L28.262,199.105L28.365,198.668L28.47,198.231L28.577,197.795L28.685,197.359L28.795,196.924L28.907,196.489L29.021,196.055L29.136,195.621L29.254,195.187L29.372,194.754L29.493,194.322L29.615,193.89L29.739,193.458L29.865,193.027L29.992,192.597L30.122,192.167L30.252,191.737L30.385,191.308L30.519,190.879L30.655,190.451L30.793,190.024L30.932,189.597L31.073,189.17L31.216,188.744L31.36,188.319L31.506,187.894L31.654,187.469L31.803,187.045L31.954,186.622L32.107,186.199L32.261,185.777L32.417,185.355L32.575,184.933L32.734,184.513L32.895,184.092L33.058,183.673L33.222,183.253L33.388,182.835L33.555,182.417L33.725,181.999L33.895,181.582L34.068,181.166L34.242,180.75L34.418,180.334L34.595,179.92L34.774,179.505L34.954,179.092L35.137,178.679L35.32,178.266L35.506,177.854L35.693,177.443L35.881,177.032L36.072,176.621L36.263,176.212L36.457,175.803L36.652,175.394L36.848,174.986L37.046,174.579L37.246,174.172L37.447,173.766L37.65,173.36L37.855,172.955L38.061,172.551L38.268,172.147L38.478,171.744L38.688,171.341L38.901,170.939L39.114,170.538L39.33,170.137L39.547,169.737L39.765,169.337L39.985,168.938L40.207,168.54L40.43,168.142L40.655,167.745L40.881,167.349L41.109,166.953L41.338,166.558L41.569,166.163L41.801,165.769L42.035,165.376L42.27,164.983L42.507,164.591L42.745,164.2L42.985,163.809L43.226,163.419L43.469,163.03L43.714,162.641L43.959,162.253L44.207,161.865L44.456,161.479L44.706,161.092L44.958,160.707L45.211,160.322L45.466,159.938L45.722,159.554L45.98,159.172L46.239,158.789L46.5,158.408L46.762,158.027L47.025,157.647L47.29,157.268L47.557,156.889L47.825,156.511L48.094,156.133L48.365,155.757L48.637,155.381L48.911,155.005L49.186,154.631L49.463,154.257L49.741,153.884L50.02,153.511L50.301,153.139L50.584,152.768L50.867,152.398L51.152,152.028L51.439,151.659L51.727,151.291L52.016,150.923L52.307,150.556L52.599,150.19L52.893,149.825L53.188,149.46L53.485,149.096L53.782,148.733L54.082,148.371L54.382,148.009L54.684,147.648L54.987,147.288L55.292,146.929L55.598,146.57L55.906,146.212L56.215,145.855L56.525,145.498L56.836,145.142L57.149,144.787L57.464,144.433L57.779,144.08L58.096,143.727L58.415,143.375L58.734,143.024L59.055,142.674L59.378,142.324L59.701,141.975L60.026,141.627L60.353,141.28L60.681,140.933L61.01,140.587L61.34,140.242L61.672,139.898L62.005,139.555L62.339,139.212L62.675,138.871L63.012,138.53L63.35,138.189L63.689,137.85L64.03,137.511L64.372,137.174L64.716,136.837L65.061,136.5L65.407,136.165L65.754,135.83L66.103,135.497L66.452,135.164L66.804,134.832L67.156,134.5L67.51,134.17L67.865,133.84L68.221,133.511L68.579,133.184L68.937,132.856L69.297,132.53L69.659,132.205L70.021,131.88L70.385,131.556L70.75,131.233L71.116,130.911L71.484,130.59L71.853,130.269L72.223,129.95L72.594,129.631L72.966,129.313L73.34,128.996L73.715,128.68L74.091,128.365L74.468,128.051L74.847,127.737L75.227,127.424L75.608,127.113L75.99,126.802L76.373,126.492L76.758,126.183L77.144,125.874L77.531,125.567L77.919,125.26L78.308,124.955L78.699,124.65L79.091,124.346L79.484,124.043L79.878,123.741L80.273,123.44L80.669,123.14L81.067,122.84L81.466,122.542L81.866,122.244L82.267,121.948L82.669,121.652L83.073,121.357L83.477,121.063L83.883,120.77L84.29,120.478L84.698,120.187L85.107,119.897L85.517,119.608L85.929,119.319L86.341,119.032L86.755,118.745L87.17,118.46L87.586,118.175L88.003,117.892L88.421,117.609L88.84,117.327L89.261,117.046L89.682,116.766L90.105,116.487L90.528,116.209L90.953,115.932L91.379,115.656L91.806,115.381L92.234,115.107L92.664,114.834L93.094,114.562L93.525,114.29L93.958,114.02L94.391,113.751L94.826,113.482L95.262,113.215L95.698,112.949L96.136,112.683L96.575,112.419L97.015,112.155L97.456,111.893L97.898,111.631L98.341,111.371L98.785,111.112L99.23,110.853L99.677,110.596L100.124,110.339L100.572,110.084L101.022,109.829L101.472,109.576L101.923,109.323L102.376,109.072L102.829,108.821L103.284,108.572L103.739,108.324L104.196,108.076L104.653,107.83L105.112,107.585L105.572,107.34L106.032,107.097L106.494,106.855L106.956,106.614L107.42,106.373L107.884,106.134L108.35,105.896L108.816,105.659L109.284,105.423L109.752,105.188L110.222,104.954L110.692,104.721L111.164,104.49L111.636,104.259L112.109,104.029L112.584,103.801L113.059,103.573L113.535,103.346L114.012,103.121L114.49,102.897L114.97,102.673L115.45,102.451L115.931,102.23L116.412,102.01L116.895,101.791L117.379,101.573L117.864,101.356L118.349,101.14L118.836,100.926L119.323,100.712L119.812,100.5L120.301,100.288L120.791,100.078L121.283,99.869L121.775,99.661L122.268,99.454L122.761,99.248L123.256,99.043L123.752,98.84L124.248,98.637L124.746,98.436L125.244,98.235L125.743,98.036L126.244,97.838L126.745,97.641L127.246,97.446L127.749,97.251L128.253,97.057L128.757,96.865L129.263,96.674L129.769,96.483L130.276,96.294L130.784,96.107L131.293,95.92L131.802,95.734L132.313,95.55L132.824,95.367L133.336,95.184L133.849,95.003L134.363,94.824L134.878,94.645L135.393,94.467L135.91,94.291L136.427,94.116L136.945,93.942L137.464,93.769L137.983,93.597L138.504,93.427L139.025,93.258L139.547,93.089L140.07,92.923L140.594,92.757L141.118,92.592L141.643,92.429L142.17,92.267L142.696,92.106L143.224,91.946L143.753,91.787L144.282,91.63L144.812,91.473L145.343,91.318L145.874,91.165L146.406,91.012L146.939,90.86L147.473,90.71L148.008,90.561L148.543,90.414L149.079,90.267L149.616,90.122L150.154,89.978L150.692,89.835L151.232,89.693L151.771,89.553L152.312,89.413L152.853,89.275L153.395,89.139L153.938,89.003L154.482,88.869L155.026,88.736L155.571,88.604L156.117,88.474L156.663,88.344L157.21,88.216L157.758,88.089L158.307,87.964L158.856,87.84L159.406
,87.717L159.957,87.595L160.508,87.474L161.06,87.355L161.613,87.237L162.166,87.121L162.721,87.005L163.275,86.891L163.831,86.778L164.387,86.667L164.944,86.556L165.502,86.447L166.06,86.34L166.619,86.233L167.178,86.128L167.738,86.024L168.299,85.922L168.861,85.82L169.423,85.72L169.985,85.622L170.549,85.524L171.113,85.428L171.678,85.333L172.243,85.24L172.809,85.148L173.376,85.057L173.943,84.968L174.511,84.879L175.079,84.792L175.648,84.707L176.218,84.623L176.788,84.54L177.359,84.458L177.931,84.378L178.503,84.299L179.076,84.222L179.649,84.145L180.223,84.07L180.798,83.997L181.373,83.925L181.949,83.854L182.525,83.784L183.102,83.716L183.679,83.649L184.258,83.584L184.836,83.52L185.415,83.457L185.995,83.396L186.576,83.336L187.156,83.277L187.738,83.22L188.32,83.164L188.903,83.11L189.486,83.056L190.069,83.005L190.654,82.954L191.238,82.905L191.824,82.858L192.409,82.811L192.996,82.767L193.583,82.723L194.17,82.681L194.758,82.64L195.347,82.601L195.936,82.563L196.525,82.527L197.115,82.492L197.706,82.458L198.297,82.426L198.888,82.395L199.48,82.365L200.073,82.337L200.666,82.311L201.26,82.286L201.854,82.262L202.448,82.24L203.043,82.219L203.639,82.199L204.235,82.181L204.831,82.164L205.428,82.149L206.025,82.135L206.623,82.123L207.222,82.112L207.82,82.103L208.42,82.095L209.019,82.088L209.619,82.083L210.22,82.08L210.821,82.077L211.423,82.077L212.024,82.077ZM210.934,109.414L210.447,109.416L209.96,109.419L209.473,109.423L208.987,109.429L208.501,109.435L208.015,109.443L207.531,109.452L207.046,109.462L206.562,109.473L206.078,109.485L205.595,109.498L205.113,109.513L204.63,109.529L204.149,109.546L203.667,109.564L203.186,109.583L202.706,109.604L202.226,109.625L201.747,109.648L201.268,109.672L200.789,109.696L200.311,109.723L199.833,109.75L199.356,109.778L198.879,109.808L198.403,109.838L197.927,109.87L197.452,109.903L196.977,109.937L196.503,109.972L196.029,110.008L195.555,110.046L195.082,110.084L194.61,110.124L194.138,110.164L193.666,110.206L193.195,110.249L192.725,110.293L192.255,110.338L191.785,110.385L191.316,110.432L190.848,110.48L190.379,110.53L189.912,110.581L189.445,110.632L188.978,110.685L188.512,110.739L188.046,110.794L187.581,110.85L187.116,110.907L186.652,110.966L186.189,111.025L185.726,111.085L185.263,111.147L184.801,111.209L184.339,111.273L183.878,111.338L183.418,111.404L182.958,111.47L182.498,111.538L182.039,111.607L181.58,111.677L181.122,111.749L180.665,111.821L180.208,111.894L179.752,111.968L179.296,112.044L178.84,112.12L178.386,112.197L177.931,112.276L177.477,112.356L177.024,112.436L176.571,112.518L176.119,112.601L175.667,112.684L175.216,112.769L174.766,112.855L174.316,112.942L173.866,113.03L173.417,113.119L172.969,113.208L172.521,113.299L172.074,113.391L171.628,113.484L171.181,113.579L170.735,113.674L170.291,113.77L169.846,113.867L169.402,113.965L168.959,114.064L168.516,114.164L168.074,114.265L167.632,114.368L167.191,114.471L166.751,114.575L166.311,114.68L165.871,114.787L165.433,114.894L164.994,115.002L164.557,115.111L164.12,115.222L163.684,115.333L163.247,115.445L162.812,115.558L162.378,115.672L161.944,115.788L161.51,115.904L161.077,116.021L160.645,116.139L160.214,116.258L159.782,116.378L159.352,116.499L158.922,116.622L158.493,116.745L158.064,116.869L157.637,116.994L157.209,117.12L156.782,117.247L156.356,117.375L155.93,117.503L155.506,117.633L155.081,117.764L154.658,117.896L154.235,118.029L153.813,118.162L153.391,118.297L152.97,118.433L152.549,118.569L152.13,118.707L151.71,118.845L151.292,118.985L150.874,119.125L150.457,119.266L150.04,119.408L149.624,119.552L149.209,119.696L148.795,119.841L148.38,119.987L147.968,120.134L147.555,120.282L147.143,120.431L146.732,120.58L146.321,120.731L145.911,120.883L145.502,121.035L145.093,121.189L144.685,121.343L144.279,121.498L143.872,121.654L143.466,121.812L143.061,121.97L142.657,122.129L142.253,122.289L141.85,122.449L141.448,122.611L141.046,122.774L140.645,122.937L140.245,123.102L139.845,123.267L139.447,123.433L139.049,123.6L138.652,123.768L138.255,123.937L137.859,124.107L137.464,124.277L137.069,124.449L136.675,124.622L136.283,124.795L135.89,124.969L135.499,125.144L135.108,125.32L134.718,125.497L134.329,125.675L133.94,125.854L133.553,126.033L133.166,126.213L132.779,126.395L132.394,126.577L132.009,126.76L131.625,126.944L131.242,127.129L130.859,127.314L130.477,127.501L130.096,127.688L129.716,127.876L129.337,128.065L128.958,128.255L128.58,128.446L128.203,128.637L127.827,128.83L127.452,129.023L127.077,129.217L126.703,129.412L126.33,129.608L125.957,129.805L125.586,130.002L125.216,130.2L124.846,130.4L124.476,130.6L124.108,130.8L123.741,131.002L123.374,131.205L123.008,131.408L122.643,131.612L122.279,131.817L121.916,132.023L121.553,132.229L121.192,132.437L120.831,132.645L120.471,132.854L120.111,133.064L119.753,133.274L119.395,133.486L119.039,133.698L118.683,133.911L118.328,134.125L117.974,134.34L117.621,134.555L117.268,134.771L116.917,134.989L116.566,135.206L116.216,135.425L115.867,135.644L115.519,135.865L115.172,136.086L114.826,136.307L114.48,136.53L114.135,136.753L113.792,136.978L113.449,137.202L113.107,137.428L112.766,137.655L112.426,137.882L112.087,138.11L111.748,138.339L111.411,138.568L111.075,138.798L110.739,139.029L110.404,139.261L110.07,139.494L109.737,139.727L109.406,139.961L109.074,140.196L108.744,140.431L108.415,140.668L108.087,140.905L107.759,141.143L107.433,141.381L107.108,141.62L106.783,141.86L106.459,142.101L106.136,142.343L105.815,142.585L105.494,142.828L105.174,143.072L104.855,143.316L104.537,143.561L104.22,143.807L103.904,144.054L103.589,144.301L103.275,144.549L102.962,144.797L102.65,145.047L102.339,145.297L102.028,145.548L101.719,145.799L101.411,146.052L101.104,146.305L100.798,146.558L100.492,146.813L100.188,147.068L99.884,147.324L99.582,147.58L99.281,147.837L98.98,148.095L98.681,148.354L98.383,148.613L98.085,148.873L97.789,149.133L97.494,149.395L97.199,149.657L96.906,149.919L96.614,150.183L96.322,150.447L96.032,150.711L95.743,150.976L95.455,151.242L95.168,151.509L94.882,151.777L94.597,152.044L94.313,152.313L94.029,152.582L93.747,152.852L93.467,153.123L93.187,153.394L92.908,153.666L92.63,153.939L92.353,154.212L92.078,154.486L91.803,154.76L91.53,155.035L91.257,155.311L90.986,155.587L90.715,155.864L90.446,156.142L90.178,156.42L89.911,156.699L89.645,156.979L89.38,157.259L89.116,157.54L88.853,157.821L88.591,158.103L88.33,158.386L88.071,158.669L87.813,158.953L87.555,159.238L87.299,159.523L87.044,159.808L86.79,160.095L86.537,160.382L86.285,160.669L86.034,160.957L85.785,161.246L85.536,161.535L85.289,161.825L85.043,162.116L84.798,162.407L84.553,162.698L84.311,162.991L84.069,163.283L83.828,163.577L83.589,163.871L83.35,164.166L83.113,164.461L82.877,164.757L82.642,165.053L82.408,165.35L82.176,165.647L81.944,165.945L81.714,166.244L81.485,166.543L81.257,166.843L81.03,167.143L80.804,167.444L80.58,167.745L80.356,168.047L80.134,168.35L79.913,168.653L79.693,168.956L79.474,169.261L79.257,169.565L79.041,169.871L78.825,170.176L78.611,170.483L78.399,170.79L78.187,171.097L77.977,171.405L77.767,171.714L77.559,172.022L77.353,172.332L77.147,172.642L76.942,172.953L76.739,173.264L76.537,173.576L76.336,173.888L76.137,174.2L75.938,174.514L75.741,174.827L75.545,175.142L75.35,175.456L75.157,175.772L74.965,176.087L74.774,176.404L74.584,176.721L74.395,177.038L74.208,177.356L74.021,177.674L73.837,177.993L73.653,178.312L73.47,178.632L73.289,178.952L73.109,179.273L72.931,179.594L72.753,179.916L72.577,180.238L72.402,180.561L72.228,180.884L72.056,181.208L71.884,181.532L71.715,181.857L71.546,182.182L71.379,182.507L71.212,182.834L71.048,183.16L70.884,183.487L70.722,183.815L70.56,184.143L70.401,184.471L70.242,184.8L70.085,185.129L69.929,185.459L69.775,185.79L69.621,186.12L69.469,186.452L69.318,186.783L69.169,187.115L69.021,187.448L68.874,187.781L68.728,188.114L68.584,188.448L68.441,188.783L68.3,189.118L68.159,189.453L68.02,189.789L67.883,190.125L67.746,190.461L67.611,190.799L67.477,191.136L67.345,191.474L67.214,191.812L67.084,192.151L66.956,192.49L66.829,192.83L66.703,193.17L66.578,193.511L66.455,193.851L66.333,194.193L66.213,194.534L66.094,194.877L65.976,195.219L65.86,195.562L65.745,195.906L65.631,196.25L65.519,196.594L65.408,196.939L65.298,197.284L65.19,197.629L65.083,197.975L64.978,198.322L64.874,198.668L64.771,199.015L64.67,199.363L64.57,199.711L64.471,200.059L64.374,200.408L64.278,200.757L64.184,201.107L64.09,201.457L63.999,201.807L63.908,202.158L63.82,202.509L63.732,202.861L63.646,203.213L63.561,203.565L63.478,203.918L63.396,204.271L63.316,204.624L63.237,204.978L63.159,205.333L63.083,205.687L63.008,206.042L62.934,206.398L62.862,206.754L62.792,207.11L62.723,207.466L62.655,207.823L62.589,208.181L62.524,208.538L62.461,208.896L62.399,209.255L62.338,209.614L62.279,209.973L62.221,210.332L62.165,210.692L62.11,211.053L62.057,211.413L62.005,211.774L61.955,212.136L61.906,212.497L61.859,212.86L61.813,213.222L61.768,213.585L61.725,213.948L61.684,214.312L61.644,214.676L61.605,215.04L61.568,215.405L61.532,215.77L61.498,216.135L61.465,216.501L61.434,216.867L61.405,217.233L61.376,217.6L61.35,217.967L61.325,218.334L61.301,218.702L61.279,219.07L61.258,219.439L61.239,219.808L61.221,220.177L61.205,220.547L61.191,220.916L61.178,221.287L61.166,221.657L61.156,222.028L61.148,222.399L61.141,222.771L61.135,223.143L61.131,223.515L61.129,223.888L61.128,224.261L61.129,224.634L61.131,225.006L61.135,225.379L61.141,225.75L61.148,226.122L61.156,226.493L61.166,226.864L61.178,227.235L61.191,227.605L61.205,227.975L61.221,228.344L61.239,228.714L61.258,229.083L61.279,229.451L61.301,229.819L61.325,230.187L61.35,230.554L61.376,230.922L61.405,231.288L61.434,231.655L61.465,232.021L61.498,232.387L61.532,232.752L61.568,233.117L61.605,233.482L61.644,233.846L61.684,234.21L61.725,234.573L61.768,234.937L61.813,235.299L61.859,235.662L61.906,236.024L61.955,236.386L62.005,236.747L62.057,237.108L62.11,237.469L62.165,237.829L62.221,238.189L62.279,238.549L62.338,238.908L62.399,239.267L62.461,239.625L62.524,239.983L62.589,240.341L62.655,240.698L62.723,241.055L62.792,241.412L62.862,241.768L62.934,242.124L63.008,242.479L63.083,242.834L63.159,243.189L63.237,243.543L63.316
,243.897L63.396,244.251L63.478,244.604L63.561,244.956L63.646,245.309L63.732,245.661L63.82,246.012L63.908,246.363L63.999,246.714L64.09,247.064L64.183,247.414L64.278,247.764L64.374,248.113L64.471,248.462L64.57,248.81L64.67,249.158L64.771,249.506L64.874,249.853L64.978,250.2L65.083,250.546L65.19,250.892L65.298,251.238L65.408,251.583L65.519,251.927L65.631,252.272L65.745,252.616L65.86,252.959L65.976,253.302L66.094,253.645L66.213,253.987L66.333,254.329L66.455,254.67L66.578,255.011L66.703,255.352L66.828,255.692L66.956,256.031L67.084,256.37L67.214,256.709L67.345,257.048L67.477,257.385L67.611,257.723L67.746,258.06L67.882,258.397L68.02,258.733L68.159,259.068L68.3,259.404L68.441,259.739L68.584,260.073L68.728,260.407L68.874,260.74L69.021,261.073L69.169,261.406L69.318,261.738L69.469,262.07L69.621,262.401L69.775,262.732L69.929,263.062L70.085,263.392L70.242,263.721L70.401,264.05L70.561,264.379L70.722,264.707L70.884,265.034L71.048,265.361L71.212,265.688L71.378,266.014L71.546,266.34L71.715,266.665L71.884,266.989L72.056,267.313L72.228,267.637L72.402,267.961L72.577,268.283L72.753,268.606L72.931,268.927L73.109,269.248L73.289,269.569L73.47,269.89L73.653,270.209L73.837,270.529L74.022,270.848L74.208,271.166L74.395,271.484L74.584,271.801L74.773,272.118L74.965,272.434L75.157,272.75L75.35,273.065L75.545,273.38L75.741,273.694L75.938,274.008L76.137,274.321L76.336,274.634L76.537,274.946L76.739,275.258L76.942,275.569L77.147,275.879L77.352,276.189L77.559,276.499L77.767,276.808L77.977,277.116L78.187,277.424L78.399,277.732L78.611,278.039L78.825,278.345L79.041,278.651L79.257,278.956L79.474,279.261L79.693,279.565L79.913,279.869L80.134,280.172L80.356,280.474L80.58,280.776L80.804,281.078L81.03,281.378L81.257,281.678L81.485,281.979L81.714,282.278L81.944,282.576L82.176,282.874L82.408,283.172L82.642,283.469L82.877,283.765L83.113,284.061L83.35,284.356L83.589,284.651L83.828,284.945L84.069,285.238L84.31,285.531L84.553,285.823L84.798,286.115L85.043,286.406L85.289,286.696L85.536,286.986L85.785,287.276L86.034,287.564L86.285,287.852L86.537,288.14L86.79,288.427L87.044,288.713L87.299,288.999L87.555,289.284L87.813,289.568L88.071,289.852L88.33,290.135L88.591,290.418L88.853,290.701L89.116,290.981L89.38,291.262L89.645,291.543L89.911,291.822L90.178,292.101L90.446,292.379L90.715,292.657L90.985,292.934L91.257,293.211L91.53,293.486L91.803,293.761L92.078,294.036L92.353,294.31L92.63,294.583L92.908,294.855L93.187,295.128L93.466,295.398L93.747,295.669L94.03,295.939L94.313,296.208L94.596,296.477L94.882,296.745L95.168,297.012L95.455,297.279L95.743,297.545L96.032,297.81L96.322,298.075L96.614,298.339L96.906,298.602L97.199,298.865L97.494,299.127L97.789,299.388L98.085,299.648L98.383,299.909L98.681,300.168L98.98,300.426L99.281,300.684L99.582,300.941L99.884,301.198L100.188,301.454L100.492,301.709L100.798,301.963L101.104,302.217L101.411,302.469L101.72,302.722L102.029,302.974L102.339,303.224L102.65,303.475L102.962,303.724L103.275,303.973L103.59,304.221L103.904,304.468L104.22,304.715L104.538,304.961L104.855,305.205L105.174,305.45L105.494,305.694L105.815,305.937L106.137,306.179L106.46,306.421L106.783,306.661L107.108,306.901L107.433,307.14L107.759,307.379L108.087,307.617L108.415,307.854L108.744,308.09L109.074,308.326L109.406,308.561L109.737,308.794L110.07,309.028L110.404,309.26L110.739,309.492L111.074,309.723L111.411,309.954L111.749,310.183L112.087,310.412L112.426,310.64L112.766,310.867L113.107,311.093L113.449,311.319L113.792,311.544L114.136,311.768L114.48,311.991L114.826,312.214L115.172,312.436L115.519,312.657L115.867,312.877L116.216,313.096L116.566,313.315L116.917,313.533L117.269,313.75L117.621,313.966L117.974,314.182L118.328,314.396L118.683,314.61L119.039,314.823L119.396,315.036L119.753,315.247L120.111,315.458L120.471,315.668L120.831,315.876L121.192,316.085L121.554,316.292L121.915,316.498L122.279,316.704L122.643,316.91L123.008,317.114L123.374,317.317L123.741,317.519L124.108,317.721L124.476,317.922L124.846,318.122L125.216,318.321L125.586,318.519L125.958,318.717L126.33,318.913L126.703,319.109L127.077,319.304L127.451,319.498L127.827,319.692L128.203,319.884L128.58,320.075L128.958,320.266L129.338,320.457L129.717,320.646L130.096,320.833L130.478,321.021L130.859,321.207L131.241,321.393L131.624,321.577L132.008,321.761L132.393,321.944L132.779,322.127L133.166,322.308L133.553,322.489L133.94,322.668L134.328,322.846L134.719,323.024L135.108,323.201L135.498,323.377L135.889,323.552L136.283,323.727L136.676,323.9L137.069,324.072L137.463,324.244L137.859,324.415L138.255,324.585L138.652,324.754L139.048,324.921L139.447,325.088L139.846,325.255L140.244,325.42L140.645,325.584L141.046,325.748L141.449,325.911L141.85,326.072L142.253,326.233L142.656,326.393L143.061,326.552L143.466,326.71L143.872,326.867L144.279,327.023L144.686,327.179L145.093,327.333L145.503,327.487L145.911,327.639L146.321,327.79L146.733,327.941L147.142,328.091L147.554,328.24L147.967,328.388L148.381,328.535L148.795,328.681L149.209,328.826L149.624,328.97L150.041,329.113L150.457,329.255L150.873,329.396L151.292,329.537L151.711,329.676L152.13,329.815L152.55,329.953L152.968,330.088L153.39,330.224L153.813,330.359L154.235,330.493L154.658,330.626L155.081,330.757L155.506,330.888L155.931,331.018L156.357,331.147L156.782,331.275L157.208,331.402L157.636,331.528L158.065,331.653L158.493,331.777L158.923,331.9L159.351,332.022L159.782,332.143L160.214,332.263L160.645,332.382L161.076,332.5L161.51,332.618L161.945,332.734L162.378,332.849L162.812,332.963L163.248,333.077L163.684,333.189L164.12,333.3L164.556,333.41L164.994,333.519L165.433,333.628L165.871,333.735L166.31,333.841L166.75,333.946L167.19,334.05L167.633,334.154L168.075,334.256L168.516,334.357L168.959,334.457L169.403,334.557L169.846,334.655L170.29,334.752L170.736,334.848L171.182,334.943L171.628,335.037L172.074,335.13L172.52,335.222L172.969,335.313L173.417,335.403L173.867,335.492L174.316,335.58L174.765,335.666L175.217,335.753L175.668,335.837L176.118,335.921L176.57,336.003L177.025,336.085L177.477,336.166L177.93,336.245L178.385,336.324L178.841,336.402L179.296,336.478L179.752,336.553L180.208,336.627L180.665,336.701L181.123,336.773L181.58,336.844L182.039,336.914L182.498,336.983L182.957,337.051L183.417,337.118L183.879,337.184L184.34,337.248L184.801,337.312L185.263,337.375L185.725,337.436L186.188,337.496L186.653,337.556L187.116,337.614L187.58,337.671L188.046,337.727L188.513,337.783L188.978,337.836L189.444,337.889L189.912,337.941L190.378,337.991L190.848,338.041L191.316,338.089L191.785,338.137L192.255,338.183L192.725,338.228L193.195,338.272L193.666,338.315L194.138,338.357L194.61,338.398L195.083,338.437L195.555,338.476L196.028,338.513L196.503,338.549L196.978,338.585L197.453,338.619L197.926,338.651L198.402,338.683L198.878,338.714L199.356,338.743L199.833,338.772L200.31,338.799L200.789,338.825L201.267,338.85L201.746,338.874L202.227,338.896L202.707,338.918L203.186,338.938L203.667,338.958L204.149,338.976L204.629,338.993L205.113,339.008L205.596,339.023L206.079,339.036L206.562,339.049L207.046,339.06L207.531,339.07L208.016,339.079L208.5,339.086L208.986,339.093L209.473,339.098L209.959,339.102L210.448,339.105L210.935,339.107L211.423,339.108L211.91,339.107L212.398,339.105L212.886,339.102L213.372,339.098L213.859,339.093L214.345,339.086L214.829,339.079L215.315,339.07L215.799,339.06L216.283,339.049L216.766,339.036L217.249,339.023L217.733,339.008L218.216,338.993L218.697,338.976L219.178,338.958L219.66,338.938L220.138,338.918L220.618,338.896L221.099,338.874L221.578,338.85L222.056,338.825L222.535,338.799L223.012,338.772L223.49,338.743L223.967,338.714L224.443,338.683L224.919,338.651L225.393,338.619L225.867,338.585L226.343,338.549L226.818,338.513L227.29,338.476L227.762,338.437L228.235,338.398L228.707,338.357L229.179,338.315L229.65,338.272L230.12,338.228L230.59,338.183L231.061,338.137L231.529,338.089L231.997,338.041L232.467,337.991L232.934,337.941L233.401,337.889L233.868,337.836L234.332,337.783L234.799,337.727L235.265,337.671L235.729,337.614L236.193,337.556L236.657,337.496L237.12,337.436L237.582,337.375L238.044,337.312L238.506,337.248L238.967,337.184L239.428,337.118L239.888,337.051L240.347,336.983L240.807,336.914L241.266,336.844L241.722,336.773L242.18,336.701L242.637,336.627L243.093,336.553L243.549,336.478L244.004,336.402L244.46,336.324L244.915,336.245L245.368,336.166L245.82,336.085L246.275,336.003L246.727,335.921L247.177,335.837L247.628,335.753L248.08,335.666L248.529,335.58L248.978,335.492L249.428,335.403L249.877,335.313L250.325,335.222L250.771,335.13L251.218,335.037L251.664,334.943L252.109,334.848L252.555,334.752L252.999,334.655L253.442,334.557L253.886,334.457L254.33,334.357L254.771,334.256L255.212,334.154L255.655,334.05L256.095,333.946L256.535,333.841L256.974,333.735L257.412,333.628L257.851,333.519L258.289,333.41L258.725,333.3L259.162,333.189L259.598,333.076L260.033,332.963L260.467,332.849L260.901,332.734L261.335,332.618L261.769,332.5L262.2,332.382L262.631,332.264L263.064,332.143L263.494,332.022L263.923,331.9L264.352,331.777L264.78,331.653L265.209,331.528L265.637,331.401L266.063,331.275L266.488,331.147L266.915,331.018L267.34,330.888L267.764,330.757L268.187,330.626L268.61,330.493L269.032,330.359L269.455,330.224L269.877,330.089L270.295,329.953L270.715,329.815L271.135,329.676L271.553,329.537L271.972,329.396L272.388,329.255L272.805,329.113L273.221,328.97L273.636,328.826L274.05,328.681L274.464,328.535L274.878,328.387L275.291,328.239L275.703,328.091L276.113,327.942L276.525,327.79L276.934,327.639L277.343,327.487L277.752,327.333L278.159,327.179L278.567,327.023L278.974,326.867L279.379,326.71L279.785,326.552L280.189,326.393L280.592,326.233L280.995,326.072L281.397,325.911L281.799,325.748L282.2,325.584L282.601,325.42L282.999,325.255L283.398,325.088L283.798,324.921L284.193,324.754L284.59,324.585L284.986,324.415L285.383,324.243L285.776,324.072L286.169,323.9L286.562,323.727L286.956,323.552L287.348,323.377L287.737,323.201L288.126,323.025L288.517,322.846L288.905,322.668L289.292,322.489L289.68,322.308L290.066,322.126L290.452,321.944L290.837,321.761L291.221,321.577L291.604,321.393L291.986,321.207L292.367,321.021L292.749,320.833L293.129,320.645L293.508,320.457L293.887
,320.266L294.265,320.075L294.642,319.884L295.018,319.692L295.394,319.498L295.768,319.304L296.142,319.109L296.516,318.913L296.888,318.717L297.259,318.519L297.629,318.321L298,318.122L298.369,317.922L298.737,317.721L299.105,317.519L299.471,317.317L299.837,317.114L300.202,316.909L300.566,316.704L300.93,316.499L301.292,316.292L301.654,316.085L302.015,315.876L302.374,315.668L302.734,315.457L303.093,315.247L303.449,315.036L303.806,314.823L304.162,314.61L304.517,314.396L304.872,314.181L305.225,313.966L305.577,313.75L305.928,313.533L306.279,313.315L306.629,313.096L306.978,312.877L307.326,312.657L307.673,312.436L308.02,312.214L308.365,311.992L308.709,311.768L309.053,311.544L309.396,311.319L309.738,311.093L310.079,310.867L310.419,310.64L310.758,310.412L311.096,310.183L311.434,309.954L311.771,309.723L312.106,309.492L312.441,309.26L312.775,309.028L313.108,308.795L313.439,308.561L313.771,308.326L314.101,308.09L314.43,307.854L314.758,307.617L315.086,307.379L315.412,307.14L315.738,306.901L316.062,306.661L316.386,306.421L316.708,306.179L317.031,305.936L317.351,305.693L317.671,305.45L317.99,305.205L318.308,304.961L318.625,304.715L318.941,304.468L319.256,304.221L319.571,303.972L319.883,303.724L320.195,303.475L320.507,303.224L320.816,302.974L321.125,302.722L321.435,302.469L321.742,302.217L322.048,301.963L322.353,301.708L322.657,301.454L322.961,301.198L323.263,300.941L323.564,300.684L323.865,300.426L324.164,300.168L324.463,299.908L324.76,299.648L325.056,299.388L325.352,299.127L325.646,298.864L325.939,298.602L326.231,298.339L326.523,298.075L326.813,297.811L327.102,297.545L327.391,297.279L327.677,297.012L327.964,296.745L328.249,296.477L328.533,296.209L328.816,295.939L329.098,295.669L329.379,295.399L329.658,295.128L329.938,294.855L330.216,294.583L330.492,294.31L330.767,294.036L331.042,293.761L331.316,293.486L331.588,293.211L331.86,292.934L332.13,292.657L332.4,292.379L332.667,292.101L332.935,291.822L333.201,291.542L333.465,291.263L333.729,290.982L333.992,290.701L334.254,290.418L334.515,290.135L334.775,289.852L335.033,289.568L335.29,289.284L335.546,288.999L335.802,288.713L336.055,288.427L336.308,288.14L336.56,287.852L336.811,287.564L337.06,287.276L337.309,286.986L337.557,286.696L337.803,286.405L338.047,286.115L338.291,285.823L338.535,285.531L338.777,285.238L339.017,284.944L339.257,284.65L339.495,284.356L339.732,284.061L339.968,283.765L340.203,283.469L340.437,283.172L340.67,282.874L340.901,282.576L341.131,282.278L341.36,281.979L341.589,281.679L341.816,281.378L342.041,281.078L342.266,280.776L342.489,280.474L342.711,280.172L342.932,279.869L343.152,279.565L343.371,279.261L343.588,278.956L343.805,278.651L344.02,278.345L344.234,278.039L344.446,277.732L344.658,277.425L344.869,277.116L345.078,276.808L345.286,276.499L345.493,276.19L345.698,275.879L345.903,275.569L346.106,275.257L346.308,274.946L346.509,274.634L346.708,274.322L346.907,274.008L347.104,273.694L347.3,273.38L347.495,273.065L347.688,272.75L347.88,272.435L348.072,272.118L348.262,271.801L348.45,271.483L348.638,271.165L348.824,270.848L349.009,270.529L349.192,270.209L349.375,269.89L349.556,269.569L349.736,269.248L349.914,268.928L350.092,268.606L350.269,268.283L350.443,267.96L350.617,267.637L350.79,267.314L350.961,266.989L351.131,266.665L351.299,266.34L351.467,266.014L351.633,265.688L351.798,265.361L351.961,265.034L352.124,264.707L352.285,264.378L352.444,264.051L352.603,263.721L352.76,263.392L352.916,263.062L353.071,262.732L353.224,262.401L353.376,262.07L353.527,261.738L353.676,261.406L353.825,261.073L353.971,260.74L354.117,260.407L354.261,260.073L354.404,259.739L354.546,259.404L354.686,259.068L354.825,258.733L354.963,258.397L355.099,258.06L355.234,257.723L355.368,257.385L355.5,257.047L355.631,256.709L355.761,256.371L355.89,256.031L356.017,255.691L356.142,255.352L356.267,255.011L356.39,254.67L356.512,254.329L356.632,253.987L356.751,253.645L356.869,253.302L356.985,252.959L357.1,252.616L357.214,252.271L357.326,251.928L357.437,251.583L357.547,251.237L357.655,250.892L357.762,250.547L357.867,250.2L357.972,249.853L358.074,249.506L358.175,249.159L358.276,248.81L358.374,248.462L358.471,248.113L358.567,247.764L358.662,247.415L358.755,247.064L358.847,246.714L358.937,246.363L359.026,246.012L359.113,245.661L359.199,245.309L359.284,244.956L359.367,244.603L359.449,244.251L359.53,243.897L359.609,243.543L359.686,243.189L359.763,242.835L359.838,242.479L359.911,242.124L359.983,241.768L360.053,241.411L360.122,241.055L360.19,240.698L360.257,240.341L360.321,239.984L360.385,239.625L360.447,239.266L360.507,238.908L360.566,238.549L360.624,238.189L360.68,237.829L360.735,237.469L360.788,237.108L360.84,236.747L360.89,236.386L360.939,236.024L360.987,235.662L361.033,235.299L361.077,234.936L361.12,234.573L361.162,234.21L361.202,233.846L361.24,233.482L361.277,233.117L361.313,232.752L361.347,232.387L361.38,232.021L361.411,231.655L361.441,231.288L361.469,230.922L361.495,230.555L361.521,230.187L361.544,229.819L361.567,229.451L361.587,229.083L361.606,228.714L361.624,228.344L361.64,227.975L361.655,227.605L361.668,227.235L361.679,226.865L361.689,226.493L361.698,226.122L361.705,225.75L361.71,225.379L361.714,225.006L361.716,224.633L361.717,224.261L361.716,223.888L361.714,223.515L361.71,223.143L361.705,222.771L361.698,222.4L361.689,222.028L361.679,221.657L361.668,221.287L361.655,220.916L361.64,220.547L361.624,220.177L361.606,219.807L361.587,219.439L361.567,219.07L361.544,218.702L361.521,218.335L361.495,217.967L361.469,217.6L361.441,217.233L361.411,216.867L361.38,216.501L361.347,216.135L361.313,215.77L361.277,215.405L361.24,215.04L361.202,214.675L361.162,214.312L361.12,213.948L361.077,213.585L361.033,213.222L360.987,212.86L360.939,212.497L360.89,212.136L360.84,211.774L360.788,211.413L360.735,211.053L360.68,210.692L360.624,210.332L360.566,209.973L360.507,209.613L360.447,209.255L360.385,208.896L360.321,208.538L360.257,208.181L360.19,207.823L360.122,207.466L360.053,207.11L359.983,206.753L359.911,206.398L359.838,206.043L359.763,205.687L359.686,205.332L359.609,204.979L359.53,204.624L359.449,204.271L359.367,203.918L359.284,203.565L359.199,203.213L359.113,202.86L359.026,202.509L358.937,202.158L358.847,201.808L358.755,201.457L358.662,201.107L358.567,200.757L358.471,200.408L358.374,200.06L358.276,199.711L358.175,199.362L358.074,199.015L357.972,198.669L357.867,198.322L357.762,197.975L357.655,197.629L357.547,197.284L357.437,196.939L357.326,196.594L357.214,196.25L357.1,195.906L356.985,195.562L356.869,195.219L356.751,194.877L356.632,194.534L356.512,194.193L356.39,193.851L356.267,193.51L356.142,193.17L356.017,192.83L355.89,192.49L355.761,192.151L355.631,191.812L355.5,191.474L355.368,191.136L355.234,190.798L355.099,190.462L354.963,190.125L354.825,189.788L354.686,189.453L354.546,189.118L354.404,188.783L354.261,188.448L354.117,188.114L353.971,187.781L353.824,187.448L353.676,187.116L353.527,186.784L353.376,186.452L353.224,186.12L353.071,185.789L352.916,185.459L352.76,185.13L352.603,184.8L352.444,184.471L352.285,184.143L352.124,183.815L351.961,183.487L351.798,183.161L351.633,182.833L351.467,182.507L351.299,182.182L351.131,181.857L350.961,181.532L350.789,181.208L350.617,180.884L350.443,180.561L350.269,180.239L350.092,179.916L349.914,179.594L349.736,179.273L349.556,178.952L349.375,178.631L349.192,178.312L349.009,177.993L348.824,177.674L348.638,177.356L348.45,177.038L348.262,176.721L348.072,176.404L347.88,176.087L347.688,175.772L347.495,175.457L347.3,175.142L347.104,174.828L346.907,174.513L346.708,174.2L346.509,173.888L346.308,173.576L346.106,173.264L345.903,172.953L345.698,172.642L345.492,172.332L345.286,172.023L345.078,171.714L344.869,171.405L344.658,171.097L344.446,170.789L344.234,170.483L344.02,170.177L343.805,169.871L343.588,169.565L343.371,169.261L343.152,168.957L342.932,168.653L342.711,168.35L342.489,168.047L342.266,167.745L342.041,167.444L341.815,167.143L341.588,166.843L341.36,166.543L341.131,166.244L340.901,165.946L340.669,165.647L340.437,165.349L340.203,165.053L339.968,164.757L339.732,164.461L339.495,164.166L339.257,163.871L339.017,163.577L338.776,163.284L338.535,162.991L338.291,162.698L338.048,162.407L337.803,162.116L337.557,161.826L337.309,161.535L337.06,161.246L336.811,160.957L336.56,160.669L336.308,160.381L336.055,160.094L335.801,159.808L335.546,159.523L335.29,159.238L335.033,158.953L334.774,158.669L334.515,158.386L334.254,158.103L333.992,157.821L333.729,157.539L333.465,157.259L333.201,156.979L332.935,156.699L332.667,156.42L332.4,156.142L332.13,155.864L331.86,155.587L331.588,155.311L331.316,155.035L331.042,154.76L330.767,154.486L330.492,154.212L330.215,153.939L329.938,153.666L329.659,153.394L329.378,153.123L329.098,152.852L328.816,152.583L328.533,152.313L328.249,152.044L327.964,151.776L327.677,151.509L327.391,151.243L327.102,150.976L326.813,150.711L326.523,150.447L326.232,150.183L325.939,149.919L325.646,149.657L325.352,149.395L325.056,149.133L324.76,148.873L324.463,148.613L324.164,148.354L323.865,148.095L323.564,147.837L323.263,147.58L322.961,147.324L322.658,147.068L322.353,146.813L322.048,146.559L321.742,146.305L321.434,146.052L321.126,145.799L320.817,145.548L320.507,145.297L320.195,145.047L319.883,144.797L319.57,144.549L319.256,144.301L318.941,144.053L318.625,143.807L318.308,143.561L317.99,143.316L317.671,143.071L317.351,142.828L317.031,142.585L316.709,142.343L316.386,142.101L316.062,141.86L315.738,141.621L315.413,141.381L315.086,141.143L314.758,140.905L314.43,140.668L314.101,140.431L313.771,140.196L313.439,139.961L313.107,139.727L312.775,139.494L312.441,139.261L312.106,139.029L311.771,138.798L311.434,138.568L311.097,138.339L310.758,138.11L310.419,137.881L310.079,137.655L309.738,137.428L309.396,137.202L309.053,136.978L308.71,136.753L308.365,136.53L308.02,136.307L307.673,136.086L307.326,135.864L306.978,135.644L306.629,135.425L306.279,135.206L305.929,134.989L305.577,134.771L305.225,134.555L304.872,134.34L304.517,134.125L304.162,133.911L303.807,133.698L303.45,133.486L303.092,133.275L302.734,133.064L302.374,132.854L302.015,132.645L301.654,132.437L301.292,132.229L300.929,132.023L300.566,131.817L300.202,131.612L299.837,131.408L299.471,131.205L299.104
,131.002L298.737,130.8L298.369,130.6L298,130.4L297.629,130.2L297.259,130.002L296.888,129.805L296.516,129.608L296.142,129.412L295.768,129.217L295.393,129.023L295.018,128.83L294.642,128.637L294.265,128.446L293.887,128.255L293.508,128.065L293.129,127.876L292.749,127.688L292.368,127.501L291.986,127.314L291.604,127.129L291.22,126.944L290.836,126.76L290.452,126.577L290.066,126.395L289.68,126.213L289.292,126.033L288.905,125.854L288.517,125.675L288.127,125.497L287.737,125.32L287.347,125.144L286.955,124.969L286.563,124.795L286.17,124.622L285.776,124.449L285.382,124.278L284.986,124.107L284.59,123.937L284.194,123.768L283.797,123.6L283.399,123.433L283,123.267L282.6,123.102L282.2,122.937L281.799,122.774L281.397,122.611L280.995,122.449L280.592,122.289L280.189,122.129L279.784,121.97L279.379,121.812L278.973,121.655L278.567,121.498L278.16,121.343L277.752,121.189L277.343,121.035L276.934,120.883L276.524,120.731L276.113,120.58L275.702,120.431L275.291,120.282L274.878,120.134L274.465,119.987L274.051,119.841L273.636,119.696L273.221,119.552L272.805,119.408L272.388,119.266L271.971,119.125L271.554,118.985L271.135,118.845L270.716,118.707L270.296,118.569L269.875,118.433L269.455,118.297L269.033,118.162L268.61,118.028L268.187,117.896L267.764,117.764L267.34,117.633L266.915,117.504L266.489,117.375L266.063,117.247L265.636,117.12L265.209,116.994L264.781,116.869L264.353,116.745L263.923,116.622L263.493,116.499L263.063,116.378L262.631,116.258L262.2,116.139L261.768,116.021L261.335,115.904L260.902,115.788L260.468,115.672L260.033,115.558L259.598,115.445L259.162,115.333L258.725,115.221L258.288,115.111L257.851,115.002L257.413,114.894L256.974,114.787L256.535,114.68L256.095,114.575L255.654,114.471L255.213,114.368L254.771,114.265L254.329,114.164L253.886,114.064L253.443,113.965L252.999,113.867L252.554,113.77L252.11,113.674L251.664,113.579L251.218,113.484L250.771,113.391L250.324,113.299L249.876,113.208L249.428,113.119L248.979,113.03L248.529,112.942L248.079,112.855L247.629,112.769L247.178,112.684L246.726,112.601L246.274,112.518L245.821,112.436L245.368,112.356L244.914,112.276L244.46,112.197L244.005,112.12L243.55,112.044L243.093,111.968L242.637,111.894L242.181,111.821L241.723,111.749L241.265,111.677L240.807,111.607L240.347,111.538L239.887,111.47L239.428,111.404L238.967,111.338L238.506,111.273L238.044,111.209L237.582,111.147L237.12,111.085L236.656,111.025L236.193,110.966L235.729,110.907L235.264,110.85L234.799,110.794L234.334,110.739L233.868,110.685L233.4,110.632L232.934,110.581L232.466,110.53L231.998,110.48L231.53,110.432L231.06,110.385L230.59,110.338L230.12,110.293L229.65,110.249L229.179,110.206L228.707,110.164L228.235,110.124L227.763,110.084L227.29,110.046L226.816,110.008L226.343,109.972L225.868,109.937L225.393,109.903L224.918,109.87L224.442,109.838L223.966,109.808L223.49,109.778L223.012,109.75L222.535,109.723L222.056,109.696L221.578,109.672L221.099,109.648L220.619,109.625L220.14,109.604L219.659,109.583L219.178,109.564L218.697,109.546L218.215,109.529L217.733,109.513L217.25,109.498L216.767,109.485L216.283,109.473L215.799,109.462L215.315,109.452L214.83,109.443L214.344,109.435L213.858,109.429L213.372,109.423L212.885,109.419L212.398,109.416L211.911,109.414L211.423,109.414L210.934,109.414Z" style="fill:#3182CF;"/>
        </g>
        <g transform="matrix(-2.58392e-16,-1.60679,1.60679,-2.58392e-16,561.957,1620.14)">
            <circle cx="853.213" cy="188.91" r="85.4" style="fill:none;stroke-width:12.45px;stroke:#3182CF;"/>
        </g>
        <g transform="matrix(1.05386,-4.39169e-17,-5.29209e-17,1.05386,-74.3308,380.48)">
            <circle cx="853.213" cy="188.91" r="85.4" style="fill:#3182CF;"/>
        </g>
    </g>
</svg>
