<?xml version="1.0" encoding="UTF-8" standalone="no"?>
<!DOCTYPE svg PUBLIC "-//W3C//DTD SVG 1.1//EN" "http://www.w3.org/Graphics/SVG/1.1/DTD/svg11.dtd">
<svg width="100%" height="100%" viewBox="0 0 484 367" version="1.1" xmlns="http://www.w3.org/2000/svg" xmlns:xlink="http://www.w3.org/1999/xlink" xml:space="preserve" style="fill-rule:evenodd;clip-rule:evenodd;stroke-linecap:round;stroke-linejoin:round;stroke-miterlimit:1.41421;">
    <g transform="matrix(1,0,0,1,2.5992,2.5979)">
        <g transform="matrix(1,0,0,1,-400.715,-219.453)">
            <g transform="matrix(1,0,0,1,125.531,137.9)">
                <path d="M631.946,203.361C696.831,203.408 749.424,256.03 749.424,320.839C749.424,385.677 696.784,438.317 631.946,438.317C567.109,438.317 514.469,385.677 514.469,320.839" style="fill:none;stroke-width:8px;stroke:rgb(136,136,136);"/>
            </g>
            <g transform="matrix(1,0,0,1,-109.424,137.9)">
                <circle cx="631.946" cy="320.839" r="117.478" style="fill:none;stroke-width:8px;stroke:rgb(136,136,136);"/>
            </g>
            <g transform="matrix(1,0,0,1,8.05369,20.4223)">
                <path d="M514.469,320.839C514.516,255.954 567.138,203.361 631.946,203.361C696.784,203.361 749.424,256.001 749.424,320.839C749.424,383.647 700.029,435.008 637.988,438.164L631.946,438.317" style="fill:none;stroke-width:8px;stroke:rgb(136,136,136);"/>
            </g>
        </g>
    </g>
</svg>
