<?xml version="1.0" standalone="no"?>
<!DOCTYPE svg PUBLIC "-//W3C//DTD SVG 1.1//EN" "http://www.w3.org/Graphics/SVG/1.1/DTD/svg11.dtd">
<svg width="100%" height="100%" viewBox="0 0 1000 500" version="1.1" xmlns="http://www.w3.org/2000/svg" xmlns:xlink="http://www.w3.org/1999/xlink" xml:space="preserve" style="fill-rule:evenodd;clip-rule:evenodd;stroke-linejoin:round;stroke-miterlimit:1.41421;">
    <g transform="matrix(0.742942,0,0,0.742942,-225.754,-47.4482)">
        <g transform="matrix(1.26513,0,0,1.26513,324.082,84.082)">
            <circle cx="250" cy="250" r="250" style="fill:rgb(34,43,49);"/>
        </g>
        <g transform="matrix(48.5276,0,0,48.5276,-6809.47,-9765.32)">
            <path d="M152.874,212.616L154.04,212.616L154.04,213.835L152.874,213.835L152.874,212.616ZM151.615,205.886C152.091,205.373 152.746,205.116 153.578,205.116C154.347,205.116 154.963,205.336 155.426,205.775C155.889,206.214 156.121,206.776 156.121,207.46C156.121,207.874 156.036,208.21 155.866,208.467C155.696,208.725 155.353,209.104 154.837,209.604C154.462,209.967 154.219,210.275 154.108,210.527C153.997,210.779 153.941,211.151 153.941,211.643L152.898,211.643C152.898,211.085 152.964,210.634 153.097,210.293C153.23,209.951 153.521,209.559 153.97,209.118L154.439,208.655C154.58,208.522 154.693,208.383 154.779,208.239C154.935,207.985 155.013,207.721 155.013,207.448C155.013,207.065 154.899,206.733 154.67,206.452C154.442,206.171 154.064,206.03 153.537,206.03C152.884,206.03 152.433,206.272 152.183,206.756C152.042,207.026 151.962,207.415 151.943,207.922L150.9,207.922C150.9,207.079 151.138,206.4 151.615,205.886Z" style="fill:white;fill-rule:nonzero;"/>
        </g>
    </g>
    <g transform="matrix(0.742942,0,0,0.742942,274.789,-46.9059)">
        <g transform="matrix(1.26513,0,0,1.26513,323.351,83.352)">
            <circle cx="250" cy="250" r="250" style="fill:black;"/>
        </g>
        <g transform="matrix(48.5276,0,0,48.5276,-6809.47,-9765.32)">
            <path d="M152.874,212.616L154.04,212.616L154.04,213.835L152.874,213.835L152.874,212.616ZM151.615,205.886C152.091,205.373 152.746,205.116 153.578,205.116C154.347,205.116 154.963,205.336 155.426,205.775C155.889,206.214 156.121,206.776 156.121,207.46C156.121,207.874 156.036,208.21 155.866,208.467C155.696,208.725 155.353,209.104 154.837,209.604C154.462,209.967 154.219,210.275 154.108,210.527C153.997,210.779 153.941,211.151 153.941,211.643L152.898,211.643C152.898,211.085 152.964,210.634 153.097,210.293C153.23,209.951 153.521,209.559 153.97,209.118L154.439,208.655C154.58,208.522 154.693,208.383 154.779,208.239C154.935,207.985 155.013,207.721 155.013,207.448C155.013,207.065 154.899,206.733 154.67,206.452C154.442,206.171 154.064,206.03 153.537,206.03C152.884,206.03 152.433,206.272 152.183,206.756C152.042,207.026 151.962,207.415 151.943,207.922L150.9,207.922C150.9,207.079 151.138,206.4 151.615,205.886Z" style="fill:white;fill-rule:nonzero;"/>
        </g>
    </g>
</svg>
