<?xml version="1.0" encoding="UTF-8" standalone="no"?>
<!DOCTYPE svg PUBLIC "-//W3C//DTD SVG 1.1//EN" "http://www.w3.org/Graphics/SVG/1.1/DTD/svg11.dtd">
<svg width="100%" height="100%" viewBox="0 0 145 185" version="1.1" xmlns="http://www.w3.org/2000/svg" xmlns:xlink="http://www.w3.org/1999/xlink" xml:space="preserve" style="fill-rule:evenodd;clip-rule:evenodd;stroke-linejoin:round;stroke-miterlimit:1.41421;">
    <g transform="matrix(1.07148,0,-5.47296e-33,1.07148,-1.285,-173.078)">
        <g transform="matrix(0.325432,-2.36729e-16,-1.599e-16,0.872656,-63.8529,13.0263)">
            <rect x="199.895" y="213.362" width="414.691" height="154.668" style="fill:rgb(170,170,170);"/>
        </g>
        <g transform="matrix(0.933289,0,4.7671e-33,0.933289,1.19928,161.532)">
            <path d="M79.659,40.38L104.978,40.38L97.389,43.798L105.307,44.49C103.76,47.815 101.181,52.55 98.667,55.544L91.137,53.924L95.164,59.23C92.644,61.577 89.721,63.731 86.322,65.616C82.058,67.206 79.331,66.912 77.599,66.015C73.233,65.983 72.153,86.519 73.778,88.761L68.493,88.512C68.264,75.563 70.556,69.025 71.808,63.797C69.747,62.722 68.724,61.686 67.406,59.817C65.468,57.072 62.19,49.339 65.335,40.38L76.399,40.38C74.205,43.87 72.317,48.219 71.808,53.31C71.665,56.172 71.822,57.582 72.268,59.23C73.112,56.035 74.251,56.322 75.143,55.127C75.111,54.564 75.096,53.998 75.101,53.43C75.127,50.794 75.662,48.178 76.755,45.947C77.683,43.82 78.638,42.008 79.659,40.38ZM67.959,35.037L67.895,35.137L67.862,35.189L67.81,35.271L67.775,35.329L67.727,35.405L67.69,35.465L67.645,35.54L67.608,35.6L67.563,35.674L67.527,35.735L67.483,35.809L67.447,35.869L67.403,35.944L67.368,36.003L67.322,36.082L67.291,36.136L67.232,36.24L67.215,36.268L67.198,36.3L67.141,36.4L67.109,36.457L67.067,36.533L67.033,36.595L66.994,36.666L66.959,36.73L66.922,36.799L66.887,36.864L66.851,36.931L66.816,36.998L66.781,37.064L66.746,37.131L66.712,37.197L66.678,37.263L66.644,37.329L66.61,37.396L66.577,37.461L66.544,37.527L66.509,37.598L66.481,37.654L66.446,37.726L66.417,37.785L66.382,37.858L66.354,37.917L66.319,37.99L66.292,38.048L66.257,38.121L66.231,38.179L66.196,38.253L66.171,38.309L66.136,38.384L66.112,38.438L66.077,38.516L66.055,38.565L66.019,38.647L66.003,38.684C65.956,38.792 65.909,38.9 65.864,39.008L65.856,39.026L65.818,39.119L65.802,39.155L65.766,39.243L65.749,39.285L65.715,39.371L65.698,39.413L65.663,39.5L65.647,39.54L65.613,39.629L65.598,39.666L65.563,39.758L65.551,39.788L65.514,39.887L65.509,39.9L65.468,40.011L65.447,40.067L65.426,40.124L65.405,40.184L65.385,40.238L65.364,40.297L65.345,40.352L65.335,40.38L65.335,40.38L65.345,40.352L65.353,40.328L65.364,40.297L65.377,40.26L65.385,40.238L65.391,40.221L65.405,40.184L65.42,40.14L65.426,40.124L65.43,40.114L65.447,40.067L65.464,40.02L65.468,40.011C65.481,39.974 65.495,39.937 65.509,39.9L65.513,39.889L65.514,39.887L65.523,39.863L65.551,39.788L65.56,39.766L65.563,39.758L65.575,39.727L65.598,39.666L65.607,39.643L65.613,39.629L65.628,39.59L65.647,39.54L65.655,39.519L65.663,39.5L65.682,39.453L65.698,39.413L65.705,39.396L65.715,39.371L65.736,39.316L65.749,39.285L65.755,39.272L65.766,39.243L65.792,39.179L65.802,39.155L65.805,39.148L65.818,39.119L65.849,39.042L65.856,39.026L65.857,39.024L65.864,39.008C65.909,38.9 65.955,38.792 66.003,38.684L66.017,38.652L66.019,38.647L66.027,38.63L66.055,38.565L66.072,38.527L66.077,38.516L66.088,38.492L66.112,38.438L66.128,38.403L66.136,38.384L66.15,38.354L66.171,38.309L66.185,38.278L66.196,38.253L66.213,38.216L66.231,38.179L66.242,38.153L66.257,38.121L66.278,38.077L66.292,38.048L66.301,38.028L66.319,37.99L66.343,37.939L66.354,37.917L66.36,37.903L66.382,37.858L66.41,37.8L66.417,37.785L66.421,37.778L66.446,37.726L66.477,37.662L66.481,37.654L66.482,37.653L66.509,37.598L66.546,37.523L66.577,37.461L66.607,37.402L66.61,37.396L66.616,37.384L66.644,37.329L66.671,37.276L66.678,37.263L66.687,37.245L66.712,37.197L66.736,37.151L66.746,37.131L66.759,37.106L66.781,37.064L66.802,37.025L66.816,36.998L66.832,36.967L66.851,36.931L66.868,36.899L66.887,36.864L66.907,36.827L66.922,36.799L66.936,36.773L66.959,36.73L66.982,36.688L66.994,36.666L67.004,36.647L67.033,36.595L67.059,36.548L67.067,36.533L67.074,36.521L67.109,36.457L67.136,36.408L67.141,36.4L67.144,36.395L67.198,36.3L67.215,36.268L67.232,36.24L67.288,36.142L67.291,36.136L67.295,36.129L67.322,36.082L67.361,36.015L67.368,36.003L67.377,35.988L67.403,35.944L67.435,35.889L67.447,35.869L67.459,35.848L67.483,35.809L67.51,35.762L67.527,35.735L67.543,35.708L67.563,35.674L67.586,35.636L67.608,35.6L67.627,35.568L67.645,35.54L67.663,35.509L67.69,35.465L67.713,35.427L67.727,35.405L67.741,35.382L67.775,35.329L67.8,35.287L67.81,35.271L67.82,35.255L67.862,35.189L67.889,35.146L67.895,35.137L67.9,35.128L67.959,35.037L67.978,35.006L67.98,35.003L67.959,35.037ZM68.069,34.865L68.093,34.828L68.146,34.747L68.154,34.735L68.161,34.724L68.189,34.683L68.23,34.62L68.243,34.601L68.254,34.583L68.281,34.544L68.315,34.492L68.333,34.466L68.349,34.442L68.372,34.408L68.401,34.365L68.425,34.331L68.445,34.302L68.465,34.272L68.488,34.238L68.518,34.195L68.541,34.16L68.558,34.137L68.576,34.11L68.613,34.058L68.64,34.019L68.652,34.002L68.665,33.983L68.71,33.919L68.739,33.878L68.747,33.867L68.755,33.855L68.815,33.772L68.84,33.737L68.843,33.733L68.815,33.772L68.747,33.867L68.71,33.919L68.652,34.002L68.613,34.058L68.558,34.137L68.518,34.195L68.465,34.272L68.425,34.331L68.372,34.408L68.333,34.466L68.281,34.544L68.243,34.601L68.189,34.683L68.154,34.735L68.093,34.828L68.066,34.87L68.069,34.865ZM68.942,33.596L68.96,33.571L69.032,33.473L69.039,33.463L69.045,33.454L69.074,33.415L69.126,33.345L69.138,33.328L69.149,33.313L69.179,33.274L69.221,33.217L69.239,33.193L69.255,33.172L69.282,33.136L69.317,33.09L69.342,33.057L69.362,33.03L69.386,33L69.415,32.962L69.446,32.921L69.471,32.889L69.49,32.864L69.513,32.834L69.552,32.785L69.58,32.747L69.595,32.728L69.613,32.706L69.66,32.646L69.691,32.606L69.702,32.593L69.713,32.578L69.773,32.502L69.804,32.464L69.809,32.458L69.773,32.502L69.702,32.593L69.66,32.646L69.595,32.728L69.552,32.785L69.49,32.864L69.446,32.921L69.386,33L69.342,33.057L69.282,33.136L69.239,33.193L69.179,33.274L69.138,33.328L69.074,33.415L69.039,33.463L68.96,33.571L68.94,33.598L68.942,33.596Z" style="fill:white;"/>
        </g>
        <g transform="matrix(0.933289,0,4.7671e-33,0.933289,1.19928,161.532)">
            <path d="M76.399,40.38L65.335,40.38C66.252,37.767 67.715,35.05 69.917,32.323C79.673,20.241 94.346,15.293 100.251,10.403C106.154,5.51 106.921,0 106.921,0C106.921,0 110.012,10.383 109.641,23.351L101.315,28.88L109.596,28.446C109.201,32.992 108.501,34.865 106.9,39.515L104.978,40.38L79.659,40.38C79.877,40.032 80.099,39.693 80.323,39.361C82.854,35.648 85.5,33.349 86.322,32.585C87.162,31.834 88.655,30.46 90.489,28.855C92.341,27.306 94.518,25.288 96.234,23.241C99.815,19.19 102.513,15.217 102.505,15.217C102.514,15.217 99.348,18.83 95.402,22.413C93.437,24.283 91.292,25.89 89.257,27.307C87.276,28.749 85.641,30.051 84.764,30.831C83.794,31.743 79.741,35.064 76.399,40.38Z" style="fill:rgb(170,170,170);"/>
        </g>
        <g transform="matrix(0.933289,0,4.7671e-33,0.933289,1.19928,161.532)">
            <path d="M76.399,40.38L79.659,40.38C79.877,40.032 80.099,39.693 80.323,39.361C82.854,35.648 85.5,33.349 86.322,32.585C87.162,31.834 88.655,30.46 90.489,28.855C92.341,27.306 94.518,25.288 96.234,23.241C99.815,19.19 102.513,15.217 102.505,15.217C102.514,15.217 99.348,18.83 95.402,22.413C93.437,24.283 91.292,25.89 89.257,27.307C87.276,28.749 85.641,30.051 84.764,30.831C83.794,31.743 79.741,35.064 76.399,40.38Z" style="fill:white;"/>
        </g>
        <g transform="matrix(0.933289,0,4.7671e-33,0.933289,1.19928,161.532)">
            <path d="M48.747,89.018L48.747,89.017C50.906,87.664 56.614,85.039 67.164,86.22C78.87,87.53 82.481,89.704 89.404,90.418L88.118,93.747C81.988,92.913 78.124,90.929 67.164,89.703C58.069,88.685 52.573,90.495 49.846,91.881L48.747,89.018Z" style="fill:white;"/>
        </g>
        <g transform="matrix(1,0,0,1,-208.124,0.000758079)">
            <path d="M279.16,304.249L268.661,304.249L241.921,238.729L252.561,238.729L273.84,294.169L274.12,294.169L295.54,238.729L305.76,238.729L279.16,304.249Z" style="fill:white;fill-rule:nonzero;"/>
        </g>
    </g>
</svg>
