<?xml version="1.0" encoding="UTF-8" standalone="no"?>
<!DOCTYPE svg PUBLIC "-//W3C//DTD SVG 1.1//EN" "http://www.w3.org/Graphics/SVG/1.1/DTD/svg11.dtd">
<svg width="100%" height="100%" viewBox="0 0 575 185" version="1.1" xmlns="http://www.w3.org/2000/svg" xmlns:xlink="http://www.w3.org/1999/xlink" xml:space="preserve" style="fill-rule:evenodd;clip-rule:evenodd;stroke-linejoin:round;stroke-miterlimit:1.41421;">
    <g transform="matrix(1,0,0,1,-111.67,-143.807)">
        <g transform="matrix(1.07148,0,-5.47296e-33,1.07148,110.385,-29.2708)">
            <g transform="matrix(1.29195,0,4.45737e-33,0.872656,-257.055,12.2179)">
                <rect x="199.895" y="213.362" width="414.691" height="154.668" style="fill:rgb(51,51,51);"/>
            </g>
            <path d="M55.582,249.509C57.356,245.683 60.296,242.649 64.402,240.409C68.509,238.169 72.896,237.049 77.562,237.049C85.869,237.049 92.099,239.523 96.252,244.469C100.405,249.416 102.482,255.949 102.482,264.069L102.482,304.249L92.962,304.249L92.962,267.989C92.962,264.536 92.682,261.409 92.122,258.609C91.562,255.809 90.605,253.406 89.252,251.399C87.899,249.393 86.079,247.829 83.792,246.709C81.506,245.589 78.636,245.029 75.182,245.029C72.662,245.029 70.212,245.543 67.832,246.569C65.452,247.596 63.329,249.159 61.462,251.259C59.596,253.359 58.102,256.019 56.982,259.239C55.862,262.459 55.302,266.262 55.302,270.649L55.302,304.249L45.783,304.249L45.783,198.41L55.302,198.41L55.302,249.509L55.582,249.509Z" style="fill:white;fill-rule:nonzero;"/>
            <path d="M168.421,261.969C168.421,256.276 166.928,252.029 163.941,249.229C160.955,246.429 156.615,245.029 150.922,245.029C147.002,245.029 143.362,245.729 140.002,247.129C136.642,248.529 133.795,250.396 131.462,252.729L126.142,246.429C128.848,243.723 132.418,241.483 136.852,239.709C141.285,237.936 146.302,237.049 151.902,237.049C155.448,237.049 158.762,237.539 161.841,238.519C164.921,239.499 167.628,240.969 169.961,242.929C172.295,244.889 174.115,247.363 175.421,250.349C176.728,253.336 177.381,256.836 177.381,260.849L177.381,289.549C177.381,292.069 177.475,294.682 177.661,297.389C177.848,300.095 178.128,302.382 178.501,304.249L169.961,304.249C169.681,302.662 169.448,300.935 169.261,299.069C169.075,297.202 168.981,295.382 168.981,293.609L168.701,293.609C165.715,297.995 162.331,301.145 158.552,303.059C154.772,304.972 150.222,305.929 144.902,305.929C142.382,305.929 139.792,305.579 137.132,304.879C134.472,304.179 132.045,303.035 129.852,301.449C127.658,299.862 125.838,297.809 124.392,295.289C122.945,292.769 122.222,289.689 122.222,286.049C122.222,281.009 123.505,277.019 126.072,274.079C128.638,271.139 132.068,268.946 136.362,267.499C140.655,266.052 145.578,265.119 151.132,264.699C156.685,264.279 162.448,264.069 168.421,264.069L168.421,261.969ZM165.621,271.489C161.701,271.489 157.758,271.652 153.792,271.979C149.825,272.306 146.232,272.959 143.012,273.939C139.792,274.919 137.155,276.342 135.102,278.209C133.048,280.076 132.022,282.549 132.022,285.629C132.022,287.962 132.465,289.922 133.352,291.509C134.238,293.096 135.428,294.379 136.922,295.359C138.415,296.339 140.072,297.039 141.892,297.459C143.712,297.879 145.555,298.089 147.422,298.089C150.782,298.089 153.768,297.505 156.382,296.339C158.995,295.172 161.188,293.586 162.961,291.579C164.735,289.572 166.088,287.262 167.021,284.649C167.955,282.036 168.421,279.282 168.421,276.389L168.421,271.489L165.621,271.489Z" style="fill:white;fill-rule:nonzero;"/>
            <path d="M201.881,253.149C201.881,251.376 201.834,249.089 201.741,246.289C201.648,243.489 201.508,240.969 201.321,238.729L210.421,238.729C210.608,240.503 210.748,242.463 210.841,244.609C210.934,246.756 210.981,248.529 210.981,249.929L211.261,249.929C213.128,246.103 215.928,242.999 219.661,240.619C223.394,238.239 227.594,237.049 232.261,237.049C233.474,237.049 234.571,237.096 235.551,237.189C236.531,237.283 237.534,237.469 238.561,237.749L237.301,246.709C236.741,246.523 235.807,246.336 234.501,246.149C233.194,245.963 231.888,245.869 230.581,245.869C228.061,245.869 225.634,246.336 223.301,247.269C220.968,248.203 218.938,249.673 217.211,251.679C215.484,253.686 214.084,256.253 213.011,259.379C211.938,262.506 211.401,266.262 211.401,270.649L211.401,304.249L201.881,304.249L201.881,253.149Z" style="fill:white;fill-rule:nonzero;"/>
            <g transform="matrix(0.816812,0,4.17213e-33,0.816812,-52.8494,54.1739)">
                <path d="M407.588,204.328C405.233,203.1 404.064,201.916 402.558,199.781C399.699,195.73 394.284,182.169 405.428,168.366C416.575,154.561 433.34,148.908 440.087,143.321C446.832,137.73 447.708,131.434 447.708,131.434C447.708,131.434 451.24,143.298 450.816,158.115L441.303,164.432L450.765,163.936C450.313,169.131 449.514,171.271 447.684,176.584L436.817,181.477L445.864,182.268C444.097,186.067 441.15,191.478 438.277,194.899L429.673,193.048L434.275,199.11C431.396,201.792 428.056,204.253 424.172,206.407C419.3,208.224 416.184,207.888 414.205,206.863C409.217,206.826 407.983,230.291 409.839,232.852L403.8,232.568C403.539,217.772 406.158,210.302 407.588,204.328Z" style="fill:rgb(63,203,33);"/>
            </g>
            <g transform="matrix(0.816812,0,4.17213e-33,0.816812,-52.8494,54.1739)">
                <path d="M411.399,194.422C411.362,193.779 411.345,193.132 411.351,192.483C411.38,189.471 411.992,186.482 413.241,183.933C414.528,180.984 415.859,178.564 417.318,176.408C420.209,172.165 423.233,169.538 424.172,168.666C425.132,167.808 426.838,166.238 428.933,164.404C431.049,162.634 433.537,160.328 435.497,157.989C439.589,153.36 442.672,148.821 442.663,148.821C442.673,148.821 439.055,152.949 434.547,157.043C432.302,159.18 429.851,161.016 427.526,162.635C425.262,164.283 423.394,165.77 422.392,166.662C420.555,168.388 409.055,177.667 407.588,192.346C407.425,195.616 407.604,197.227 408.114,199.11C409.078,195.46 410.38,195.787 411.399,194.422Z" style="fill:rgb(163,255,144);"/>
            </g>
            <g transform="matrix(0.933285,0,4.76706e-33,0.933285,-103.02,27.3179)">
                <path d="M387.418,232.824C389.577,231.471 395.285,228.846 405.835,230.027C417.541,231.337 421.152,233.511 428.076,234.225L408.1,285.927L407.8,285.927L387.418,232.824Z" style="fill:rgb(188,145,84);"/>
            </g>
            <g transform="matrix(1,0,0,1,3.73314,0)">
                <path d="M279.16,304.249L268.661,304.249L241.921,238.729L252.561,238.729L273.84,294.169L274.12,294.169L295.54,238.729L305.76,238.729L279.16,304.249Z" style="fill:white;fill-rule:nonzero;"/>
            </g>
            <path d="M370.58,266.449C370.3,260.289 368.316,255.179 364.63,251.119C360.943,247.059 355.693,245.029 348.88,245.029C345.706,245.029 342.767,245.613 340.06,246.779C337.353,247.946 334.973,249.533 332.92,251.539C330.867,253.546 329.233,255.833 328.02,258.399C326.807,260.966 326.107,263.649 325.92,266.449L370.58,266.449ZM380.24,269.529C380.24,270.182 380.24,270.882 380.24,271.629C380.24,272.376 380.193,273.169 380.1,274.009L325.78,274.009C325.873,277.276 326.527,280.356 327.74,283.249C328.953,286.142 330.633,288.662 332.78,290.809C334.927,292.956 337.447,294.659 340.34,295.919C343.233,297.179 346.36,297.809 349.72,297.809C354.666,297.809 358.936,296.665 362.53,294.379C366.123,292.092 368.853,289.456 370.72,286.469L377.86,292.069C373.94,297.015 369.623,300.562 364.91,302.709C360.196,304.855 355.133,305.929 349.72,305.929C344.866,305.929 340.363,305.065 336.21,303.339C332.057,301.612 328.487,299.209 325.5,296.129C322.513,293.049 320.157,289.409 318.43,285.209C316.703,281.009 315.84,276.436 315.84,271.489C315.84,266.542 316.68,261.969 318.36,257.769C320.04,253.569 322.373,249.929 325.36,246.849C328.347,243.769 331.847,241.366 335.86,239.639C339.873,237.913 344.213,237.049 348.88,237.049C354.013,237.049 358.54,237.913 362.46,239.639C366.38,241.366 369.646,243.699 372.26,246.639C374.873,249.579 376.856,253.009 378.21,256.929C379.563,260.849 380.24,265.049 380.24,269.529Z" style="fill:white;fill-rule:nonzero;"/>
            <path d="M435.539,254.269C434.139,251.563 432.016,249.346 429.169,247.619C426.322,245.893 423.079,245.029 419.439,245.029C417.759,245.029 416.079,245.216 414.399,245.589C412.719,245.963 411.226,246.569 409.919,247.409C408.613,248.249 407.563,249.323 406.769,250.629C405.976,251.936 405.579,253.476 405.579,255.249C405.579,258.329 406.839,260.686 409.359,262.319C411.879,263.952 415.846,265.329 421.259,266.449C429.006,268.036 434.722,270.346 438.409,273.379C442.096,276.412 443.939,280.496 443.939,285.629C443.939,289.362 443.216,292.512 441.769,295.079C440.322,297.645 438.432,299.745 436.099,301.379C433.766,303.012 431.129,304.179 428.189,304.879C425.249,305.579 422.286,305.929 419.299,305.929C414.353,305.929 409.546,304.902 404.879,302.849C400.213,300.795 396.386,297.575 393.399,293.189L400.959,287.589C402.639,290.482 405.113,292.909 408.379,294.869C411.646,296.829 415.239,297.809 419.159,297.809C421.212,297.809 423.172,297.622 425.039,297.249C426.906,296.875 428.539,296.222 429.939,295.289C431.339,294.355 432.459,293.166 433.299,291.719C434.139,290.272 434.559,288.476 434.559,286.329C434.559,282.876 432.902,280.286 429.589,278.559C426.276,276.832 421.492,275.222 415.239,273.729C413.279,273.262 411.203,272.679 409.009,271.979C406.816,271.279 404.786,270.252 402.919,268.899C401.053,267.546 399.513,265.842 398.299,263.789C397.086,261.736 396.479,259.169 396.479,256.089C396.479,252.729 397.133,249.859 398.439,247.479C399.746,245.099 401.496,243.139 403.689,241.599C405.883,240.059 408.379,238.916 411.179,238.169C413.979,237.423 416.873,237.049 419.859,237.049C424.432,237.049 428.866,238.076 433.159,240.129C437.452,242.183 440.672,245.076 442.819,248.809L435.539,254.269Z" style="fill:white;fill-rule:nonzero;"/>
            <path d="M492.378,246.709L473.899,246.709L473.899,284.929C473.899,287.356 474.132,289.362 474.599,290.949C475.065,292.536 475.742,293.772 476.629,294.659C477.515,295.545 478.565,296.152 479.779,296.479C480.992,296.805 482.299,296.969 483.699,296.969C485.005,296.969 486.382,296.782 487.829,296.409C489.275,296.035 490.652,295.522 491.958,294.869L492.378,303.129C490.699,303.782 488.949,304.272 487.129,304.599C485.309,304.925 483.325,305.089 481.179,305.089C479.405,305.089 477.539,304.855 475.579,304.389C473.619,303.922 471.799,303.035 470.119,301.729C468.439,300.422 467.062,298.649 465.989,296.409C464.915,294.169 464.379,291.229 464.379,287.589L464.379,246.709L450.799,246.709L450.799,238.729L464.379,238.729L464.379,220.25L473.899,220.25L473.899,238.729L492.378,238.729L492.378,246.709Z" style="fill:white;fill-rule:nonzero;"/>
        </g>
    </g>
</svg>
