<?xml version="1.0" encoding="UTF-8" standalone="no"?>
<!DOCTYPE svg PUBLIC "-//W3C//DTD SVG 1.1//EN" "http://www.w3.org/Graphics/SVG/1.1/DTD/svg11.dtd">
<svg width="100%" height="100%" viewBox="0 0 203 118" version="1.1" xmlns="http://www.w3.org/2000/svg" xmlns:xlink="http://www.w3.org/1999/xlink" xml:space="preserve" style="fill-rule:evenodd;clip-rule:evenodd;stroke-linejoin:round;stroke-miterlimit:1.41421;">
    <g transform="matrix(1,0,0,1,-298.92,-143.352)">
        <g transform="matrix(0.385687,0,-1.97002e-33,0.385687,296.57,142.125)">
            <text x="-7.207px" y="304.249px" style="font-family:'Herculanum';font-size:139.999px;fill:white;">h</text>
            <text x="88.552px" y="304.249px" style="font-family:'Herculanum';font-size:139.999px;fill:white;">a</text>
            <text x="175.491px" y="304.249px" style="font-family:'Herculanum';font-size:139.999px;fill:white;">r</text>
            <text x="263.131px" y="304.249px" style="font-family:'Herculanum';font-size:139.999px;fill:white;">v<tspan x="348.53px 413.069px 464.729px " y="304.249px 304.249px 304.249px ">est</tspan></text>
        </g>
        <path d="M419.427,193.748C417.177,197.176 414.497,200.325 412.468,202.582C410.038,205.287 406.553,207.837 403.626,208.968C400.911,210.017 397.358,209.888 394.903,209.367C392.881,208.939 390.811,208.182 389.112,207.149C387.422,206.121 386.028,205.038 384.71,203.17C382.208,199.623 377.468,187.756 387.221,175.675C396.977,163.593 411.65,158.646 417.555,153.756C423.458,148.862 424.225,143.352 424.225,143.352C424.225,143.352 427.214,159.288 426.945,166.703C426.929,167.133 426.909,167.566 426.883,168.001C421.72,166.944 416.415,166.943 410.763,169.542C410.763,169.542 412.694,167.6 413.538,166.593C417.119,162.541 419.817,158.569 419.809,158.569C419.819,158.569 416.652,162.182 412.707,165.765C410.742,167.636 408.597,169.242 406.562,170.659C404.58,172.101 402.945,173.403 402.068,174.183C400.461,175.694 390.395,183.815 389.112,196.662C388.969,199.524 389.126,200.934 389.572,202.582C390.416,199.388 391.555,199.673 392.447,198.479C392.415,197.916 392.4,197.35 392.406,196.782C392.413,196.04 392.549,194.569 392.549,194.569C400.772,191.903 410.269,191.711 419.427,193.748ZM419.58,193.514C410.919,190.87 401.574,190.492 393.113,192.132C393.113,192.132 393.713,190.006 394.06,189.299C395.186,186.718 395.913,185.134 397.191,183.248C406.445,180.174 415.883,179.375 424.866,180.848C424.229,183.347 423.467,185.72 422.611,187.842C421.843,189.746 420.777,191.668 419.58,193.514ZM424.886,180.77C416.269,178.935 407.659,178.312 399.063,180.759C399.063,180.759 402.96,176.556 403.626,175.937C404.466,175.186 405.959,173.812 407.793,172.207C414.796,168.582 421.089,167.478 426.873,168.178C426.616,172.354 425.913,176.726 424.886,180.77Z" style="fill:white;"/>
    </g>
</svg>
