<?xml version="1.0" encoding="UTF-8" standalone="no"?>
<!DOCTYPE svg PUBLIC "-//W3C//DTD SVG 1.1//EN" "http://www.w3.org/Graphics/SVG/1.1/DTD/svg11.dtd">
<svg width="100%" height="100%" viewBox="0 0 657 430" version="1.1" xmlns="http://www.w3.org/2000/svg" xmlns:xlink="http://www.w3.org/1999/xlink" xml:space="preserve" style="fill-rule:evenodd;clip-rule:evenodd;stroke-linejoin:round;stroke-miterlimit:1.41421;">
    <g transform="matrix(1,0,0,1,-400,-200)">
        <g transform="matrix(1.20786,0,0,1.20786,-38.0126,-149.922)">
            <path d="M445.425,372.495L362.634,372.495L362.634,289.704L445.425,289.704L445.425,372.495ZM369.257,296.327L369.257,365.872L438.802,365.872L438.802,296.327L369.257,296.327Z" style="fill:rgb(136,136,136);"/>
        </g>
        <g transform="matrix(1.20786,0,0,1.20786,71.9874,-149.922)">
            <path d="M445.425,372.495L362.634,372.495L362.634,289.704L445.425,289.704L445.425,372.495ZM369.257,296.327L369.257,365.872L438.802,365.872L438.802,296.327L369.257,296.327Z" style="fill:rgb(136,136,136);"/>
        </g>
        <g transform="matrix(1.20786,0,0,1.20786,201.987,-64.8105)">
            <path d="M445.425,372.495L362.634,372.495L362.634,289.704L445.425,289.704L445.425,372.495ZM369.257,365.872L438.802,365.872L438.802,296.327L369.257,296.327L369.257,365.872Z" style="fill:rgb(136,136,136);"/>
        </g>
        <g transform="matrix(1.20786,0,0,1.20786,-38.0126,-39.9223)">
            <path d="M445.425,372.495L362.634,372.495L362.634,289.704L445.425,289.704L445.425,372.495ZM369.257,365.872L438.802,365.872L438.802,296.327L369.257,296.327L369.257,365.872Z" style="fill:rgb(136,136,136);"/>
        </g>
        <g transform="matrix(1.20786,0,0,1.20786,181.987,180.078)">
            <path d="M445.425,372.495L362.634,372.495L362.634,289.704L445.425,289.704L445.425,372.495ZM369.257,296.327L369.257,365.872L438.802,365.872L438.802,296.327L369.257,296.327Z" style="fill:rgb(136,136,136);"/>
        </g>
        <g transform="matrix(1.20786,0,0,1.20786,181.987,70.0777)">
            <path d="M445.425,372.495L362.634,372.495L362.634,289.704L445.425,289.704L445.425,372.495ZM369.257,296.327L369.257,365.872L438.802,365.872L438.802,296.327L369.257,296.327Z" style="fill:rgb(136,136,136);"/>
        </g>
        <g transform="matrix(1.20786,0,0,1.20786,301.987,50.0777)">
            <path d="M445.425,372.495L362.634,372.495L362.634,289.704L445.425,289.704L445.425,372.495ZM369.257,296.327L369.257,365.872L438.802,365.872L438.802,296.327L369.257,296.327Z" style="fill:rgb(136,136,136);"/>
        </g>
        <g transform="matrix(1.20786,0,0,1.20786,369.996,-99.9223)">
            <path d="M445.425,372.495L362.634,372.495L362.634,289.704L445.425,289.704L445.425,372.495ZM369.257,296.327L369.257,365.872L438.802,365.872L438.802,296.327L369.257,296.327Z" style="fill:rgb(136,136,136);"/>
        </g>
        <g transform="matrix(1.20786,0,0,1.20786,291.987,180.078)">
            <path d="M445.425,372.495L362.634,372.495L362.634,289.704L445.425,289.704L445.425,372.495ZM369.257,296.327L369.257,365.872L438.802,365.872L438.802,296.327L369.257,296.327Z" style="fill:rgb(136,136,136);"/>
        </g>
        <g transform="matrix(1.20786,0,0,1.20786,468.494,130.078)">
            <path d="M445.425,372.495L362.634,372.495L362.634,289.704L445.425,289.704L445.425,372.495ZM369.257,296.327L369.257,365.872L438.802,365.872L438.802,296.327L369.257,296.327Z" style="fill:rgb(136,136,136);"/>
        </g>
        <g transform="matrix(1.20786,0,0,1.20786,518.494,-14.8105)">
            <path d="M445.425,372.495L362.634,372.495L362.634,289.704L445.425,289.704L445.425,372.495ZM369.257,365.872L438.802,365.872L438.802,296.327L369.257,296.327L369.257,365.872Z" style="fill:rgb(136,136,136);"/>
        </g>
        <g transform="matrix(1.20786,0,0,1.20786,71.9874,-39.9223)">
            <path d="M445.425,372.495L362.634,372.495L362.634,289.704L445.425,289.704L445.425,372.495ZM369.257,365.872L438.802,365.872L438.802,296.327L369.257,296.327L369.257,365.872Z" style="fill:rgb(136,136,136);"/>
        </g>
        <g transform="matrix(1.20786,0,0,1.20786,-38.0126,70.0777)">
            <path d="M445.425,372.495L362.634,372.495L362.634,289.704L445.425,289.704L445.425,372.495ZM369.257,296.327L369.257,365.872L438.802,365.872L438.802,296.327L369.257,296.327Z" style="fill:rgb(136,136,136);"/>
        </g>
        <g transform="matrix(1.20786,0,0,1.20786,71.9874,70.0777)">
            <path d="M445.425,372.495L362.634,372.495L362.634,289.704L445.425,289.704L445.425,372.495ZM369.257,296.327L369.257,365.872L438.802,365.872L438.802,296.327L369.257,296.327Z" style="fill:rgb(136,136,136);"/>
        </g>
        <g transform="matrix(1.20786,0,0,1.20786,-38.0126,180.078)">
            <path d="M445.425,372.495L362.634,372.495L362.634,289.704L445.425,289.704L445.425,372.495ZM369.257,296.327L369.257,365.872L438.802,365.872L438.802,296.327L369.257,296.327Z" style="fill:rgb(136,136,136);"/>
        </g>
        <g transform="matrix(1.20786,0,0,1.20786,71.9874,180.078)">
            <path d="M445.425,372.495L362.634,372.495L362.634,289.704L445.425,289.704L445.425,372.495ZM369.257,296.327L369.257,365.872L438.802,365.872L438.802,296.327L369.257,296.327Z" style="fill:rgb(136,136,136);"/>
        </g>
    </g>
</svg>
