<?xml version="1.0" standalone="no"?>
<!DOCTYPE svg PUBLIC "-//W3C//DTD SVG 1.1//EN" "http://www.w3.org/Graphics/SVG/1.1/DTD/svg11.dtd">
<svg width="100%" height="100%" viewBox="0 0 673 673" version="1.1" xmlns="http://www.w3.org/2000/svg" xmlns:xlink="http://www.w3.org/1999/xlink" xml:space="preserve" style="fill-rule:evenodd;clip-rule:evenodd;stroke-linejoin:round;stroke-miterlimit:1.41421;">
    <path d="M336.135,0C521.653,0 672.269,150.617 672.269,336.135C672.269,521.653 521.653,672.27 336.135,672.27C150.617,672.27 0,521.653 0,336.135C0,150.617 150.617,0 336.135,0ZM336.135,16.806C512.377,16.806 655.463,159.893 655.463,336.135C655.463,512.377 512.377,655.463 336.135,655.463C159.893,655.463 16.806,512.377 16.806,336.135C16.806,159.893 159.893,16.806 336.135,16.806ZM473.894,107.055C473.894,107.055 468.63,144.875 428.112,178.466C387.58,212.029 286.867,245.985 219.905,328.916C152.961,411.837 185.49,493.297 202.666,517.637C212.523,531.608 227.457,534.911 238.414,535.174C234.353,516.108 231.785,494.969 232.882,472.973C241.691,384.787 310.78,329.05 321.813,318.68C327.831,313.322 339.052,304.388 352.657,294.487C366.624,284.765 381.348,273.736 394.833,260.897C421.915,236.303 443.648,211.503 443.585,211.503C443.639,211.503 425.121,238.768 400.54,266.581C388.762,280.628 373.819,294.483 361.105,305.115C348.52,316.131 338.271,325.564 332.503,330.717C326.864,335.955 308.702,351.74 291.334,377.226C282.565,390.176 274.572,404.714 266.842,422.434C259.34,437.742 255.662,455.699 255.488,473.793C255.207,505.387 263.771,536.262 272.629,560.179C284.522,566.335 303.237,568.355 332.503,557.437C355.84,544.5 375.905,529.713 393.197,513.607L365.554,477.19L417.239,488.308C434.5,467.757 448.079,445.651 458.697,422.826L408.47,407.678L471.309,391.358C482.298,359.444 488.253,326.834 490.968,295.629L441.062,304.308L440.549,304.518L440.852,304.339L435.414,305.284L492.564,267.334C495.11,178.328 473.894,107.055 473.894,107.055Z" style="fill:#57c141;"/>
</svg>
