<?xml version="1.0" encoding="UTF-8" standalone="no"?>
<!DOCTYPE svg PUBLIC "-//W3C//DTD SVG 1.1//EN" "http://www.w3.org/Graphics/SVG/1.1/DTD/svg11.dtd">
<svg width="100%" height="100%" viewBox="0 0 3200 800" version="1.1" xmlns="http://www.w3.org/2000/svg" xmlns:xlink="http://www.w3.org/1999/xlink" xml:space="preserve" style="fill-rule:evenodd;clip-rule:evenodd;stroke-linecap:round;stroke-linejoin:round;stroke-miterlimit:1.41421;">
    <g>
        <g transform="matrix(1,0,0,1,2.71864,8.43777)">
            <path d="M61.849,56.13L732.714,726.995" style="fill:none;stroke:rgb(153,153,153);stroke-width:30px;"/>
        </g>
        <g transform="matrix(-1,0,0,1,797.281,8.43777)">
            <path d="M61.849,56.13L732.714,726.995" style="fill:none;stroke:rgb(153,153,153);stroke-width:30px;"/>
        </g>
    </g>
    <g transform="matrix(1,0,0,1,799.933,-0.00027)">
        <g transform="matrix(1,0,0,1,2.7855,8.43777)">
            <path d="M61.849,56.13L732.714,726.995" style="fill:none;stroke:black;stroke-width:30px;"/>
        </g>
        <g transform="matrix(-1,0,0,1,797.281,8.43777)">
            <path d="M61.849,56.13L732.714,726.995" style="fill:none;stroke:black;stroke-width:30px;"/>
        </g>
    </g>
    <g transform="matrix(1,0,0,1,1597.91,-0.00059)">
        <g transform="matrix(1,0,0,1,2.71832,8.43809)">
            <path d="M61.849,56.13L732.714,726.995" style="fill:none;stroke:rgb(61,186,33);stroke-width:30px;"/>
        </g>
        <g transform="matrix(-1,0,0,1,797.281,8.43809)">
            <path d="M61.849,56.13L732.714,726.995" style="fill:none;stroke:rgb(61,186,33);stroke-width:30px;"/>
        </g>
    </g>
    <g transform="matrix(1,0,0,1,2400,-0.00059)">
        <g transform="matrix(1,0,0,1,2.71832,8.43809)">
            <path d="M61.849,56.13L732.714,726.995" style="fill:none;stroke:white;stroke-width:30px;"/>
        </g>
        <g transform="matrix(-1,0,0,1,797.281,8.43809)">
            <path d="M61.849,56.13L732.714,726.995" style="fill:none;stroke:white;stroke-width:30px;"/>
        </g>
    </g>
</svg>
