<?xml version="1.0" standalone="no"?>
<!DOCTYPE svg PUBLIC "-//W3C//DTD SVG 1.1//EN" "http://www.w3.org/Graphics/SVG/1.1/DTD/svg11.dtd">
<svg width="100%" height="100%" viewBox="0 0 872 662" version="1.1" xmlns="http://www.w3.org/2000/svg" xmlns:xlink="http://www.w3.org/1999/xlink" xml:space="preserve" style="fill-rule:evenodd;clip-rule:evenodd;stroke-linejoin:round;stroke-miterlimit:1.41421;">
    <g transform="matrix(1,0,0,1,-152.23,-69.4242)">
        <g transform="matrix(0.739178,0,0,0.739178,-85.027,55.7413)">
            <path d="M610.27,163.39L771.701,256.592L771.701,442.996L610.27,536.199L448.839,442.996L448.839,256.592L610.27,163.39ZM610.27,219.79L722.856,284.792L722.856,414.796L610.27,479.798L497.683,414.796L497.683,284.792L610.27,219.79Z" style="fill:#e7745f;"/>
        </g>
        <g transform="matrix(0.739178,0,0,0.739178,-85.027,55.7413)">
            <g transform="matrix(1,0,0,1,-230.071,-204.123)">
                <path d="M864.503,281.936L864.503,389.543C864.503,402.879 853.676,413.706 840.341,413.706C827.005,413.706 816.178,402.879 816.178,389.543L816.178,281.936L864.503,281.936ZM816.178,267.718L816.178,246.797C816.178,233.461 827.005,222.634 840.341,222.634C853.676,222.634 864.503,233.461 864.503,246.797L864.503,267.718L816.178,267.718Z" style="fill:#e7745f;"/>
            </g>
            <g transform="matrix(0.5,-0.866025,0.866025,0.5,-288.766,800.405)">
                <path d="M864.503,281.936L864.503,389.543C864.503,402.879 853.676,413.706 840.341,413.706C827.005,413.706 816.178,402.879 816.178,389.543L816.178,281.936L864.503,281.936ZM816.178,267.718L816.178,246.797C816.178,233.461 827.005,222.634 840.341,222.634C853.676,222.634 864.503,233.461 864.503,246.797L864.503,267.718L816.178,267.718Z" style="fill:#e7745f;"/>
            </g>
            <g transform="matrix(-0.5,-0.866025,0.866025,-0.5,551.575,1354.15)">
                <path d="M864.503,281.936L864.503,389.543C864.503,402.879 853.676,413.706 840.341,413.706C827.005,413.706 816.178,402.879 816.178,389.543L816.178,281.936L864.503,281.936ZM816.178,267.718L816.178,246.797C816.178,233.461 827.005,222.634 840.341,222.634C853.676,222.634 864.503,233.461 864.503,246.797L864.503,267.718L816.178,267.718Z" style="fill:#e7745f;"/>
            </g>
            <g transform="matrix(-1,5.66554e-16,-5.66554e-16,-1,1450.06,912.011)">
                <path d="M864.503,281.936L864.503,389.543C864.503,402.879 853.676,413.706 840.341,413.706C827.005,413.706 816.178,402.879 816.178,389.543L816.178,281.936L864.503,281.936ZM816.178,267.718L816.178,246.797C816.178,233.461 827.005,222.634 840.341,222.634C853.676,222.634 864.503,233.461 864.503,246.797L864.503,267.718L816.178,267.718Z" style="fill:#e7745f;"/>
            </g>
            <g transform="matrix(0.5,0.866025,-0.866025,0.5,668.412,-646.263)">
                <path d="M864.503,281.936L864.503,389.543C864.503,402.879 853.676,413.706 840.341,413.706C827.005,413.706 816.178,402.879 816.178,389.543L816.178,281.936L864.503,281.936ZM816.178,267.718L816.178,246.797C816.178,233.461 827.005,222.634 840.341,222.634C853.676,222.634 864.503,233.461 864.503,246.797L864.503,267.718L816.178,267.718Z" style="fill:#e7745f;"/>
            </g>
        </g>
        <g transform="matrix(0.739178,0,0,0.739178,359.177,221.004)">
            <path d="M610.27,163.39L771.701,256.592L771.701,442.996L610.27,536.199L448.839,442.996L448.839,256.592L610.27,163.39ZM610.27,219.79L722.856,284.792L722.856,414.796L610.27,479.798L497.683,414.796L497.683,284.792L610.27,219.79Z" style="fill:#e7745f;"/>
        </g>
        <g transform="matrix(0.739178,0,0,0.739178,359.177,221.004)">
            <g transform="matrix(1,0,0,1,-230.071,-204.123)">
                <path d="M864.503,281.936L864.503,389.543C864.503,402.879 853.676,413.706 840.341,413.706C827.005,413.706 816.178,402.879 816.178,389.543L816.178,281.936L864.503,281.936ZM816.178,267.718L816.178,246.797C816.178,233.461 827.005,222.634 840.341,222.634C853.676,222.634 864.503,233.461 864.503,246.797L864.503,267.718L816.178,267.718Z" style="fill:#e7745f;"/>
            </g>
            <g transform="matrix(-0.5,-0.866025,0.866025,-0.5,551.575,1354.15)">
                <path d="M864.503,281.936L864.503,389.543C864.503,402.879 853.676,413.706 840.341,413.706C827.005,413.706 816.178,402.879 816.178,389.543L816.178,281.936L864.503,281.936ZM816.178,267.718L816.178,246.797C816.178,233.461 827.005,222.634 840.341,222.634C853.676,222.634 864.503,233.461 864.503,246.797L864.503,267.718L816.178,267.718Z" style="fill:#e7745f;"/>
            </g>
            <g transform="matrix(-1,5.66554e-16,-5.66554e-16,-1,1450.06,912.011)">
                <path d="M864.503,281.936L864.503,389.543C864.503,402.879 853.676,413.706 840.341,413.706C827.005,413.706 816.178,402.879 816.178,389.543L816.178,281.936L864.503,281.936ZM816.178,267.718L816.178,246.797C816.178,233.461 827.005,222.634 840.341,222.634C853.676,222.634 864.503,233.461 864.503,246.797L864.503,267.718L816.178,267.718Z" style="fill:#e7745f;"/>
            </g>
            <g transform="matrix(-0.5,0.866025,-0.866025,-0.5,1508.75,-92.5174)">
                <path d="M864.503,281.936L864.503,389.543C864.503,402.879 853.676,413.706 840.341,413.706C827.005,413.706 816.178,402.879 816.178,389.543L816.178,281.936L864.503,281.936ZM816.178,267.718L816.178,246.797C816.178,233.461 827.005,222.634 840.341,222.634C853.676,222.634 864.503,233.461 864.503,246.797L864.503,267.718L816.178,267.718Z" style="fill:#e7745f;"/>
            </g>
            <g transform="matrix(0.5,0.866025,-0.866025,0.5,668.412,-646.263)">
                <path d="M864.503,281.936L864.503,389.543C864.503,402.879 853.676,413.706 840.341,413.706C827.005,413.706 816.178,402.879 816.178,389.543L816.178,281.936L864.503,281.936ZM816.178,267.718L816.178,246.797C816.178,233.461 827.005,222.634 840.341,222.634C853.676,222.634 864.503,233.461 864.503,246.797L864.503,267.718L816.178,267.718Z" style="fill:#e7745f;"/>
            </g>
        </g>
        <g transform="matrix(0.739178,0,0,0.739178,145.693,69.4242)">
            <path d="M641.032,393.633C648.541,389.799 659.155,390.108 665.828,393.633L775.475,456.938C787.018,463.603 790.979,478.385 784.315,489.928C777.65,501.471 762.868,505.432 751.325,498.767L653.43,442.247L555.535,498.767C548.339,502.864 535.331,502.044 530.059,499L420.412,435.695C408.869,429.03 404.908,414.248 411.573,402.705C418.237,391.162 433.019,387.201 444.562,393.866L542.596,450.466L641.032,393.633Z" style="fill:#e7745f;"/>
        </g>
        <g transform="matrix(1,0,0,1,-8.87633,-21.717)">
            <path d="M555.748,431.748L555.893,431.75L556.037,431.752L556.181,431.755L556.325,431.759L556.469,431.764L556.613,431.77L556.756,431.777L556.899,431.785L557.042,431.794L557.184,431.803L557.326,431.813L557.469,431.825L557.61,431.837L557.752,431.85L557.893,431.864L558.175,431.894L558.316,431.911L558.456,431.928L558.596,431.946L558.735,431.966L558.875,431.986L559.014,432.006L559.153,432.028L559.292,432.051L559.43,432.074L559.568,432.098L559.706,432.123L559.843,432.149L559.98,432.176L560.254,432.232L560.39,432.261L560.526,432.291L560.661,432.322L560.797,432.354L560.932,432.387L561.066,432.42L561.201,432.454L561.335,432.489L561.469,432.525L561.602,432.561L561.868,432.637L562,432.676L562.264,432.756L562.526,432.84L562.657,432.883L562.787,432.926L563.047,433.016L563.176,433.062L563.305,433.109L563.433,433.156L563.817,433.303L563.944,433.354L564.07,433.405L564.196,433.457L564.322,433.51L564.448,433.564L564.573,433.618L564.697,433.673L564.822,433.729L564.946,433.785L565.069,433.843L565.192,433.9L565.315,433.959L565.559,434.079L565.68,434.139L565.922,434.263L566.042,434.326L566.162,434.39L566.281,434.454L566.4,434.519L566.518,434.585L566.754,434.719L566.871,434.787L566.987,434.855L567.104,434.924L567.219,434.994L567.335,435.065L567.449,435.136L567.564,435.208L567.678,435.28L567.791,435.354L567.904,435.427L568.017,435.502L568.129,435.577L568.24,435.653L568.462,435.807L568.572,435.885L568.681,435.963L568.79,436.042L568.899,436.122L569.007,436.202L569.115,436.283L569.222,436.365L569.328,436.447L569.435,436.53L569.75,436.782L569.854,436.868L570.06,437.04L570.163,437.127L570.265,437.215L570.467,437.393L570.567,437.482L570.667,437.572L570.865,437.754L570.963,437.846L571.061,437.939L571.158,438.032L571.254,438.125L571.445,438.314L571.54,438.41L571.728,438.602L571.821,438.699L571.914,438.797L572.006,438.895L572.188,439.093L572.278,439.193L572.367,439.293L572.545,439.495L572.632,439.597L572.72,439.7L572.892,439.906L572.978,440.01L573.23,440.325L573.313,440.431L573.477,440.645L573.558,440.753L573.718,440.969L573.797,441.079L573.875,441.188L573.953,441.298L574.107,441.52L574.183,441.631L574.258,441.743L574.48,442.082L574.624,442.31L574.695,442.425L574.766,442.541L574.836,442.656L574.905,442.772L575.041,443.006L575.175,443.242L575.241,443.36L575.306,443.479L575.37,443.598L575.434,443.718L575.497,443.838L575.559,443.959L575.681,444.201L575.801,444.445L575.975,444.814L576.087,445.062L576.142,445.187L576.196,445.312L576.25,445.438L576.303,445.563L576.355,445.69L576.406,445.816L576.456,445.943L576.506,446.071L576.555,446.198L576.604,446.327L576.651,446.455L576.698,446.584L576.744,446.713L576.834,446.973L576.877,447.103L576.92,447.234L577.004,447.496L577.084,447.76L577.123,447.892L577.199,448.158L577.235,448.291L577.271,448.425L577.306,448.559L577.34,448.693L577.406,448.963L577.438,449.098L577.469,449.234L577.499,449.37L577.528,449.506L577.584,449.78L577.611,449.917L577.637,450.054L577.662,450.192L577.686,450.33L577.709,450.468L577.732,450.607L577.774,450.885L577.794,451.024L577.832,451.304L577.849,451.444L577.866,451.585L577.896,451.867L577.91,452.008L577.923,452.15L577.935,452.291L577.946,452.433L577.957,452.576L577.966,452.718L577.975,452.861L577.983,453.004L577.989,453.147L577.995,453.291L578,453.435L578.005,453.578L578.008,453.723L578.01,453.867L578.012,454.156L578.012,506.318L578.011,506.463L578.01,506.607L578.008,506.752L578.005,506.896L578,507.04L577.995,507.184L577.989,507.327L577.983,507.47L577.975,507.613L577.966,507.756L577.957,507.899L577.946,508.041L577.935,508.183L577.923,508.325L577.91,508.466L577.896,508.608L577.881,508.749L577.866,508.89L577.849,509.03L577.832,509.17L577.813,509.31L577.794,509.45L577.774,509.589L577.753,509.729L577.732,509.867L577.709,510.006L577.686,510.144L577.662,510.282L577.637,510.42L577.611,510.558L577.584,510.695L577.556,510.832L577.528,510.968L577.499,511.104L577.469,511.24L577.438,511.376L577.406,511.511L577.373,511.646L577.34,511.781L577.306,511.915L577.271,512.049L577.235,512.183L577.199,512.317L577.161,512.45L577.123,512.582L577.084,512.715L577.044,512.847L577.004,512.978L576.962,513.11L576.92,513.241L576.877,513.371L576.834,513.502L576.789,513.632L576.744,513.761L576.698,513.891L576.651,514.019L576.604,514.148L576.555,514.276L576.506,514.404L576.456,514.531L576.406,514.658L576.355,514.785L576.303,514.911L576.25,515.037L576.196,515.162L576.142,515.287L576.087,515.412L576.031,515.536L575.975,515.66L575.917,515.784L575.859,515.907L575.801,516.029L575.741,516.152L575.681,516.273L575.62,516.395L575.559,516.516L575.497,516.636L575.434,516.756L575.37,516.876L575.306,516.995L575.241,517.114L575.175,517.233L575.108,517.351L575.041,517.468L574.973,517.585L574.905,517.702L574.836,517.818L574.766,517.934L574.695,518.049L574.624,518.164L574.552,518.278L574.48,518.392L574.406,518.506L574.332,518.619L574.258,518.731L574.183,518.843L574.107,518.955L574.03,519.066L573.953,519.176L573.875,519.286L573.797,519.396L573.718,519.505L573.638,519.614L573.558,519.722L573.477,519.829L573.395,519.936L573.313,520.043L573.23,520.149L573.146,520.255L573.062,520.36L572.978,520.464L572.892,520.568L572.806,520.672L572.72,520.775L572.632,520.877L572.545,520.979L572.456,521.081L572.367,521.181L572.278,521.282L572.188,521.382L572.097,521.481L572.006,521.58L571.914,521.678L571.821,521.775L571.728,521.872L571.634,521.969L571.54,522.065L571.445,522.16L571.35,522.255L571.254,522.349L571.158,522.443L571.061,522.536L570.963,522.628L570.865,522.72L570.766,522.811L570.667,522.902L570.567,522.992L570.467,523.082L570.366,523.171L570.265,523.259L570.163,523.347L570.06,523.434L569.957,523.521L569.854,523.607L569.75,523.692L569.645,523.777L569.54,523.861L569.435,523.944L569.328,524.027L569.222,524.11L569.115,524.191L569.007,524.272L568.899,524.353L568.79,524.432L568.681,524.511L568.572,524.59L568.462,524.668L568.351,524.745L568.24,524.821L568.129,524.897L568.017,524.972L567.904,525.047L567.791,525.121L567.678,525.194L567.564,525.267L567.449,525.339L567.335,525.41L567.219,525.48L567.104,525.55L566.987,525.619L566.871,525.688L566.754,525.756L566.636,525.823L566.518,525.889L566.4,525.955L566.281,526.02L566.162,526.084L566.042,526.148L565.922,526.211L565.801,526.273L565.68,526.335L565.559,526.396L565.437,526.456L565.315,526.515L565.192,526.574L565.069,526.632L564.946,526.689L564.822,526.746L564.697,526.801L564.573,526.856L564.448,526.911L564.322,526.964L564.196,527.017L564.07,527.069L563.944,527.12L563.817,527.171L563.689,527.221L563.561,527.27L563.433,527.318L563.305,527.366L563.176,527.412L563.047,527.458L562.917,527.504L562.787,527.548L562.657,527.592L562.526,527.635L562.395,527.677L562.264,527.718L562.132,527.759L562,527.799L561.868,527.838L561.735,527.876L561.602,527.913L561.469,527.95L561.335,527.985L561.201,528.02L561.066,528.055L560.932,528.088L560.797,528.12L560.661,528.152L560.526,528.183L560.39,528.213L560.254,528.242L560.117,528.271L559.98,528.298L559.843,528.325L559.706,528.351L559.568,528.376L559.43,528.4L559.292,528.424L559.153,528.446L559.014,528.468L558.875,528.489L558.735,528.509L558.596,528.528L558.456,528.546L558.316,528.564L558.175,528.58L558.034,528.596L557.893,528.611L557.752,528.625L557.61,528.638L557.469,528.65L557.326,528.661L557.184,528.671L557.042,528.681L556.899,528.689L556.756,528.697L556.613,528.704L556.469,528.71L556.325,528.715L556.181,528.719L556.037,528.722L555.893,528.725L555.748,528.726L555.603,528.726L555.459,528.726L555.314,528.725L555.17,528.722L555.025,528.719L554.881,528.715L554.738,528.71L554.594,528.704L554.451,528.697L554.308,528.689L554.165,528.681L554.023,528.671L553.88,528.661L553.738,528.65L553.596,528.638L553.455,528.625L553.314,528.611L553.173,528.596L553.032,528.58L552.891,528.564L552.751,528.546L552.611,528.528L552.471,528.509L552.332,528.489L552.193,528.468L552.054,528.446L551.915,528.424L551.777,528.4L551.639,528.376L551.501,528.351L551.364,528.325L551.227,528.298L551.09,528.271L550.953,528.242L550.817,528.213L550.681,528.183L550.545,528.152L550.41,528.12L550.275,528.088L550.14,528.055L550.006,528.02L549.872,527.985L549.738,527.95L549.605,527.913L549.472,527.876L549.339,527.838L549.207,527.799L549.075,527.759L548.943,527.718L548.812,527.677L548.681,527.635L548.55,527.592L548.42,527.548L548.29,527.504L548.16,527.458L548.031,527.412L547.902,527.366L547.773,527.318L547.645,527.27L547.518,527.221L547.39,527.171L547.263,527.12L547.137,527.069L547.01,527.017L546.885,526.964L546.759,526.911L546.634,526.856L546.509,526.801L546.385,526.746L546.261,526.689L546.138,526.632L546.015,526.574L545.892,526.515L545.77,526.456L545.648,526.396L545.527,526.335L545.406,526.273L545.285,526.211L545.165,526.148L545.045,526.084L544.926,526.02L544.807,525.955L544.689,525.889L544.571,525.823L544.453,525.756L544.336,525.688L544.219,525.619L544.103,525.55L543.987,525.48L543.872,525.41L543.757,525.339L543.643,525.267L543.529,525.194L543.416,525.121L543.303,525.047L543.19,524.972L543.078,524.897L542.967,524.821L542.856,524.745L542.745,524.668L542.635,524.59L542.525,524.511L542.416,524.432L542.308,524.353L542.2,524.272L542.092,524.191L541.985,524.11L541.878,524.027L541.772,523.944L541.667,523.861L541.562,523.777L541.457,523.692L541.353,523.607L541.249,523.521L541.146,523.434L541.044,523.347L540.942,523.259L540.841,523.171L540.74,523.082L540.64,522.992L540.54,522.902L540.441,522.811L540.342,522.72L540.244,522.628L540.146,522.536L540.049,522.443L539.953,522.349L539.857,522.255L539.761,522.16L539.667,522.065L539.572,521.969L539.479,521.872L539.386,521.775L539.293,521.678L539.201,521.58L539.11,521.481L539.019,521.382L538.929,521.282L538.839,521.181L538.75,521.081L538.662,520.979L538.574,520.877L538.487,520.775L538.401,520.672L538.315,520.568L538.229,520.464L538.145,520.36L538.06,520.255L537.977,520.149L537.894,520.043L537.812,519.936L537.73,519.829L537.649,519.722L537.569,519.614L537.489,519.505L537.41,519.396L537.331,519.286L537.254,519.176L537.177,519.066L537.1,518.955L537.024,518.843L536.949,518.731L536.874,518.619L536.8,518.506L536.727,518.392L536.655,518.278L536.583,518.164L536.512,518.049L536.441,517.934L536.371
,517.818L536.302,517.702L536.233,517.585L536.166,517.468L536.098,517.351L536.032,517.233L535.966,517.114L535.901,516.995L535.837,516.876L535.773,516.756L535.71,516.636L535.648,516.516L535.586,516.395L535.526,516.273L535.465,516.152L535.406,516.029L535.347,515.907L535.289,515.784L535.232,515.66L535.176,515.536L535.12,515.412L535.065,515.287L535.011,515.162L534.957,515.037L534.904,514.911L534.852,514.785L534.801,514.658L534.75,514.531L534.7,514.404L534.651,514.276L534.603,514.148L534.556,514.019L534.509,513.891L534.463,513.761L534.418,513.632L534.373,513.502L534.329,513.371L534.287,513.241L534.244,513.11L534.203,512.978L534.163,512.847L534.123,512.715L534.084,512.582L534.046,512.45L534.008,512.317L533.972,512.183L533.936,512.049L533.901,511.915L533.867,511.781L533.833,511.646L533.801,511.511L533.769,511.376L533.738,511.24L533.708,511.104L533.679,510.968L533.651,510.832L533.623,510.695L533.596,510.558L533.57,510.42L533.545,510.282L533.521,510.144L533.498,510.006L533.475,509.867L533.453,509.729L533.432,509.589L533.413,509.45L533.393,509.31L533.375,509.17L533.358,509.03L533.341,508.89L533.326,508.749L533.311,508.608L533.297,508.466L533.284,508.325L533.272,508.183L533.26,508.041L533.25,507.899L533.24,507.756L533.232,507.613L533.224,507.47L533.217,507.327L533.211,507.184L533.206,507.04L533.202,506.896L533.199,506.752L533.197,506.607L533.195,506.463L533.195,506.318L533.195,454.156L533.195,454.012L533.197,453.867L533.199,453.723L533.202,453.578L533.206,453.435L533.211,453.291L533.217,453.147L533.224,453.004L533.232,452.861L533.24,452.718L533.25,452.576L533.26,452.433L533.272,452.291L533.284,452.15L533.297,452.008L533.311,451.867L533.326,451.726L533.341,451.585L533.358,451.444L533.375,451.304L533.393,451.164L533.413,451.024L533.432,450.885L533.453,450.746L533.475,450.607L533.498,450.468L533.521,450.33L533.545,450.192L533.57,450.054L533.596,449.917L533.623,449.78L533.651,449.643L533.679,449.506L533.708,449.37L533.738,449.234L533.769,449.098L533.801,448.963L533.833,448.828L533.867,448.693L533.901,448.559L533.936,448.425L533.972,448.291L534.008,448.158L534.046,448.025L534.084,447.892L534.123,447.76L534.163,447.628L534.203,447.496L534.244,447.365L534.287,447.234L534.329,447.103L534.373,446.973L534.418,446.843L534.463,446.713L534.509,446.584L534.556,446.455L534.603,446.327L534.651,446.198L534.7,446.071L534.75,445.943L534.801,445.816L534.852,445.69L534.904,445.563L534.957,445.438L535.011,445.312L535.065,445.187L535.12,445.062L535.176,444.938L535.232,444.814L535.289,444.691L535.347,444.568L535.406,444.445L535.465,444.323L535.526,444.201L535.586,444.08L535.648,443.959L535.71,443.838L535.773,443.718L535.837,443.598L535.901,443.479L535.966,443.36L536.032,443.242L536.098,443.124L536.166,443.006L536.233,442.889L536.302,442.772L536.371,442.656L536.441,442.541L536.512,442.425L536.583,442.31L536.655,442.196L536.727,442.082L536.8,441.969L536.874,441.856L536.949,441.743L537.024,441.631L537.1,441.52L537.177,441.409L537.254,441.298L537.331,441.188L537.41,441.079L537.489,440.969L537.569,440.861L537.649,440.753L537.73,440.645L537.812,440.538L537.894,440.431L537.977,440.325L538.06,440.22L538.145,440.115L538.229,440.01L538.315,439.906L538.401,439.803L538.487,439.7L538.574,439.597L538.662,439.495L538.75,439.394L538.839,439.293L538.929,439.193L539.019,439.093L539.11,438.994L539.201,438.895L539.293,438.797L539.386,438.699L539.479,438.602L539.572,438.506L539.667,438.41L539.761,438.314L539.857,438.22L539.953,438.125L540.049,438.032L540.146,437.939L540.244,437.846L540.342,437.754L540.441,437.663L540.54,437.572L540.64,437.482L540.74,437.393L540.841,437.304L540.942,437.215L541.044,437.127L541.146,437.04L541.249,436.954L541.353,436.868L541.457,436.782L541.562,436.698L541.667,436.614L541.772,436.53L541.878,436.447L541.985,436.365L542.092,436.283L542.2,436.202L542.308,436.122L542.416,436.042L542.525,435.963L542.635,435.885L542.745,435.807L542.856,435.73L542.967,435.653L543.078,435.577L543.19,435.502L543.303,435.427L543.416,435.354L543.529,435.28L543.643,435.208L543.757,435.136L543.872,435.065L543.987,434.994L544.103,434.924L544.219,434.855L544.336,434.787L544.453,434.719L544.571,434.652L544.689,434.585L544.807,434.519L544.926,434.454L545.045,434.39L545.165,434.326L545.285,434.263L545.406,434.201L545.527,434.139L545.648,434.079L545.77,434.019L545.892,433.959L546.015,433.9L546.138,433.843L546.261,433.785L546.385,433.729L546.509,433.673L546.634,433.618L546.759,433.564L546.885,433.51L547.01,433.457L547.137,433.405L547.263,433.354L547.39,433.303L547.518,433.254L547.645,433.205L547.773,433.156L547.902,433.109L548.031,433.062L548.16,433.016L548.29,432.971L548.42,432.926L548.55,432.883L548.681,432.84L548.812,432.798L548.943,432.756L549.075,432.716L549.207,432.676L549.339,432.637L549.472,432.599L549.605,432.561L549.738,432.525L549.872,432.489L550.006,432.454L550.14,432.42L550.275,432.387L550.41,432.354L550.545,432.322L550.681,432.291L550.817,432.261L550.953,432.232L551.09,432.204L551.227,432.176L551.364,432.149L551.501,432.123L551.639,432.098L551.777,432.074L551.915,432.051L552.054,432.028L552.193,432.006L552.332,431.986L552.471,431.966L552.611,431.946L552.751,431.928L552.891,431.911L553.032,431.894L553.173,431.879L553.314,431.864L553.455,431.85L553.596,431.837L553.738,431.825L553.88,431.813L554.023,431.803L554.165,431.794L554.308,431.785L554.451,431.777L554.594,431.77L554.738,431.764L554.881,431.759L555.025,431.755L555.17,431.752L555.314,431.75L555.459,431.748L555.748,431.748ZM555.521,441.748L555.44,441.749L555.36,441.75L555.279,441.752L555.199,441.754L555.119,441.757L555.038,441.761L554.957,441.764L554.878,441.769L554.8,441.773L554.719,441.779L554.639,441.785L554.56,441.791L554.483,441.797L554.404,441.805L554.324,441.813L554.247,441.821L554.169,441.829L554.091,441.839L554.014,441.848L553.936,441.858L553.858,441.869L553.782,441.88L553.705,441.891L553.627,441.904L553.552,441.916L553.476,441.929L553.399,441.942L553.323,441.956L553.247,441.97L553.171,441.985L553.097,442L553.022,442.016L552.945,442.032L552.871,442.049L552.797,442.066L552.722,442.083L552.648,442.101L552.574,442.119L552.5,442.138L552.426,442.157L552.353,442.177L552.28,442.197L552.206,442.218L552.133,442.239L552.061,442.26L551.988,442.282L551.915,442.304L551.844,442.327L551.77,442.35L551.698,442.374L551.628,442.398L551.556,442.422L551.484,442.447L551.414,442.472L551.343,442.498L551.272,442.524L551.202,442.551L551.132,442.578L551.061,442.605L550.99,442.634L550.921,442.661L550.852,442.69L550.781,442.72L550.713,442.749L550.645,442.779L550.574,442.81L550.507,442.84L550.439,442.871L550.37,442.903L550.303,442.934L550.235,442.967L550.168,443L550.101,443.032L550.033,443.066L549.966,443.101L549.901,443.134L549.833,443.17L549.767,443.205L549.702,443.24L549.635,443.277L549.57,443.313L549.506,443.349L549.44,443.387L549.375,443.424L549.31,443.462L549.246,443.501L549.182,443.539L549.118,443.578L549.054,443.618L548.991,443.658L548.927,443.698L548.865,443.738L548.803,443.779L548.74,443.821L548.678,443.863L548.616,443.905L548.554,443.947L548.492,443.99L548.431,444.033L548.371,444.077L548.309,444.121L548.25,444.165L548.19,444.209L548.13,444.255L548.07,444.3L548.011,444.346L547.953,444.392L547.893,444.439L547.834,444.486L547.777,444.532L547.719,444.58L547.661,444.628L547.604,444.676L547.547,444.724L547.49,444.774L547.434,444.822L547.378,444.872L547.322,444.922L547.265,444.973L547.21,445.023L547.156,445.073L547.101,445.125L547.047,445.176L546.993,445.228L546.939,445.28L546.886,445.332L546.832,445.386L546.779,445.439L546.727,445.492L546.675,445.545L546.624,445.599L546.571,445.655L546.521,445.709L546.47,445.763L546.419,445.819L546.369,445.875L546.319,445.93L546.269,445.987L546.22,446.043L546.172,446.099L546.123,446.157L546.075,446.214L546.027,446.271L545.979,446.33L545.932,446.389L545.885,446.447L545.839,446.505L545.793,446.564L545.747,446.623L545.702,446.683L545.657,446.743L545.612,446.803L545.567,446.863L545.524,446.924L545.48,446.985L545.437,447.046L545.395,447.107L545.352,447.168L545.31,447.231L545.268,447.293L545.226,447.356L545.185,447.418L545.144,447.482L545.105,447.544L545.065,447.607L545.025,447.672L544.986,447.735L544.947,447.799L544.909,447.863L544.871,447.928L544.833,447.993L544.796,448.059L544.76,448.123L544.724,448.188L544.688,448.254L544.652,448.321L544.616,448.387L544.582,448.453L544.547,448.52L544.514,448.586L544.48,448.653L544.446,448.721L544.414,448.789L544.381,448.856L544.349,448.924L544.318,448.992L544.287,449.06L544.256,449.129L544.226,449.198L544.196,449.266L544.166,449.336L544.137,449.404L544.108,449.475L544.08,449.545L544.052,449.614L544.025,449.684L543.998,449.754L543.972,449.824L543.945,449.895L543.919,449.967L543.894,450.037L543.869,450.11L543.845,450.181L543.82,450.253L543.797,450.324L543.774,450.396L543.751,450.469L543.729,450.54L543.707,450.613L543.685,450.687L543.665,450.759L543.644,450.832L543.624,450.906L543.604,450.979L543.585,451.053L543.566,451.127L543.548,451.201L543.53,451.275L543.512,451.35L543.495,451.425L543.479,451.5L543.463,451.574L543.447,451.649L543.432,451.726L543.417,451.801L543.403,451.876L543.389,451.953L543.376,452.028L543.363,452.104L543.35,452.182L543.338,452.258L543.327,452.335L543.316,452.411L543.305,452.489L543.295,452.567L543.286,452.643L543.276,452.722L543.268,452.8L543.259,452.878L543.252,452.957L543.245,453.035L543.238,453.115L543.231,453.193L543.226,453.272L543.22,453.352L543.216,453.43L543.211,453.51L543.207,453.592L543.204,453.672L543.201,453.751L543.199,453.832L543.197,453.913L543.196,453.994L543.195,454.076L543.195,506.399L543.197,506.561L543.201,506.724L543.207,506.882L543.211,506.964L543.216,507.044L543.22,507.123L543.226,507.202L543.231,507.281L543.245,507.439L543.252,507.517L543.259,507.596L543.268,507.674L543.276,507.752L543.286,507.831L543.295,507.907L543.305,507.985L543.316,508.063L543.327,508.139L543.338,508.216L543.35,508.293L543.363,508.37L543.389,508.522L543.403,508.598L543.417,508.673L543.447,508.825L543.463,508.901L543.495,509.049L543.512,509.124L543.53,509.199L543.548,509.273L543.566,509.348L543.585,509.421L543.604,509.496L543.644,509.642L543.665
,509.716L543.685,509.788L543.729,509.934L543.751,510.006L543.774,510.079L543.797,510.15L543.82,510.222L543.845,510.294L543.869,510.365L543.894,510.437L543.919,510.507L543.945,510.579L543.972,510.651L543.998,510.72L544.052,510.86L544.108,511L544.137,511.07L544.166,511.139L544.226,511.277L544.256,511.345L544.287,511.415L544.318,511.483L544.349,511.55L544.381,511.619L544.414,511.686L544.446,511.753L544.48,511.822L544.514,511.889L544.547,511.955L544.582,512.022L544.616,512.087L544.688,512.221L544.796,512.416L544.833,512.481L544.871,512.547L544.947,512.675L545.025,512.803L545.105,512.931L545.144,512.993L545.226,513.119L545.268,513.182L545.352,513.306L545.395,513.368L545.437,513.428L545.48,513.489L545.524,513.551L545.567,513.611L545.612,513.671L545.657,513.732L545.702,513.792L545.747,513.851L545.793,513.911L545.839,513.97L545.885,514.027L545.932,514.086L545.98,514.145L546.027,514.203L546.075,514.26L546.123,514.318L546.171,514.374L546.22,514.431L546.269,514.487L546.319,514.544L546.369,514.6L546.42,514.656L546.47,514.711L546.52,514.765L546.571,514.82L546.624,514.875L546.675,514.929L546.779,515.035L546.939,515.195L546.993,515.247L547.048,515.299L547.101,515.35L547.156,515.401L547.21,515.451L547.265,515.502L547.322,515.552L547.378,515.603L547.49,515.701L547.547,515.75L547.661,515.846L547.719,515.895L547.893,516.036L548.07,516.174L548.13,516.22L548.25,516.31L548.309,516.353L548.371,516.398L548.431,516.441L548.492,516.484L548.616,516.57L548.678,516.612L548.74,516.653L548.803,516.695L548.865,516.736L548.927,516.776L548.991,516.817L549.054,516.856L549.118,516.896L549.246,516.974L549.311,517.013L549.439,517.087L549.506,517.125L549.57,517.162L549.635,517.198L549.702,517.234L549.768,517.27L549.833,517.305L549.9,517.339L549.966,517.374L550.033,517.408L550.101,517.442L550.235,517.508L550.303,517.54L550.37,517.572L550.439,517.603L550.507,517.635L550.574,517.665L550.645,517.696L550.713,517.726L550.781,517.755L550.852,517.785L550.923,517.813L550.99,517.841L551.06,517.869L551.132,517.897L551.202,517.924L551.272,517.95L551.414,518.002L551.484,518.027L551.628,518.077L551.699,518.101L551.77,518.124L551.843,518.147L551.915,518.17L551.988,518.192L552.061,518.215L552.133,518.236L552.206,518.257L552.28,518.278L552.353,518.297L552.426,518.317L552.574,518.355L552.722,518.391L552.797,518.409L552.872,518.426L552.946,518.442L553.096,518.474L553.171,518.489L553.247,518.504L553.399,518.532L553.476,518.546L553.552,518.559L553.629,518.571L553.705,518.583L553.781,518.594L553.858,518.605L553.936,518.616L554.014,518.626L554.091,518.636L554.247,518.654L554.325,518.662L554.404,518.67L554.56,518.684L554.64,518.69L554.719,518.696L554.799,518.701L554.878,518.706L554.957,518.71L555.038,518.714L555.119,518.717L555.199,518.72L555.36,518.724L555.44,518.725L555.523,518.726L555.684,518.726L555.767,518.725L555.847,518.724L555.928,518.722L556.008,518.72L556.088,518.717L556.169,518.714L556.25,518.71L556.328,518.706L556.408,518.701L556.488,518.696L556.567,518.69L556.647,518.684L556.725,518.677L556.802,518.67L556.881,518.662L556.96,518.654L557.038,518.645L557.115,518.636L557.193,518.626L557.271,518.616L557.349,518.605L557.426,518.594L557.502,518.583L557.578,518.571L557.655,518.559L557.73,518.546L557.807,518.532L557.884,518.518L557.96,518.504L558.035,518.489L558.111,518.474L558.186,518.458L558.26,518.442L558.335,518.426L558.41,518.409L558.484,518.391L558.559,518.373L558.633,518.355L558.706,518.336L558.781,518.317L558.854,518.297L558.926,518.278L559.001,518.257L559.074,518.236L559.146,518.215L559.22,518.192L559.291,518.17L559.364,518.147L559.437,518.124L559.507,518.101L559.579,518.077L559.65,518.052L559.723,518.027L559.793,518.002L559.863,517.977L559.935,517.95L560.006,517.923L560.076,517.896L560.146,517.869L560.217,517.841L560.285,517.813L560.354,517.785L560.426,517.755L560.493,517.726L560.562,517.696L560.632,517.665L560.699,517.635L560.768,517.603L560.837,517.572L560.904,517.54L560.971,517.508L561.039,517.475L561.106,517.442L561.174,517.408L561.24,517.374L561.307,517.339L561.374,517.304L561.439,517.27L561.505,517.234L561.572,517.198L561.637,517.162L561.702,517.125L561.768,517.087L561.832,517.05L561.896,517.013L561.961,516.974L562.025,516.935L562.088,516.896L562.152,516.857L562.216,516.817L562.28,516.776L562.342,516.736L562.404,516.695L562.467,516.653L562.529,516.612L562.591,516.57L562.652,516.527L562.714,516.485L562.775,516.441L562.836,516.398L562.897,516.353L562.957,516.309L563.017,516.265L563.077,516.22L563.136,516.174L563.196,516.128L563.255,516.082L563.313,516.036L563.371,515.99L563.43,515.942L563.488,515.894L563.546,515.846L563.603,515.798L563.661,515.749L563.717,515.701L563.773,515.652L563.83,515.602L563.885,515.552L563.941,515.502L563.996,515.452L564.051,515.401L564.106,515.35L564.16,515.298L564.214,515.247L564.267,515.195L564.321,515.142L564.374,515.089L564.427,515.036L564.48,514.982L564.532,514.928L564.583,514.875L564.636,514.82L564.687,514.765L564.737,514.711L564.788,514.655L564.838,514.6L564.888,514.544L564.937,514.488L564.986,514.432L565.036,514.374L565.085,514.317L565.132,514.26L565.18,514.203L565.227,514.145L565.275,514.087L565.322,514.027L565.368,513.97L565.414,513.911L565.46,513.85L565.505,513.792L565.549,513.733L565.594,513.672L565.639,513.611L565.683,513.551L565.727,513.489L565.77,513.428L565.812,513.368L565.855,513.305L565.897,513.244L565.939,513.182L565.981,513.119L566.022,513.056L566.062,512.994L566.102,512.931L566.142,512.867L566.182,512.803L566.221,512.739L566.259,512.675L566.298,512.611L566.335,512.547L566.373,512.481L566.41,512.417L566.447,512.351L566.484,512.285L566.52,512.22L566.555,512.155L566.59,512.088L566.625,512.021L566.659,511.955L566.693,511.889L566.727,511.821L566.761,511.753L566.793,511.686L566.825,511.62L566.857,511.551L566.889,511.483L566.92,511.413L566.951,511.345L566.981,511.278L567.011,511.208L567.041,511.139L567.07,511.069L567.098,511L567.126,510.931L567.155,510.86L567.182,510.79L567.209,510.72L567.236,510.649L567.262,510.578L567.288,510.507L567.313,510.437L567.338,510.365L567.362,510.294L567.386,510.223L567.409,510.151L567.433,510.077L567.456,510.006L567.478,509.934L567.5,509.861L567.521,509.789L567.542,509.714L567.563,509.642L567.583,509.569L567.603,509.494L567.622,509.421L567.641,509.348L567.659,509.273L567.677,509.199L567.694,509.126L567.711,509.05L567.728,508.975L567.744,508.899L567.76,508.824L567.775,508.75L567.789,508.674L567.804,508.598L567.818,508.522L567.831,508.445L567.844,508.369L567.856,508.294L567.868,508.218L567.88,508.139L567.891,508.062L567.902,507.985L567.912,507.908L567.921,507.83L567.93,507.752L567.939,507.674L567.947,507.596L567.955,507.517L567.962,507.439L567.969,507.361L567.975,507.281L567.981,507.202L567.986,507.123L567.991,507.043L567.996,506.963L567.999,506.884L568.003,506.803L568.005,506.723L568.008,506.644L568.009,506.561L568.011,506.48L568.012,506.4L568.012,506.302L568.012,454.172L568.012,454.075L568.011,453.994L568.009,453.913L568.008,453.831L568.005,453.752L568.003,453.672L567.999,453.591L567.996,453.512L567.991,453.431L567.986,453.352L567.981,453.272L567.975,453.193L567.969,453.113L567.962,453.035L567.955,452.957L567.947,452.878L567.939,452.8L567.93,452.722L567.921,452.645L567.912,452.566L567.902,452.489L567.891,452.413L567.88,452.335L567.868,452.257L567.856,452.18L567.844,452.105L567.831,452.029L567.818,451.953L567.804,451.876L567.789,451.8L567.775,451.724L567.76,451.65L567.744,451.575L567.728,451.5L567.711,451.424L567.694,451.349L567.677,451.275L567.659,451.201L567.641,451.127L567.622,451.053L567.603,450.98L567.583,450.906L567.563,450.832L567.542,450.76L567.521,450.686L567.5,450.613L567.478,450.54L567.456,450.469L567.433,450.397L567.409,450.323L567.386,450.252L567.362,450.181L567.338,450.11L567.313,450.037L567.287,449.967L567.262,449.897L567.236,449.825L567.209,449.754L567.182,449.684L567.155,449.614L567.126,449.543L567.098,449.475L567.07,449.405L567.041,449.336L567.011,449.266L566.981,449.196L566.951,449.129L566.92,449.061L566.889,448.992L566.857,448.923L566.825,448.855L566.793,448.789L566.761,448.721L566.727,448.654L566.693,448.586L566.66,448.52L566.625,448.454L566.59,448.386L566.555,448.32L566.52,448.255L566.484,448.189L566.447,448.123L566.41,448.058L566.373,447.993L566.335,447.928L566.298,447.863L566.259,447.799L566.221,447.735L566.182,447.672L566.142,447.607L566.102,447.544L566.062,447.481L566.022,447.418L565.981,447.356L565.939,447.293L565.897,447.231L565.855,447.169L565.813,447.108L565.77,447.046L565.727,446.985L565.683,446.924L565.639,446.863L565.594,446.802L565.549,446.742L565.505,446.683L565.46,446.624L565.414,446.564L565.368,446.505L565.322,446.447L565.275,446.388L565.228,446.33L565.18,446.271L565.132,446.214L565.085,446.158L565.036,446.1L564.986,446.043L564.937,445.986L564.888,445.93L564.838,445.875L564.789,445.82L564.737,445.763L564.686,445.709L564.636,445.655L564.583,445.599L564.532,445.546L564.48,445.492L564.427,445.438L564.374,445.386L564.321,445.333L564.267,445.28L564.214,445.228L564.161,445.177L564.106,445.125L564.05,445.073L563.996,445.022L563.941,444.972L563.885,444.922L563.83,444.872L563.773,444.822L563.717,444.773L563.661,444.725L563.603,444.676L563.546,444.628L563.488,444.58L563.43,444.532L563.372,444.485L563.313,444.438L563.254,444.392L563.196,444.346L563.136,444.3L563.077,444.255L563.017,444.21L562.957,444.165L562.897,444.121L562.836,444.077L562.775,444.033L562.714,443.99L562.652,443.947L562.591,443.905L562.529,443.863L562.467,443.821L562.404,443.779L562.342,443.738L562.28,443.698L562.216,443.658L562.152,443.618L562.088,443.578L562.025,443.539L561.961,443.501L561.897,443.462L561.832,443.424L561.767,443.387L561.702,443.349L561.637,443.313L561.572,443.277L561.505,443.24L561.44,443.205L561.374,443.17L561.306,443.134L561.24,443.1L561.174,443.067L561.106,443.033L561.039,443L560.971,442.967L560.904,442.934L560.837,442.903L560.768,442.871L560.699,442.839L560.632,442.809L560.562,442.779L560.493,442.749L560.426,442.72L560.354,442.69L560.286,442.662L560.217,442.634L560.145,442.605L560.076,442.578L560.006,442.551L559.935,442.524L559.863,442.498L559.793,442.472L559.723,442.447L559.65
,442.422L559.579,442.398L559.509,442.374L559.437,442.35L559.362,442.327L559.291,442.304L559.22,442.282L559.146,442.26L559.074,442.239L559.001,442.218L558.926,442.197L558.854,442.177L558.781,442.157L558.706,442.138L558.633,442.119L558.559,442.101L558.484,442.083L558.41,442.065L558.336,442.049L558.262,442.032L558.184,442.016L558.11,442L558.035,441.985L557.96,441.97L557.884,441.956L557.807,441.942L557.73,441.929L557.655,441.916L557.58,441.904L557.502,441.891L557.425,441.88L557.349,441.869L557.271,441.858L557.193,441.848L557.115,441.839L557.038,441.829L556.96,441.821L556.883,441.813L556.802,441.805L556.723,441.797L556.647,441.791L556.568,441.785L556.488,441.779L556.407,441.773L556.328,441.769L556.25,441.764L556.169,441.761L556.088,441.757L556.008,441.754L555.928,441.752L555.847,441.75L555.767,441.749L555.685,441.748L555.603,441.748L555.521,441.748Z" style="fill:#e7745f;"/>
        </g>
        <g transform="matrix(1,0,0,1,72.7342,-138.46)">
            <path d="M555.748,431.748L555.893,431.75L556.037,431.752L556.181,431.755L556.325,431.759L556.469,431.764L556.613,431.77L556.756,431.777L556.899,431.785L557.042,431.794L557.184,431.803L557.326,431.813L557.469,431.825L557.61,431.837L557.752,431.85L557.893,431.864L558.175,431.894L558.316,431.911L558.456,431.928L558.596,431.946L558.735,431.966L558.875,431.986L559.014,432.006L559.153,432.028L559.292,432.051L559.43,432.074L559.568,432.098L559.706,432.123L559.843,432.149L559.98,432.176L560.254,432.232L560.39,432.261L560.526,432.291L560.661,432.322L560.797,432.354L560.932,432.387L561.066,432.42L561.201,432.454L561.335,432.489L561.469,432.525L561.602,432.561L561.868,432.637L562,432.676L562.264,432.756L562.526,432.84L562.657,432.883L562.787,432.926L563.047,433.016L563.176,433.062L563.305,433.109L563.433,433.156L563.817,433.303L563.944,433.354L564.07,433.405L564.196,433.457L564.322,433.51L564.448,433.564L564.573,433.618L564.697,433.673L564.822,433.729L564.946,433.785L565.069,433.843L565.192,433.9L565.315,433.959L565.559,434.079L565.68,434.139L565.922,434.263L566.042,434.326L566.162,434.39L566.281,434.454L566.4,434.519L566.518,434.585L566.754,434.719L566.871,434.787L566.987,434.855L567.104,434.924L567.219,434.994L567.335,435.065L567.449,435.136L567.564,435.208L567.678,435.28L567.791,435.354L567.904,435.427L568.017,435.502L568.129,435.577L568.24,435.653L568.462,435.807L568.572,435.885L568.681,435.963L568.79,436.042L568.899,436.122L569.007,436.202L569.115,436.283L569.222,436.365L569.328,436.447L569.435,436.53L569.75,436.782L569.854,436.868L570.06,437.04L570.163,437.127L570.265,437.215L570.467,437.393L570.567,437.482L570.667,437.572L570.865,437.754L570.963,437.846L571.061,437.939L571.158,438.032L571.254,438.125L571.445,438.314L571.54,438.41L571.728,438.602L571.821,438.699L571.914,438.797L572.006,438.895L572.188,439.093L572.278,439.193L572.367,439.293L572.545,439.495L572.632,439.597L572.72,439.7L572.892,439.906L572.978,440.01L573.23,440.325L573.313,440.431L573.477,440.645L573.558,440.753L573.718,440.969L573.797,441.079L573.875,441.188L573.953,441.298L574.107,441.52L574.183,441.631L574.258,441.743L574.48,442.082L574.624,442.31L574.695,442.425L574.766,442.541L574.836,442.656L574.905,442.772L575.041,443.006L575.175,443.242L575.241,443.36L575.306,443.479L575.37,443.598L575.434,443.718L575.497,443.838L575.559,443.959L575.681,444.201L575.801,444.445L575.975,444.814L576.087,445.062L576.142,445.187L576.196,445.312L576.25,445.438L576.303,445.563L576.355,445.69L576.406,445.816L576.456,445.943L576.506,446.071L576.555,446.198L576.604,446.327L576.651,446.455L576.698,446.584L576.744,446.713L576.834,446.973L576.877,447.103L576.92,447.234L577.004,447.496L577.084,447.76L577.123,447.892L577.199,448.158L577.235,448.291L577.271,448.425L577.306,448.559L577.34,448.693L577.406,448.963L577.438,449.098L577.469,449.234L577.499,449.37L577.528,449.506L577.584,449.78L577.611,449.917L577.637,450.054L577.662,450.192L577.686,450.33L577.709,450.468L577.732,450.607L577.774,450.885L577.794,451.024L577.832,451.304L577.849,451.444L577.866,451.585L577.896,451.867L577.91,452.008L577.923,452.15L577.935,452.291L577.946,452.433L577.957,452.576L577.966,452.718L577.975,452.861L577.983,453.004L577.989,453.147L577.995,453.291L578,453.435L578.005,453.578L578.008,453.723L578.01,453.867L578.012,454.156L578.012,506.318L578.011,506.463L578.01,506.607L578.008,506.752L578.005,506.896L578,507.04L577.995,507.184L577.989,507.327L577.983,507.47L577.975,507.613L577.966,507.756L577.957,507.899L577.946,508.041L577.935,508.183L577.923,508.325L577.91,508.466L577.896,508.608L577.881,508.749L577.866,508.89L577.849,509.03L577.832,509.17L577.813,509.31L577.794,509.45L577.774,509.589L577.753,509.729L577.732,509.867L577.709,510.006L577.686,510.144L577.662,510.282L577.637,510.42L577.611,510.558L577.584,510.695L577.556,510.832L577.528,510.968L577.499,511.104L577.469,511.24L577.438,511.376L577.406,511.511L577.373,511.646L577.34,511.781L577.306,511.915L577.271,512.049L577.235,512.183L577.199,512.317L577.161,512.45L577.123,512.582L577.084,512.715L577.044,512.847L577.004,512.978L576.962,513.11L576.92,513.241L576.877,513.371L576.834,513.502L576.789,513.632L576.744,513.761L576.698,513.891L576.651,514.019L576.604,514.148L576.555,514.276L576.506,514.404L576.456,514.531L576.406,514.658L576.355,514.785L576.303,514.911L576.25,515.037L576.196,515.162L576.142,515.287L576.087,515.412L576.031,515.536L575.975,515.66L575.917,515.784L575.859,515.907L575.801,516.029L575.741,516.152L575.681,516.273L575.62,516.395L575.559,516.516L575.497,516.636L575.434,516.756L575.37,516.876L575.306,516.995L575.241,517.114L575.175,517.233L575.108,517.351L575.041,517.468L574.973,517.585L574.905,517.702L574.836,517.818L574.766,517.934L574.695,518.049L574.624,518.164L574.552,518.278L574.48,518.392L574.406,518.506L574.332,518.619L574.258,518.731L574.183,518.843L574.107,518.955L574.03,519.066L573.953,519.176L573.875,519.286L573.797,519.396L573.718,519.505L573.638,519.614L573.558,519.722L573.477,519.829L573.395,519.936L573.313,520.043L573.23,520.149L573.146,520.255L573.062,520.36L572.978,520.464L572.892,520.568L572.806,520.672L572.72,520.775L572.632,520.877L572.545,520.979L572.456,521.081L572.367,521.181L572.278,521.282L572.188,521.382L572.097,521.481L572.006,521.58L571.914,521.678L571.821,521.775L571.728,521.872L571.634,521.969L571.54,522.065L571.445,522.16L571.35,522.255L571.254,522.349L571.158,522.443L571.061,522.536L570.963,522.628L570.865,522.72L570.766,522.811L570.667,522.902L570.567,522.992L570.467,523.082L570.366,523.171L570.265,523.259L570.163,523.347L570.06,523.434L569.957,523.521L569.854,523.607L569.75,523.692L569.645,523.777L569.54,523.861L569.435,523.944L569.328,524.027L569.222,524.11L569.115,524.191L569.007,524.272L568.899,524.353L568.79,524.432L568.681,524.511L568.572,524.59L568.462,524.668L568.351,524.745L568.24,524.821L568.129,524.897L568.017,524.972L567.904,525.047L567.791,525.121L567.678,525.194L567.564,525.267L567.449,525.339L567.335,525.41L567.219,525.48L567.104,525.55L566.987,525.619L566.871,525.688L566.754,525.756L566.636,525.823L566.518,525.889L566.4,525.955L566.281,526.02L566.162,526.084L566.042,526.148L565.922,526.211L565.801,526.273L565.68,526.335L565.559,526.396L565.437,526.456L565.315,526.515L565.192,526.574L565.069,526.632L564.946,526.689L564.822,526.746L564.697,526.801L564.573,526.856L564.448,526.911L564.322,526.964L564.196,527.017L564.07,527.069L563.944,527.12L563.817,527.171L563.689,527.221L563.561,527.27L563.433,527.318L563.305,527.366L563.176,527.412L563.047,527.458L562.917,527.504L562.787,527.548L562.657,527.592L562.526,527.635L562.395,527.677L562.264,527.718L562.132,527.759L562,527.799L561.868,527.838L561.735,527.876L561.602,527.913L561.469,527.95L561.335,527.985L561.201,528.02L561.066,528.055L560.932,528.088L560.797,528.12L560.661,528.152L560.526,528.183L560.39,528.213L560.254,528.242L560.117,528.271L559.98,528.298L559.843,528.325L559.706,528.351L559.568,528.376L559.43,528.4L559.292,528.424L559.153,528.446L559.014,528.468L558.875,528.489L558.735,528.509L558.596,528.528L558.456,528.546L558.316,528.564L558.175,528.58L558.034,528.596L557.893,528.611L557.752,528.625L557.61,528.638L557.469,528.65L557.326,528.661L557.184,528.671L557.042,528.681L556.899,528.689L556.756,528.697L556.613,528.704L556.469,528.71L556.325,528.715L556.181,528.719L556.037,528.722L555.893,528.725L555.748,528.726L555.603,528.726L555.459,528.726L555.314,528.725L555.17,528.722L555.025,528.719L554.881,528.715L554.738,528.71L554.594,528.704L554.451,528.697L554.308,528.689L554.165,528.681L554.023,528.671L553.88,528.661L553.738,528.65L553.596,528.638L553.455,528.625L553.314,528.611L553.173,528.596L553.032,528.58L552.891,528.564L552.751,528.546L552.611,528.528L552.471,528.509L552.332,528.489L552.193,528.468L552.054,528.446L551.915,528.424L551.777,528.4L551.639,528.376L551.501,528.351L551.364,528.325L551.227,528.298L551.09,528.271L550.953,528.242L550.817,528.213L550.681,528.183L550.545,528.152L550.41,528.12L550.275,528.088L550.14,528.055L550.006,528.02L549.872,527.985L549.738,527.95L549.605,527.913L549.472,527.876L549.339,527.838L549.207,527.799L549.075,527.759L548.943,527.718L548.812,527.677L548.681,527.635L548.55,527.592L548.42,527.548L548.29,527.504L548.16,527.458L548.031,527.412L547.902,527.366L547.773,527.318L547.645,527.27L547.518,527.221L547.39,527.171L547.263,527.12L547.137,527.069L547.01,527.017L546.885,526.964L546.759,526.911L546.634,526.856L546.509,526.801L546.385,526.746L546.261,526.689L546.138,526.632L546.015,526.574L545.892,526.515L545.77,526.456L545.648,526.396L545.527,526.335L545.406,526.273L545.285,526.211L545.165,526.148L545.045,526.084L544.926,526.02L544.807,525.955L544.689,525.889L544.571,525.823L544.453,525.756L544.336,525.688L544.219,525.619L544.103,525.55L543.987,525.48L543.872,525.41L543.757,525.339L543.643,525.267L543.529,525.194L543.416,525.121L543.303,525.047L543.19,524.972L543.078,524.897L542.967,524.821L542.856,524.745L542.745,524.668L542.635,524.59L542.525,524.511L542.416,524.432L542.308,524.353L542.2,524.272L542.092,524.191L541.985,524.11L541.878,524.027L541.772,523.944L541.667,523.861L541.562,523.777L541.457,523.692L541.353,523.607L541.249,523.521L541.146,523.434L541.044,523.347L540.942,523.259L540.841,523.171L540.74,523.082L540.64,522.992L540.54,522.902L540.441,522.811L540.342,522.72L540.244,522.628L540.146,522.536L540.049,522.443L539.953,522.349L539.857,522.255L539.761,522.16L539.667,522.065L539.572,521.969L539.479,521.872L539.386,521.775L539.293,521.678L539.201,521.58L539.11,521.481L539.019,521.382L538.929,521.282L538.839,521.181L538.75,521.081L538.662,520.979L538.574,520.877L538.487,520.775L538.401,520.672L538.315,520.568L538.229,520.464L538.145,520.36L538.06,520.255L537.977,520.149L537.894,520.043L537.812,519.936L537.73,519.829L537.649,519.722L537.569,519.614L537.489,519.505L537.41,519.396L537.331,519.286L537.254,519.176L537.177,519.066L537.1,518.955L537.024,518.843L536.949,518.731L536.874,518.619L536.8,518.506L536.727,518.392L536.655,518.278L536.583,518.164L536.512,518.049L536.441,517.934L536.371
,517.818L536.302,517.702L536.233,517.585L536.166,517.468L536.098,517.351L536.032,517.233L535.966,517.114L535.901,516.995L535.837,516.876L535.773,516.756L535.71,516.636L535.648,516.516L535.586,516.395L535.526,516.273L535.465,516.152L535.406,516.029L535.347,515.907L535.289,515.784L535.232,515.66L535.176,515.536L535.12,515.412L535.065,515.287L535.011,515.162L534.957,515.037L534.904,514.911L534.852,514.785L534.801,514.658L534.75,514.531L534.7,514.404L534.651,514.276L534.603,514.148L534.556,514.019L534.509,513.891L534.463,513.761L534.418,513.632L534.373,513.502L534.329,513.371L534.287,513.241L534.244,513.11L534.203,512.978L534.163,512.847L534.123,512.715L534.084,512.582L534.046,512.45L534.008,512.317L533.972,512.183L533.936,512.049L533.901,511.915L533.867,511.781L533.833,511.646L533.801,511.511L533.769,511.376L533.738,511.24L533.708,511.104L533.679,510.968L533.651,510.832L533.623,510.695L533.596,510.558L533.57,510.42L533.545,510.282L533.521,510.144L533.498,510.006L533.475,509.867L533.453,509.729L533.432,509.589L533.413,509.45L533.393,509.31L533.375,509.17L533.358,509.03L533.341,508.89L533.326,508.749L533.311,508.608L533.297,508.466L533.284,508.325L533.272,508.183L533.26,508.041L533.25,507.899L533.24,507.756L533.232,507.613L533.224,507.47L533.217,507.327L533.211,507.184L533.206,507.04L533.202,506.896L533.199,506.752L533.197,506.607L533.195,506.463L533.195,506.318L533.195,454.156L533.195,454.012L533.197,453.867L533.199,453.723L533.202,453.578L533.206,453.435L533.211,453.291L533.217,453.147L533.224,453.004L533.232,452.861L533.24,452.718L533.25,452.576L533.26,452.433L533.272,452.291L533.284,452.15L533.297,452.008L533.311,451.867L533.326,451.726L533.341,451.585L533.358,451.444L533.375,451.304L533.393,451.164L533.413,451.024L533.432,450.885L533.453,450.746L533.475,450.607L533.498,450.468L533.521,450.33L533.545,450.192L533.57,450.054L533.596,449.917L533.623,449.78L533.651,449.643L533.679,449.506L533.708,449.37L533.738,449.234L533.769,449.098L533.801,448.963L533.833,448.828L533.867,448.693L533.901,448.559L533.936,448.425L533.972,448.291L534.008,448.158L534.046,448.025L534.084,447.892L534.123,447.76L534.163,447.628L534.203,447.496L534.244,447.365L534.287,447.234L534.329,447.103L534.373,446.973L534.418,446.843L534.463,446.713L534.509,446.584L534.556,446.455L534.603,446.327L534.651,446.198L534.7,446.071L534.75,445.943L534.801,445.816L534.852,445.69L534.904,445.563L534.957,445.438L535.011,445.312L535.065,445.187L535.12,445.062L535.176,444.938L535.232,444.814L535.289,444.691L535.347,444.568L535.406,444.445L535.465,444.323L535.526,444.201L535.586,444.08L535.648,443.959L535.71,443.838L535.773,443.718L535.837,443.598L535.901,443.479L535.966,443.36L536.032,443.242L536.098,443.124L536.166,443.006L536.233,442.889L536.302,442.772L536.371,442.656L536.441,442.541L536.512,442.425L536.583,442.31L536.655,442.196L536.727,442.082L536.8,441.969L536.874,441.856L536.949,441.743L537.024,441.631L537.1,441.52L537.177,441.409L537.254,441.298L537.331,441.188L537.41,441.079L537.489,440.969L537.569,440.861L537.649,440.753L537.73,440.645L537.812,440.538L537.894,440.431L537.977,440.325L538.06,440.22L538.145,440.115L538.229,440.01L538.315,439.906L538.401,439.803L538.487,439.7L538.574,439.597L538.662,439.495L538.75,439.394L538.839,439.293L538.929,439.193L539.019,439.093L539.11,438.994L539.201,438.895L539.293,438.797L539.386,438.699L539.479,438.602L539.572,438.506L539.667,438.41L539.761,438.314L539.857,438.22L539.953,438.125L540.049,438.032L540.146,437.939L540.244,437.846L540.342,437.754L540.441,437.663L540.54,437.572L540.64,437.482L540.74,437.393L540.841,437.304L540.942,437.215L541.044,437.127L541.146,437.04L541.249,436.954L541.353,436.868L541.457,436.782L541.562,436.698L541.667,436.614L541.772,436.53L541.878,436.447L541.985,436.365L542.092,436.283L542.2,436.202L542.308,436.122L542.416,436.042L542.525,435.963L542.635,435.885L542.745,435.807L542.856,435.73L542.967,435.653L543.078,435.577L543.19,435.502L543.303,435.427L543.416,435.354L543.529,435.28L543.643,435.208L543.757,435.136L543.872,435.065L543.987,434.994L544.103,434.924L544.219,434.855L544.336,434.787L544.453,434.719L544.571,434.652L544.689,434.585L544.807,434.519L544.926,434.454L545.045,434.39L545.165,434.326L545.285,434.263L545.406,434.201L545.527,434.139L545.648,434.079L545.77,434.019L545.892,433.959L546.015,433.9L546.138,433.843L546.261,433.785L546.385,433.729L546.509,433.673L546.634,433.618L546.759,433.564L546.885,433.51L547.01,433.457L547.137,433.405L547.263,433.354L547.39,433.303L547.518,433.254L547.645,433.205L547.773,433.156L547.902,433.109L548.031,433.062L548.16,433.016L548.29,432.971L548.42,432.926L548.55,432.883L548.681,432.84L548.812,432.798L548.943,432.756L549.075,432.716L549.207,432.676L549.339,432.637L549.472,432.599L549.605,432.561L549.738,432.525L549.872,432.489L550.006,432.454L550.14,432.42L550.275,432.387L550.41,432.354L550.545,432.322L550.681,432.291L550.817,432.261L550.953,432.232L551.09,432.204L551.227,432.176L551.364,432.149L551.501,432.123L551.639,432.098L551.777,432.074L551.915,432.051L552.054,432.028L552.193,432.006L552.332,431.986L552.471,431.966L552.611,431.946L552.751,431.928L552.891,431.911L553.032,431.894L553.173,431.879L553.314,431.864L553.455,431.85L553.596,431.837L553.738,431.825L553.88,431.813L554.023,431.803L554.165,431.794L554.308,431.785L554.451,431.777L554.594,431.77L554.738,431.764L554.881,431.759L555.025,431.755L555.17,431.752L555.314,431.75L555.459,431.748L555.748,431.748ZM555.522,441.748L555.44,441.749L555.36,441.75L555.279,441.752L555.199,441.754L555.118,441.757L555.038,441.761L554.958,441.764L554.878,441.769L554.799,441.774L554.719,441.779L554.64,441.785L554.561,441.791L554.482,441.798L554.404,441.805L554.325,441.813L554.247,441.821L554.169,441.829L554.091,441.839L554.014,441.848L553.936,441.858L553.859,441.869L553.781,441.88L553.705,441.891L553.629,441.903L553.552,441.916L553.476,441.929L553.399,441.942L553.323,441.956L553.247,441.97L553.172,441.985L553.097,442L553.021,442.016L552.946,442.032L552.872,442.049L552.797,442.065L552.722,442.083L552.648,442.101L552.574,442.119L552.5,442.138L552.426,442.157L552.353,442.177L552.28,442.197L552.206,442.218L552.133,442.239L552.061,442.26L551.988,442.282L551.916,442.304L551.843,442.327L551.771,442.35L551.7,442.374L551.627,442.398L551.556,442.422L551.485,442.447L551.414,442.472L551.343,442.498L551.272,442.524L551.201,442.551L551.131,442.578L551.061,442.606L550.991,442.633L550.922,442.661L550.852,442.69L550.782,442.719L550.713,442.749L550.645,442.779L550.575,442.809L550.507,442.84L550.439,442.871L550.371,442.903L550.303,442.935L550.236,442.967L550.168,443L550.1,443.033L550.033,443.066L549.967,443.1L549.9,443.135L549.833,443.17L549.768,443.205L549.702,443.24L549.635,443.277L549.57,443.313L549.505,443.349L549.439,443.387L549.375,443.424L549.311,443.462L549.246,443.501L549.182,443.539L549.118,443.578L549.054,443.618L548.991,443.657L548.928,443.698L548.865,443.739L548.802,443.779L548.74,443.821L548.678,443.863L548.616,443.905L548.554,443.947L548.493,443.99L548.432,444.033L548.371,444.077L548.31,444.121L548.249,444.165L548.19,444.21L548.13,444.255L548.07,444.3L548.011,444.346L547.952,444.392L547.894,444.438L547.835,444.485L547.776,444.533L547.719,444.58L547.661,444.628L547.604,444.676L547.546,444.725L547.49,444.773L547.434,444.822L547.377,444.872L547.322,444.922L547.266,444.972L547.211,445.023L547.156,445.074L547.101,445.124L547.047,445.176L546.993,445.228L546.939,445.28L546.885,445.333L546.832,445.386L546.78,445.438L546.727,445.492L546.675,445.546L546.623,445.6L546.571,445.654L546.52,445.709L546.47,445.763L546.419,445.819L546.369,445.875L546.319,445.93L546.269,445.987L546.22,446.043L546.171,446.1L546.123,446.156L546.075,446.214L546.027,446.272L545.979,446.33L545.932,446.388L545.885,446.447L545.838,446.506L545.793,446.564L545.747,446.623L545.702,446.683L545.657,446.743L545.612,446.802L545.568,446.863L545.524,446.924L545.48,446.985L545.437,447.046L545.394,447.107L545.351,447.169L545.31,447.231L545.268,447.293L545.226,447.356L545.185,447.418L545.145,447.48L545.105,447.544L545.065,447.608L545.025,447.672L544.986,447.735L544.947,447.799L544.909,447.863L544.871,447.928L544.833,447.993L544.796,448.058L544.76,448.123L544.724,448.188L544.687,448.255L544.652,448.32L544.617,448.386L544.581,448.454L544.547,448.52L544.514,448.586L544.48,448.654L544.446,448.721L544.414,448.788L544.381,448.856L544.35,448.923L544.318,448.992L544.286,449.061L544.256,449.128L544.226,449.197L544.196,449.266L544.167,449.335L544.137,449.405L544.108,449.475L544.08,449.544L544.053,449.613L544.025,449.684L543.998,449.755L543.971,449.825L543.945,449.896L543.919,449.967L543.894,450.037L543.869,450.109L543.845,450.181L543.821,450.251L543.797,450.323L543.774,450.397L543.751,450.469L543.729,450.541L543.707,450.614L543.686,450.686L543.665,450.759L543.644,450.833L543.624,450.906L543.604,450.979L543.585,451.053L543.566,451.127L543.548,451.201L543.53,451.275L543.512,451.35L543.496,451.424L543.479,451.499L543.463,451.575L543.447,451.649L543.432,451.724L543.417,451.8L543.403,451.876L543.389,451.953L543.376,452.029L543.363,452.105L543.351,452.18L543.338,452.258L543.327,452.335L543.316,452.411L543.305,452.489L543.295,452.567L543.285,452.645L543.276,452.722L543.268,452.8L543.26,452.877L543.252,452.957L543.244,453.036L543.238,453.113L543.231,453.193L543.226,453.272L543.22,453.352L543.216,453.431L543.211,453.51L543.208,453.591L543.204,453.672L543.201,453.752L543.199,453.832L543.197,453.913L543.196,453.993L543.195,454.075L543.195,506.4L543.196,506.482L543.197,506.561L543.201,506.723L543.204,506.803L543.208,506.884L543.211,506.964L543.216,507.043L543.22,507.123L543.226,507.202L543.231,507.281L543.238,507.361L543.244,507.438L543.252,507.517L543.26,507.597L543.268,507.674L543.276,507.752L543.285,507.83L543.295,507.907L543.305,507.985L543.316,508.063L543.327,508.139L543.338,508.216L543.351,508.294L543.363,508.369L543.376,508.445L543.389,508.522L543.417,508.674L543.447,508.826L543.463,508.899L543.479,508.975L543.496,509.05L543.512,509.124L543.53,509.199L543.566,509.347L543.585,509.421L543.604
,509.496L543.624,509.569L543.644,509.641L543.665,509.716L543.686,509.789L543.707,509.86L543.729,509.934L543.751,510.006L543.774,510.077L543.797,510.151L543.821,510.223L543.869,510.365L543.894,510.437L543.919,510.508L543.945,510.578L543.971,510.649L543.998,510.72L544.025,510.79L544.053,510.861L544.08,510.931L544.108,510.999L544.137,511.069L544.166,511.14L544.196,511.208L544.256,511.346L544.286,511.414L544.318,511.483L544.35,511.551L544.381,511.618L544.447,511.754L544.48,511.821L544.547,511.955L544.581,512.021L544.617,512.089L544.652,512.154L544.687,512.22L544.724,512.286L544.759,512.351L544.796,512.416L544.834,512.482L544.871,512.547L544.947,512.675L545.064,512.867L545.105,512.931L545.145,512.994L545.185,513.056L545.226,513.119L545.268,513.182L545.31,513.244L545.351,513.305L545.394,513.367L545.437,513.428L545.48,513.49L545.568,513.612L545.612,513.672L545.656,513.731L545.702,513.792L545.748,513.852L545.793,513.91L545.838,513.969L545.932,514.087L545.979,514.144L546.027,514.203L546.075,514.26L546.123,514.318L546.171,514.374L546.22,514.431L546.269,514.487L546.319,514.544L546.369,514.6L546.469,514.71L546.521,514.766L546.572,514.82L546.622,514.874L546.675,514.928L546.727,514.983L546.78,515.036L546.832,515.089L546.885,515.142L546.939,515.195L546.993,515.247L547.046,515.298L547.101,515.35L547.211,515.452L547.267,515.503L547.322,515.553L547.377,515.602L547.433,515.652L547.49,515.701L547.546,515.749L547.605,515.799L547.662,515.847L547.718,515.894L547.777,515.942L547.893,516.036L547.952,516.082L548.011,516.129L548.071,516.175L548.13,516.22L548.189,516.264L548.249,516.309L548.31,516.354L548.432,516.442L548.493,516.485L548.615,516.569L548.678,516.612L548.741,516.654L548.802,516.695L548.864,516.735L548.929,516.777L548.992,516.817L549.054,516.856L549.117,516.896L549.247,516.974L549.31,517.012L549.44,517.088L549.57,517.162L549.702,517.234L549.766,517.269L549.967,517.374L550.101,517.442L550.168,517.475L550.234,517.507L550.301,517.539L550.371,517.572L550.507,517.634L550.576,517.666L550.645,517.696L550.713,517.726L550.782,517.755L550.852,517.785L550.99,517.841L551.061,517.869L551.201,517.923L551.272,517.95L551.342,517.976L551.414,518.002L551.485,518.028L551.555,518.052L551.628,518.077L551.7,518.101L551.77,518.124L551.989,518.193L552.06,518.214L552.132,518.235L552.207,518.257L552.279,518.277L552.427,518.317L552.499,518.336L552.649,518.374L552.722,518.391L552.796,518.409L552.871,518.426L553.021,518.458L553.173,518.49L553.247,518.504L553.475,518.546L553.552,518.559L553.629,518.571L553.704,518.583L553.782,518.594L553.86,518.606L553.936,518.616L554.013,518.626L554.091,518.636L554.247,518.654L554.403,518.67L554.482,518.677L554.562,518.684L554.64,518.69L554.719,518.696L554.799,518.701L554.878,518.706L555.038,518.714L555.117,518.717L555.199,518.72L555.36,518.724L555.521,518.726L555.685,518.726L555.766,518.725L555.847,518.724L555.928,518.722L556.008,518.72L556.089,518.717L556.169,518.714L556.248,518.71L556.328,518.706L556.408,518.701L556.488,518.696L556.567,518.69L556.645,518.684L556.725,518.677L556.804,518.669L556.881,518.662L556.96,518.654L557.038,518.645L557.115,518.636L557.194,518.626L557.271,518.616L557.347,518.606L557.425,518.594L557.503,518.583L557.578,518.571L557.655,518.559L557.732,518.546L557.807,518.532L557.884,518.518L557.96,518.504L558.034,518.49L558.109,518.474L558.186,518.458L558.26,518.442L558.336,518.426L558.411,518.409L558.484,518.391L558.557,518.374L558.633,518.355L558.708,518.336L558.78,518.317L558.854,518.297L558.928,518.277L559,518.257L559.074,518.236L559.147,518.214L559.218,518.193L559.291,518.17L559.364,518.147L559.437,518.124L559.507,518.101L559.579,518.077L559.652,518.052L559.721,518.028L559.793,518.002L559.865,517.976L559.935,517.95L560.005,517.924L560.076,517.896L560.146,517.869L560.216,517.841L560.285,517.813L560.354,517.785L560.424,517.755L560.494,517.725L560.562,517.696L560.63,517.666L560.7,517.634L560.769,517.603L560.836,517.572L560.905,517.54L560.972,517.507L561.039,517.475L561.107,517.441L561.174,517.408L561.24,517.374L561.306,517.34L561.374,517.304L561.441,517.269L561.505,517.234L561.57,517.199L561.636,517.162L561.703,517.124L561.767,517.088L561.831,517.051L561.897,517.012L561.961,516.974L562.025,516.935L562.089,516.896L562.153,516.856L562.214,516.818L562.278,516.777L562.343,516.735L562.406,516.694L562.466,516.654L562.528,516.612L562.592,516.569L562.652,516.527L562.714,516.485L562.776,516.441L562.837,516.397L562.896,516.354L562.957,516.31L563.017,516.264L563.077,516.22L563.136,516.174L563.195,516.129L563.255,516.082L563.315,516.035L563.373,515.989L563.43,515.942L563.488,515.895L563.544,515.848L563.603,515.799L563.661,515.749L563.716,515.702L563.773,515.652L563.831,515.601L563.887,515.551L563.939,515.504L563.995,515.453L564.051,515.401L564.106,515.35L564.161,515.298L564.214,515.247L564.267,515.195L564.322,515.141L564.375,515.088L564.426,515.037L564.479,514.983L564.533,514.928L564.584,514.874L564.634,514.822L564.687,514.765L564.739,514.709L564.789,514.654L564.837,514.6L564.887,514.545L564.936,514.489L564.987,514.431L565.036,514.374L565.084,514.318L565.133,514.259L565.18,514.203L565.228,514.144L565.275,514.086L565.321,514.029L565.368,513.97L565.415,513.909L565.459,513.852L565.504,513.792L565.551,513.731L565.595,513.672L565.639,513.612L565.684,513.55L565.727,513.489L565.77,513.429L565.812,513.368L565.855,513.306L565.897,513.244L565.939,513.181L565.98,513.12L566.022,513.056L566.063,512.992L566.103,512.93L566.142,512.867L566.181,512.804L566.22,512.74L566.26,512.674L566.298,512.61L566.335,512.548L566.372,512.483L566.41,512.417L566.447,512.351L566.484,512.285L566.52,512.218L566.556,512.153L566.59,512.089L566.624,512.023L566.66,511.955L566.694,511.886L566.727,511.822L566.76,511.755L566.793,511.687L566.825,511.619L566.858,511.549L566.889,511.483L566.919,511.416L566.952,511.344L566.981,511.277L567.011,511.209L567.041,511.138L567.07,511.068L567.099,510.999L567.126,510.932L567.155,510.86L567.182,510.79L567.209,510.72L567.236,510.649L567.261,510.581L567.288,510.507L567.313,510.435L567.337,510.367L567.362,510.295L567.386,510.222L567.41,510.151L567.433,510.077L567.456,510.006L567.478,509.934L567.5,509.861L567.521,509.789L567.543,509.713L567.563,509.642L567.583,509.569L567.603,509.495L567.622,509.423L567.641,509.347L567.659,509.275L567.677,509.199L567.695,509.123L567.712,509.049L567.728,508.975L567.744,508.9L567.759,508.826L567.775,508.75L567.789,508.674L567.804,508.598L567.818,508.522L567.831,508.445L567.844,508.37L567.856,508.293L567.869,508.215L567.88,508.139L567.891,508.063L567.901,507.987L567.912,507.907L567.921,507.83L567.93,507.752L567.939,507.674L567.947,507.596L567.955,507.517L567.962,507.441L567.969,507.361L567.975,507.281L567.981,507.201L567.986,507.123L567.991,507.044L567.996,506.963L567.999,506.884L568.003,506.804L568.005,506.721L568.008,506.641L568.009,506.563L568.011,506.482L568.012,506.4L568.012,506.302L568.012,454.172L568.012,454.075L568.011,453.993L568.009,453.912L568.008,453.833L568.005,453.753L568.003,453.67L567.999,453.591L567.996,453.512L567.991,453.43L567.986,453.352L567.981,453.274L567.975,453.193L567.969,453.113L567.962,453.034L567.955,452.957L567.947,452.879L567.939,452.8L567.93,452.722L567.921,452.645L567.912,452.567L567.901,452.488L567.891,452.411L567.88,452.335L567.869,452.26L567.856,452.182L567.844,452.104L567.831,452.029L567.818,451.953L567.804,451.876L567.789,451.8L567.775,451.724L567.76,451.649L567.744,451.574L567.728,451.499L567.712,451.425L567.695,451.351L567.677,451.275L567.659,451.2L567.641,451.127L567.622,451.052L567.603,450.98L567.583,450.906L567.563,450.832L567.543,450.761L567.521,450.686L567.5,450.613L567.478,450.541L567.456,450.469L567.433,450.397L567.409,450.323L567.386,450.253L567.362,450.18L567.337,450.107L567.313,450.04L567.288,449.968L567.261,449.894L567.236,449.825L567.209,449.755L567.182,449.684L567.155,449.614L567.126,449.542L567.099,449.475L567.07,449.406L567.041,449.336L567.011,449.265L566.981,449.197L566.952,449.13L566.919,449.059L566.889,448.992L566.858,448.926L566.825,448.855L566.793,448.787L566.76,448.72L566.727,448.653L566.694,448.588L566.659,448.52L566.624,448.452L566.59,448.386L566.555,448.321L566.52,448.256L566.484,448.189L566.447,448.123L566.41,448.057L566.373,447.992L566.335,447.927L566.298,447.864L566.26,447.8L566.22,447.734L566.181,447.671L566.142,447.608L566.103,447.545L566.063,447.482L566.022,447.418L565.98,447.355L565.939,447.294L565.897,447.231L565.855,447.169L565.812,447.106L565.769,447.045L565.727,446.986L565.684,446.925L565.639,446.863L565.595,446.802L565.55,446.743L565.504,446.682L565.46,446.623L565.415,446.565L565.368,446.505L565.321,446.446L565.275,446.388L565.227,446.33L565.18,446.272L565.133,446.216L565.084,446.156L565.036,446.1L564.987,446.043L564.936,445.986L564.887,445.93L564.838,445.875L564.788,445.82L564.738,445.765L564.687,445.71L564.634,445.653L564.583,445.6L564.533,445.547L564.479,445.491L564.426,445.438L564.375,445.386L564.322,445.334L564.267,445.28L564.214,445.228L564.16,445.176L564.105,445.124L564.051,445.074L563.995,445.022L563.94,444.971L563.887,444.923L563.83,444.873L563.772,444.822L563.716,444.772L563.661,444.725L563.604,444.677L563.545,444.627L563.487,444.579L563.43,444.533L563.372,444.486L563.314,444.439L563.255,444.392L563.195,444.345L563.137,444.301L563.077,444.255L563.017,444.209L562.957,444.165L562.896,444.12L562.837,444.077L562.776,444.034L562.714,443.99L562.652,443.947L562.591,443.905L562.528,443.862L562.467,443.821L562.405,443.78L562.342,443.739L562.279,443.698L562.215,443.657L562.153,443.618L562.089,443.578L562.025,443.539L561.962,443.501L561.896,443.462L561.83,443.423L561.768,443.387L561.703,443.35L561.636,443.312L561.571,443.276L561.505,443.24L561.44,443.205L561.374,443.17L561.306,443.134L561.24,443.1L561.174,443.067L561.107,443.033L561.039,443L560.971,442.967L560.904,442.934L560.836,442.903L560.769,442.871L560.7,442.84L560.631,442.809L560.562,442.779L560.494,442.749L560.425,442.719L560.355,442.69L560.285,442.661L560.215,442.633L560.147,442.606L560.076,442.578L560.005,442.551L559.935,442.524L559.864,442.498L559.793,442.472L559.722
,442.447L559.651,442.422L559.579,442.398L559.507,442.374L559.436,442.35L559.364,442.327L559.291,442.304L559.219,442.282L559.146,442.26L559.074,442.239L559.001,442.218L558.927,442.197L558.854,442.177L558.78,442.157L558.707,442.138L558.633,442.119L558.559,442.101L558.484,442.083L558.41,442.066L558.335,442.049L558.26,442.032L558.186,442.016L558.11,442L558.035,441.985L557.96,441.97L557.884,441.956L557.807,441.942L557.731,441.929L557.655,441.916L557.578,441.903L557.502,441.891L557.425,441.88L557.348,441.869L557.271,441.858L557.193,441.848L557.115,441.839L557.038,441.829L556.96,441.821L556.881,441.813L556.803,441.805L556.725,441.798L556.646,441.791L556.567,441.785L556.488,441.779L556.408,441.774L556.328,441.769L556.249,441.764L556.169,441.761L556.089,441.757L556.008,441.754L555.928,441.752L555.847,441.75L555.766,441.749L555.685,441.748L555.603,441.748L555.522,441.748Z" style="fill:#e7745f;"/>
        </g>
    </g>
</svg>
